<svg xmlns="http://www.w3.org/2000/svg" xmlns:xlink="http://www.w3.org/1999/xlink" viewBox="0 0 656.42 838.98"><defs><style>.cls-1{opacity:0.5;}.cls-10,.cls-11,.cls-12,.cls-13,.cls-14,.cls-15,.cls-2,.cls-3,.cls-4,.cls-5,.cls-6,.cls-8,.cls-9{stroke:#000;stroke-miterlimit:10;stroke-width:5px;}.cls-2{fill:url(#linear-gradient);}.cls-3{fill:url(#linear-gradient-2);}.cls-4{fill:#262261;}.cls-5{fill:url(#linear-gradient-3);}.cls-6{fill:#2b388f;}.cls-7{fill:#f1f1f2;}.cls-8{fill:#8a5d3b;}.cls-9{fill:#f4f1db;}.cls-10{fill:#1b75bb;}.cls-11{fill:#15203c;}.cls-12{fill:#0d1024;}.cls-13{fill:#d5a088;}.cls-14{fill:url(#linear-gradient-4);}.cls-15{fill:url(#linear-gradient-5);}</style><linearGradient id="linear-gradient" x1="406.78" y1="154.41" x2="406.78" y2="507.19" gradientTransform="matrix(-1, 0, 0, 1, 658.78, -51.24)" gradientUnits="userSpaceOnUse"><stop offset="0" stop-color="#bbbdbf"/><stop offset="1" stop-color="#231f20"/></linearGradient><linearGradient id="linear-gradient-2" x1="459.71" y1="340.04" x2="459.71" y2="397.31" xlink:href="#linear-gradient"/><linearGradient id="linear-gradient-3" x1="413.83" y1="385.54" x2="413.83" y2="887.44" gradientTransform="matrix(-1, 0, 0, 1, 658.78, -51.24)" gradientUnits="userSpaceOnUse"><stop offset="0" stop-color="#00adee"/><stop offset="1" stop-color="#262261"/></linearGradient><linearGradient id="linear-gradient-4" x1="479.35" y1="454.09" x2="479.35" y2="887.44" xlink:href="#linear-gradient-3"/><linearGradient id="linear-gradient-5" x1="569.56" y1="185.03" x2="569.56" y2="397.31" xlink:href="#linear-gradient-3"/></defs><g id="Final"><g id="Medicine_-_Reversed" data-name="Medicine - Reversed"><polygon class="cls-2" points="175.78 133.78 501.34 103.17 385.97 270.32 472.01 312.02 401.92 382.79 137.3 455.94 12.21 359.93 2.66 346.07 32.17 201 175.78 133.78"/><line class="cls-3" x1="2.66" y1="346.07" x2="395.47" y2="288.8"/><path class="cls-4" d="M582.5,386.76s27.82,5.92,37.12,26.9L593,450.94,426.6,490.32s-43.33-61.41,23.21-106.56Z" transform="translate(-222.67 -51.24)"/><polygon class="cls-5" points="487.24 334.29 179.43 402.85 2.66 346.07 2.66 766.45 179.43 836.2 483.08 653.98 487.24 334.29"/><path class="cls-6" d="M585,382.92c23.62,80.81-161.11,24.79-140.07,3.84" transform="translate(-222.67 -51.24)"/><polygon class="cls-7" points="485.33 336.56 180.37 711.31 5.45 646.36 5.45 764.45 180.37 833.57 483.72 428.53 485.33 336.56"/><path class="cls-8" d="M690,414.66s15,44.59,39.68,8.09" transform="translate(-222.67 -51.24)"/><path class="cls-6" d="M597.58,365.27c19.61,50.65-165.47,57.55-156.3,12.12" transform="translate(-222.67 -51.24)"/><path class="cls-9" d="M623.65,254.54c27,14.24,44.38,34,42.58,57.7-2.39,21.75-17.52,39.67-39.67,53C540.7,344.4,571.63,258.85,623.65,254.54Z" transform="translate(-222.67 -51.24)"/><path class="cls-9" d="M382.69,312.53c-.72-37.87,25.3-61.46,61.85-73.39,101.53,6.43,106.31,175.36-26.08,129.09C398.85,355.27,385.44,336.89,382.69,312.53Z" transform="translate(-222.67 -51.24)"/><path class="cls-10" d="M593.18,244.74c17,4.43,33.84,11.42,47.3,22.43a52.77,52.77,0,0,1,5.95,24.53c0,26.7-19.26,48.34-43,48.34s-43-21.64-43-48.34C560.39,269,574.36,249.9,593.18,244.74Z" transform="translate(-222.67 -51.24)"/><ellipse class="cls-10" cx="245.4" cy="244.68" rx="47.54" ry="49.91"/><path class="cls-11" d="M445,239c54.08-17.49,131-9.56,178.45,15.4a.08.08,0,0,1,0,.15c-51.82,4.6-82.46,89.75,3,110.66a.08.08,0,0,1,0,.15c-55.25,33.21-153.91,38.07-207.36,3.24a.09.09,0,0,1,.08-.15C550.64,413.88,545.91,246,445,239.17,444.88,239.16,444.86,239,445,239Z" transform="translate(-222.67 -51.24)"/><path class="cls-12" d="M512.83,252.24s-74.68-151.85-230.53-99.8C282.3,152.44,409,132.9,512.83,252.24Z" transform="translate(-222.67 -51.24)"/><path class="cls-12" d="M559.58,252.24s7.74-169-153.9-198.54C405.68,53.7,526.12,97.64,559.58,252.24Z" transform="translate(-222.67 -51.24)"/><path class="cls-4" d="M468.6,438.35c-20.83-2.32,1.14,49.94-20.45,64.38a27.1,27.1,0,0,0-11.1,16.83c-26.62,120.05,129.52,31.58,89.75-81.46A70.76,70.76,0,0,0,490,397c-13.77-6.33-31.55-10.25-49-1.95" transform="translate(-222.67 -51.24)"/><path class="cls-4" d="M593,393c41.59-.59,131.57-135.27,232.21-55,0,0,19.34,71.28-76.14,100.93,0,0-27.82-42.28-93.4-13.18,0,0-32.12,5.15-40.13-12.12C615.55,413.66,612.23,404.27,593,393Z" transform="translate(-222.67 -51.24)"/><path class="cls-13" d="M719.64,320.26s67,45,82.22,88.32a44.79,44.79,0,0,1,.48,28.08c-17.78,57.08,59.17,74.44,72.87-44.09,0,0-25.67-84.55-135.84-84.81,0,0-34.83,2.11-52.43,24.81Z" transform="translate(-222.67 -51.24)"/><path class="cls-9" d="M811.37,397.06s44.71-11.06,63.84-4.49c0,0-26.72-84.22-135.84-84.81l-15.47,7.42S801.24,354.48,811.37,397.06Z" transform="translate(-222.67 -51.24)"/><line class="cls-14" x1="179.43" y1="836.2" x2="179.43" y2="402.85"/><polygon class="cls-15" points="2.66 346.07 2.66 183.03 175.78 133.78 2.66 346.07"/><path class="cls-13" d="M655.56,470.16c-83.89-21-248.82,259.91-159.25,281.78S739.45,491.15,655.56,470.16Z" transform="translate(-222.67 -51.24)"/><path class="cls-9" d="M636.79,577.05l-63.46-24.21a11.79,11.79,0,0,0-14.06,4.55L510.34,631.9a11.78,11.78,0,0,0,5.76,17.53l66.18,24.5a11.79,11.79,0,0,0,14.13-4.86l46.21-74.81A11.79,11.79,0,0,0,636.79,577.05Z" transform="translate(-222.67 -51.24)"/><path d="M547.91,687.44c3.22,0,3.22-5,0-5s-3.22,5,0,5Z" transform="translate(-222.67 -51.24)"/><path d="M514.16,681.54c3.22,0,3.22-5,0-5s-3.22,5,0,5Z" transform="translate(-222.67 -51.24)"/><path d="M510.79,720.35c3.21,0,3.22-5,0-5s-3.23,5,0,5Z" transform="translate(-222.67 -51.24)"/><path d="M543.69,724.57c3.22,0,3.22-5,0-5s-3.22,5,0,5Z" transform="translate(-222.67 -51.24)"/><path d="M492.22,716.13c3.22,0,3.23-5,0-5s-3.22,5,0,5Z" transform="translate(-222.67 -51.24)"/><path d="M640.72,532.19c3.22,0,3.22-5,0-5s-3.22,5,0,5Z" transform="translate(-222.67 -51.24)"/><path d="M609.5,535.57c3.22,0,3.23-5,0-5s-3.22,5,0,5Z" transform="translate(-222.67 -51.24)"/><path d="M648.32,569.32c3.21,0,3.22-5,0-5s-3.23,5,0,5Z" transform="translate(-222.67 -51.24)"/><path d="M578.28,535.57c3.22,0,3.23-5,0-5s-3.22,5,0,5Z" transform="translate(-222.67 -51.24)"/><path d="M642.41,490c3.22,0,3.22-5,0-5s-3.22,5,0,5Z" transform="translate(-222.67 -51.24)"/><path d="M617.94,500.13c3.22,0,3.22-5,0-5s-3.22,5,0,5Z" transform="translate(-222.67 -51.24)"/><path d="M657.6,511.94c3.21,0,3.22-5,0-5s-3.23,5,0,5Z" transform="translate(-222.67 -51.24)"/><path d="M826.35,414.91c3.21,0,3.22-5,0-5s-3.23,5,0,5Z" transform="translate(-222.67 -51.24)"/><path d="M813.69,447.82c3.22,0,3.22-5,0-5s-3.22,5,0,5Z" transform="translate(-222.67 -51.24)"/><path d="M831.41,460.47c3.22,0,3.22-5,0-5s-3.22,5,0,5Z" transform="translate(-222.67 -51.24)"/><path d="M856.72,430.94c3.22,0,3.22-5,0-5s-3.22,5,0,5Z" transform="translate(-222.67 -51.24)"/><path d="M858.41,411.54c3.22,0,3.22-5,0-5s-3.22,5,0,5Z" transform="translate(-222.67 -51.24)"/></g></g></svg>