<svg xmlns="http://www.w3.org/2000/svg" xmlns:xlink="http://www.w3.org/1999/xlink" viewBox="0 0 656.42 838.98"><defs><style>.cls-1{opacity:0.5;}.cls-10,.cls-11,.cls-12,.cls-13,.cls-14,.cls-15,.cls-2,.cls-3,.cls-4,.cls-5,.cls-6,.cls-8,.cls-9{stroke:#000;stroke-miterlimit:10;stroke-width:5px;}.cls-2{fill:url(#linear-gradient);}.cls-3{fill:url(#linear-gradient-2);}.cls-4{fill:#262261;}.cls-5{fill:url(#linear-gradient-3);}.cls-6{fill:#2b388f;}.cls-7{fill:#f1f1f2;}.cls-8{fill:#8a5d3b;}.cls-9{fill:#f4f1db;}.cls-10{fill:#1b75bb;}.cls-11{fill:#15203c;}.cls-12{fill:#0d1024;}.cls-13{fill:#d5a088;}.cls-14{fill:url(#linear-gradient-4);}.cls-15{fill:url(#linear-gradient-5);}</style><linearGradient id="linear-gradient" x1="404.42" y1="103.17" x2="404.42" y2="455.95" gradientUnits="userSpaceOnUse"><stop offset="0" stop-color="#bbbdbf"/><stop offset="1" stop-color="#231f20"/></linearGradient><linearGradient id="linear-gradient-2" x1="457.35" y1="288.8" x2="457.35" y2="346.07" xlink:href="#linear-gradient"/><linearGradient id="linear-gradient-3" x1="411.47" y1="334.29" x2="411.47" y2="836.2" gradientUnits="userSpaceOnUse"><stop offset="0" stop-color="#00adee"/><stop offset="1" stop-color="#262261"/></linearGradient><linearGradient id="linear-gradient-4" x1="476.99" y1="402.85" x2="476.99" y2="836.2" xlink:href="#linear-gradient-3"/><linearGradient id="linear-gradient-5" x1="567.2" y1="133.78" x2="567.2" y2="346.07" xlink:href="#linear-gradient-3"/></defs><g id="Final"><g id="Medicine"><polygon class="cls-2" points="480.64 133.78 155.08 103.17 270.45 270.32 184.41 312.02 254.5 382.79 519.12 455.94 644.21 359.93 653.76 346.07 624.25 201 480.64 133.78"/><line class="cls-3" x1="653.76" y1="346.07" x2="260.95" y2="288.8"/><path class="cls-4" d="M408.5,388.29s-27.82,5.92-37.12,26.9L398,452.47,564.4,491.85s43.33-61.41-23.21-106.57Z" transform="translate(-111.9 -52.77)"/><polygon class="cls-5" points="169.18 334.29 476.99 402.85 653.76 346.07 653.76 766.45 476.99 836.2 173.34 653.98 169.18 334.29"/><path class="cls-6" d="M406,384.45c-23.62,80.81,161.1,24.79,140.07,3.84" transform="translate(-111.9 -52.77)"/><polygon class="cls-7" points="171.09 336.56 476.05 711.31 650.97 646.36 650.97 764.45 476.05 833.57 172.7 428.53 171.09 336.56"/><path class="cls-8" d="M301.05,416.19s-15,44.58-39.68,8.09" transform="translate(-111.9 -52.77)"/><path class="cls-6" d="M393.42,366.8c-19.61,50.65,165.47,57.55,156.3,12.12" transform="translate(-111.9 -52.77)"/><path class="cls-9" d="M367.35,256.07c-27,14.24-44.38,34-42.58,57.7,2.39,21.75,17.52,39.67,39.67,53C450.3,345.93,419.37,260.38,367.35,256.07Z" transform="translate(-111.9 -52.77)"/><path class="cls-9" d="M608.31,314.06c.72-37.87-25.3-61.46-61.85-73.39C444.93,247.1,440.15,416,572.54,369.76,592.15,356.79,605.56,338.42,608.31,314.06Z" transform="translate(-111.9 -52.77)"/><path class="cls-10" d="M397.82,246.27c-17,4.43-33.84,11.42-47.3,22.43a52.77,52.77,0,0,0-5.95,24.53c0,26.7,19.26,48.34,43,48.34s43-21.64,43-48.34C430.61,270.49,416.64,251.43,397.82,246.27Z" transform="translate(-111.9 -52.77)"/><ellipse class="cls-10" cx="411.02" cy="244.68" rx="47.54" ry="49.91"/><path class="cls-11" d="M546.05,240.54c-54.09-17.49-131-9.56-178.45,15.4a.08.08,0,0,0,0,.15c51.82,4.6,82.46,89.74-3,110.66a.08.08,0,0,0,0,.15C419.86,400.11,518.52,405,572,370.13c.08-.05,0-.18-.08-.15C440.36,415.4,445.09,247.57,546,240.7,546.12,240.69,546.14,240.56,546.05,240.54Z" transform="translate(-111.9 -52.77)"/><path class="cls-12" d="M478.17,253.77S552.85,101.91,708.7,154C708.7,154,582,134.43,478.17,253.77Z" transform="translate(-111.9 -52.77)"/><path class="cls-12" d="M431.42,253.77s-7.74-169,153.9-198.54C585.32,55.23,464.88,99.17,431.42,253.77Z" transform="translate(-111.9 -52.77)"/><path class="cls-4" d="M522.4,439.88c20.83-2.33-1.14,49.94,20.45,64.38A27.1,27.1,0,0,1,554,521.09c26.62,120-129.52,31.58-89.75-81.46A70.76,70.76,0,0,1,501,398.56c13.77-6.33,31.54-10.25,49-1.95" transform="translate(-111.9 -52.77)"/><path class="cls-4" d="M398,394.54c-41.59-.59-131.57-135.27-232.21-55,0,0-19.34,71.27,76.14,100.93,0,0,27.82-42.29,93.4-13.18,0,0,32.12,5.15,40.13-12.12C375.45,415.19,378.77,405.79,398,394.54Z" transform="translate(-111.9 -52.77)"/><path class="cls-13" d="M271.36,321.79s-67,45-82.22,88.32a44.79,44.79,0,0,0-.48,28.08c17.77,57.07-59.17,74.44-72.87-44.09,0,0,25.67-84.55,135.84-84.81,0,0,34.83,2.11,52.43,24.81Z" transform="translate(-111.9 -52.77)"/><path class="cls-9" d="M179.63,398.59s-44.72-11.06-63.84-4.49c0,0,26.72-84.22,135.84-84.81l15.47,7.42S189.76,356,179.63,398.59Z" transform="translate(-111.9 -52.77)"/><line class="cls-14" x1="476.99" y1="836.2" x2="476.99" y2="402.85"/><polygon class="cls-15" points="653.76 346.07 653.76 183.03 480.64 133.78 653.76 346.07"/><path class="cls-13" d="M335.44,471.69c83.89-21,248.82,259.91,159.25,281.78S251.55,492.68,335.44,471.69Z" transform="translate(-111.9 -52.77)"/><path class="cls-9" d="M354.21,578.58l63.46-24.21a11.81,11.81,0,0,1,14.06,4.54l48.93,74.52A11.79,11.79,0,0,1,474.9,651l-66.18,24.5a11.79,11.79,0,0,1-14.13-4.86l-46.21-74.81A11.79,11.79,0,0,1,354.21,578.58Z" transform="translate(-111.9 -52.77)"/><path d="M443.09,689c3.22,0,3.22-5,0-5s-3.22,5,0,5Z" transform="translate(-111.9 -52.77)"/><path d="M476.84,683.07c3.22,0,3.22-5,0-5s-3.22,5,0,5Z" transform="translate(-111.9 -52.77)"/><path d="M480.21,721.88c3.22,0,3.23-5,0-5s-3.22,5,0,5Z" transform="translate(-111.9 -52.77)"/><path d="M447.31,726.1c3.22,0,3.22-5,0-5s-3.22,5,0,5Z" transform="translate(-111.9 -52.77)"/><path d="M498.78,717.66c3.21,0,3.22-5,0-5s-3.23,5,0,5Z" transform="translate(-111.9 -52.77)"/><path d="M350.28,533.72c3.21,0,3.22-5,0-5s-3.23,5,0,5Z" transform="translate(-111.9 -52.77)"/><path d="M381.5,537.1c3.21,0,3.22-5,0-5s-3.23,5,0,5Z" transform="translate(-111.9 -52.77)"/><path d="M342.68,570.85c3.22,0,3.23-5,0-5s-3.22,5,0,5Z" transform="translate(-111.9 -52.77)"/><path d="M412.71,537.1c3.22,0,3.23-5,0-5s-3.22,5,0,5Z" transform="translate(-111.9 -52.77)"/><path d="M348.59,491.53c3.22,0,3.22-5,0-5s-3.22,5,0,5Z" transform="translate(-111.9 -52.77)"/><path d="M373.06,501.66c3.22,0,3.22-5,0-5s-3.22,5,0,5Z" transform="translate(-111.9 -52.77)"/><path d="M333.4,513.47c3.22,0,3.22-5,0-5s-3.22,5,0,5Z" transform="translate(-111.9 -52.77)"/><path d="M164.65,416.44c3.22,0,3.23-5,0-5s-3.22,5,0,5Z" transform="translate(-111.9 -52.77)"/><path d="M177.31,449.35c3.22,0,3.22-5,0-5s-3.22,5,0,5Z" transform="translate(-111.9 -52.77)"/><path d="M159.59,462c3.22,0,3.22-5,0-5s-3.22,5,0,5Z" transform="translate(-111.9 -52.77)"/><path d="M134.28,432.47c3.22,0,3.22-5,0-5s-3.22,5,0,5Z" transform="translate(-111.9 -52.77)"/><path d="M132.59,413.07c3.22,0,3.22-5,0-5s-3.22,5,0,5Z" transform="translate(-111.9 -52.77)"/></g></g></svg>