<svg id="Animated" xmlns="http://www.w3.org/2000/svg" viewBox="0 0 903.72 727.75"><defs><style>.cls-1{fill:#baa399;}.cls-1,.cls-10,.cls-12,.cls-2,.cls-3,.cls-5,.cls-6,.cls-7,.cls-8,.cls-9{stroke:#000;stroke-miterlimit:10;}.cls-1,.cls-12,.cls-6,.cls-7,.cls-9{stroke-width:6px;}.cls-2,.cls-4{fill:#262261;}.cls-10,.cls-2,.cls-3,.cls-5,.cls-8{stroke-width:5px;}.cls-3{fill:#282560;}.cls-12,.cls-5{fill:#2b388f;}.cls-6{fill:#f4f1db;}.cls-7,.cls-8{fill:#1b75bb;}.cls-9{fill:#15203c;}.cls-10{fill:#0d1024;}.cls-11{fill:#f1f1f2;}</style></defs><g id="Final"><g id="IB1"><path class="cls-1" d="M645.08,667.7S511.9,784.72,526.81,913l196.33-63.21Z" transform="translate(-99.28 -275.25)"/><path class="cls-1" d="M1000,1000H469.09l319-332.3S904.19,681.3,1000,740.36V1000" transform="translate(-99.28 -275.25)"/><path class="cls-2" d="M571.27,849.77S446.48,886,468.51,997H691.36" transform="translate(-99.28 -275.25)"/><path class="cls-3" d="M616.84,690.45s-97.33-14.35-200.26-1.1c-108,3.62-240.59-55.09-251.38,57,0,0-29.91,199.33,241,75.64a297.47,297.47,0,0,1,108-26.29c30.9-1.63,70.1-7.77,102.66-25.91" transform="translate(-99.28 -275.25)"/><path class="cls-3" d="M531,1000l83.79-73.31C496.61,775,602.34,693,602.34,693s142.54-47.79,239-9c0,0,138.89,154.61,96.56,303.64,0,0,2.28,8,0,12.34" transform="translate(-99.28 -275.25)"/><path class="cls-4" d="M469.09,1000c32.26-98.26,224.26-100.49,245.89,0" transform="translate(-99.28 -275.25)"/><path d="M469.09,1000C496.83,914.47,644.64,899.35,700,964.21a82.3,82.3,0,0,1,17.47,35.26l-4.89,1.06A77.5,77.5,0,0,0,696.59,967c-53.57-64.32-199.15-50.65-227.5,33Z" transform="translate(-99.28 -275.25)"/><path class="cls-2" d="M804.84,676.32s81.56,1.9,121.85,70.35c0,0,48.95,75.53,73.31,87.73V1000H965.81c-19.18-16.48-60.16-101.67-60.16-101.67-23.07-18-75.87-105.26-75.87-105.26" transform="translate(-99.28 -275.25)"/><path class="cls-5" d="M616.84,685.32c-49.53,38.2,60.5,73.14,89.7,73.14,58.49,0,154.9-40.7,114.2-70.46" transform="translate(-99.28 -275.25)"/><path class="cls-5" d="M608.11,672.23c-74.38,66.78,258.62,83.2,209.12.88" transform="translate(-99.28 -275.25)"/><path class="cls-6" d="M578.91,449c-126.9,60.64-140.62,185.51,9.32,230.1a.37.37,0,0,0,.18,0C693.32,656.76,661.6,454.36,579.09,449A.39.39,0,0,0,578.91,449Z" transform="translate(-99.28 -275.25)"/><path class="cls-6" d="M940.86,512.61c-4.38-18.1-22.18-63.86-92-86h-.1A269.4,269.4,0,0,0,804,430,57.38,57.38,0,0,0,761.92,462c-29.91,62.92-45.72,207.8,72.3,211.15l.15,0c53.54-21.67,104.94-64.27,107.76-147.92A46.89,46.89,0,0,0,940.86,512.61Z" transform="translate(-99.28 -275.25)"/><ellipse class="cls-7" cx="606.12" cy="567.87" rx="69.57" ry="98.54" transform="translate(-162.04 -199.77) rotate(-6.78)"/><ellipse class="cls-8" cx="802.6" cy="549" rx="103.3" ry="83.87" transform="translate(116.24 1048.93) rotate(-87.23)"/><path class="cls-9" d="M747.81,503.08a100.14,100.14,0,0,1,96-76.24l2.95,0a.34.34,0,0,0,.1-.66c-31.44-9.65-73.21-14.55-128.69-10.24-54.59,3-100.95,15-137.88,32.33a.34.34,0,0,0,.12.64c81.31,7.3,112,206.43,9,229.8a.34.34,0,0,0,0,.66c32.79,9.63,73.31,15.48,122.1,16,0,0,61.58,2,121.13-21.48a.34.34,0,0,0-.12-.66C737.39,669.35,730.74,572.49,747.81,503.08Z" transform="translate(-99.28 -275.25)"/><path class="cls-10" d="M737.12,458.48S769.83,317.16,946.6,279.82C946.6,279.82,739,245.86,737.12,458.48Z" transform="translate(-99.28 -275.25)"/><path class="cls-10" d="M654.87,466.56s-42-155.66-132.72-183.43C522.15,283.13,614.06,228.62,654.87,466.56Z" transform="translate(-99.28 -275.25)"/><path d="M624.57,915C663.89,934.8,705,943.2,749,940.9l.09.49c-5.36,1-10.74,2-16.18,2.45a162.53,162.53,0,0,1-80.08-12.53,141,141,0,0,1-28.53-15.95l.3-.4Z" transform="translate(-99.28 -275.25)"/><path d="M737.17,934.66c-21.81,7.69-45.92,7.27-68.3,2.24-3.85-1.12-9.61-2.51-13.27-4.07-1.86-.75-4.65-1.65-6.45-2.51-3.61-1.78-8.95-4.18-12.24-6.46-1.94-1.25-3.87-2.5-5.73-3.84l.22-.45,9.3,4c22,8.67,45.81,12.62,69.43,12.55a183.9,183.9,0,0,0,26.94-2l.1.49Z" transform="translate(-99.28 -275.25)"/><path d="M853,870.79c-20.86,12.08-79.61,47.66-82.38,71.8l-5-.43c3.32-26.13,64.66-59.45,87.36-71.37Z" transform="translate(-99.28 -275.25)"/><path d="M905.65,948.66Q893,945,880.2,942.27a226.7,226.7,0,0,0-50.91-9.76c-25.06-1.7-53,2.51-70.8,21.71a68.28,68.28,0,0,0-13.38,21.34,118.62,118.62,0,0,0-8.8,24.44,96.82,96.82,0,0,1,4.17-26.31c14.9-37.71,51.55-48.87,89.13-46.17,17.71,1.14,35.09,4.89,52,9.91a191.87,191.87,0,0,1,24,11.23Z" transform="translate(-99.28 -275.25)"/><path d="M884.85,925.23c-32.05-2.17-63.72,2-95,8.36-2.14.39-4.29.77-6.49,1.06l-.18-.47,9.14-3.34c21.43-7.33,44.37-11.21,67-10a111.39,111.39,0,0,1,25.64,4l-.15.47Z" transform="translate(-99.28 -275.25)"/><polygon points="761.51 591.12 770.09 578.48 773.71 581.93 761.51 591.12 761.51 591.12"/><path class="cls-11" d="M643.21,860.12c-.88-20-9.6-30.66-20.59-31.77l-44.94-4.56,1.86,42.13c1.87,4,3.62,8,5.38,12l.46.74c2,3.09,4,6.2,5.89,9.37,1,1.61,2.14,3.1,3,4.75.05.09.09.19.14.28l-.3-6.83,31.23,3.17C636.3,890.5,644.07,879.87,643.21,860.12ZM621.28,871l-27.93-2.83-1.1-25,27.42,2.78c5,.51,9,5,9.33,13S626,871.44,621.28,871Z" transform="translate(-99.28 -275.25)"/><path class="cls-11" d="M686.13,853.82l2.94,66.77-13.71-1.39-2.94-66.77-27.56-2.8L644,830.52l68.83,7,.84,19.11Z" transform="translate(-99.28 -275.25)"/><path class="cls-11" d="M781.58,917.22l-2.52-12.87c-7.17,4.47-14.63,7.52-25.18,6.45-14.67-1.62-24.17-12-24.91-28.79s7.48-25.62,22.58-24.09c9.16.93,18.33,5.28,25.91,11.76l2-17.94a51.5,51.5,0,0,0-30-12.81c-15.68-1.59-36.42,6.33-34.87,41.5,1.45,33,20.09,47.07,38.86,49a44,44,0,0,0,18.43-1.62A38.11,38.11,0,0,1,781.58,917.22Z" transform="translate(-99.28 -275.25)"/><path class="cls-12" d="M183,710.47s31.39-55.89,30.69,11.47a30.25,30.25,0,0,1-3.7,14.23C191.42,769.93,149.44,798.66,183,710.47Z" transform="translate(-99.28 -275.25)"/><path class="cls-9" d="M195.1,699.35s-71.86-3.61-88.46-10.86C76.94,719.69,209,804.43,195.1,699.35Z" transform="translate(-99.28 -275.25)"/></g></g></svg>