<?xml version="1.0" encoding="utf-8"?>
<!-- Generator: Adobe Illustrator 26.0.3, SVG Export Plug-In . SVG Version: 6.00 Build 0)  -->
<svg version="1.1" id="Animated" xmlns="http://www.w3.org/2000/svg" xmlns:xlink="http://www.w3.org/1999/xlink" x="0px" y="0px"
	 viewBox="0 0 903.6 727.8" style="enable-background:new 0 0 903.6 727.8;" xml:space="preserve">
<style type="text/css">
	.st0{fill:#BAA399;stroke:#000000;stroke-width:6;stroke-miterlimit:10;}
	.st1{fill:#262261;stroke:#000000;stroke-width:5;stroke-miterlimit:10;}
	.st2{fill:#282560;stroke:#000000;stroke-width:5;stroke-miterlimit:10;}
	.st3{fill:#262261;}
	.st4{fill:#2B388F;stroke:#000000;stroke-width:5;stroke-miterlimit:10;}
	.st5{fill:#F4F1DB;stroke:#000000;stroke-width:6;stroke-miterlimit:10;}
	.st6{fill:#1B75BB;stroke:#000000;stroke-width:6;stroke-miterlimit:10;}
	.st7{fill:#0D1024;stroke:#000000;stroke-width:5;stroke-miterlimit:10;}
	.st8{fill:#1B75BB;stroke:#000000;stroke-width:5;stroke-miterlimit:10;}
	.st9{fill:#15203C;stroke:#000000;stroke-width:6;stroke-miterlimit:10;}
	.st10{fill:#F1F1F2;}
</style>
<g id="Final">
	<g id="_3">
		<path class="st0" d="M545.7,392.5c0,0-133.2,117-118.3,245.3l196.3-63.2L545.7,392.5z"/>
		<path class="st0" d="M900.6,724.8H369.7l319-332.3c0,0,116.1,13.6,211.9,72.7V724.8"/>
		<path class="st1" d="M521.5,425.2c0,0-14.9-13-58.2-18.8c-37.6-4.9-74.3-15.2-108.9-30.7c-70.3-31.8-180.1-77.6-203.6-65
			c-1.3,0.8-2.8,1.2-4.3,1.3C97.3,313.4-8,544.8,231.9,493.8c3.3-0.7,6.7-1.2,10.1-1.5c194.1-16.1,175.4,49.5,257,24.1"/>
		<path class="st1" d="M471.9,574.5c0,0-124.8,36.2-102.8,147.2H592"/>
		<path class="st2" d="M431.6,724.8l83.8-73.3c-118.2-151.7-12.4-233.7-12.4-233.7s142.5-47.8,239-9c0,0,138.9,154.6,96.6,303.6
			c0,0,2.3,8,0,12.3"/>
		<path class="st3" d="M369.7,724.8c32.3-98.3,224.3-100.5,245.9,0"/>
		<path d="M369.7,724.8c27.7-85.5,175.6-100.7,230.9-35.8c8.6,10.2,14.6,22.3,17.5,35.3l-4.9,1.1c-2.5-12.3-8-23.8-16-33.5
			C543.6,627.4,398,641.1,369.7,724.8L369.7,724.8z"/>
		<path class="st1" d="M705.4,401.1c0,0,81.6,1.9,121.8,70.3c0,0,49,75.5,73.3,87.7v165.6h-34.2c-19.2-16.5-60.2-101.7-60.2-101.7
			c-23.1-18-75.9-105.3-75.9-105.3"/>
		<path class="st4" d="M517.4,410.1c-49.5,38.2,60.5,73.1,89.7,73.1c58.5,0,154.9-40.7,114.2-70.5"/>
		<path class="st4" d="M508.7,397c-74.4,66.8,258.6,83.2,209.1,0.9"/>
		<path class="st5" d="M479.5,173.8c-126.9,60.6-140.6,185.5,9.3,230.1c0.1,0,0.1,0,0.2,0c104.9-22.3,73.2-224.7-9.3-230.1
			C479.6,173.7,479.6,173.7,479.5,173.8z"/>
		<path class="st5" d="M841.5,237.4c-4.4-18.1-22.2-63.9-92-86h-0.1c-15-0.1-30,1-44.8,3.4c-18.4,3.2-34.1,15.1-42.1,32
			c-29.9,62.9-45.7,207.8,72.3,211.2h0.2c53.5-21.7,104.9-64.3,107.8-147.9C842.9,245.7,842.5,241.5,841.5,237.4z"/>
		
			<ellipse transform="matrix(0.993 -0.1181 0.1181 0.993 -30.9964 61.8719)" class="st6" cx="506.8" cy="292.6" rx="69.6" ry="98.5"/>
		<path class="st7" d="M554.3,279.6c0,0-114.7-26.6-170.2-6.5c-1.3,0.5-0.7,1.2,0,0c7.7-14.7,14.4-63.5,96.9-99.5
			C481,173.6,536.7,160.6,554.3,279.6z"/>
		
			<ellipse transform="matrix(4.832673e-02 -0.9988 0.9988 4.832673e-02 395.7997 963.0113)" class="st8" cx="703.3" cy="273.8" rx="103.3" ry="83.9"/>
		<path class="st9" d="M554.4,279.6c5.9,54.5-11.9,111.9-64.3,123.8c-0.2,0-0.3,0.2-0.2,0.4c0,0.1,0.1,0.2,0.2,0.2
			c32.8,9.6,73.3,15.5,122.1,16c0,0,61.6,2,121.1-21.5c0.2-0.1,0.3-0.3,0.2-0.4c0-0.1-0.2-0.2-0.3-0.2
			c-95.1-3.9-101.8-100.7-84.7-170.1c10.9-44.3,50.4-75.7,96-76.2h3c0.2,0,0.3-0.2,0.3-0.4c0-0.1-0.1-0.3-0.2-0.3
			c-31.4-9.6-73.2-14.5-128.7-10.2c-54.6,3-101,15-137.9,32.3c-0.2,0.1-0.2,0.3-0.1,0.5c0.1,0.1,0.2,0.2,0.3,0.2
			c38.7,3.5,65.9,50.3,72.7,101C554,276.3,554.2,277.9,554.4,279.6"/>
		<path class="st7" d="M637.7,183.2c0,0,32.7-141.3,209.5-178.7C847.2,4.6,639.6-29.4,637.7,183.2z"/>
		<path class="st7" d="M555.5,191.3c0,0-42-155.7-132.7-183.4C422.8,7.9,514.7-46.6,555.5,191.3z"/>
		<path d="M525.2,639.8c39.3,19.8,80.4,28.2,124.4,25.9l0.1,0.5c-5.4,1-10.7,2-16.2,2.5c-27.3,2.7-54.9-1.7-80.1-12.5
			c-10.1-4.2-19.7-9.5-28.5-16L525.2,639.8L525.2,639.8z"/>
		<path d="M637.8,659.4c-21.8,7.7-45.9,7.3-68.3,2.2c-3.8-1.1-9.6-2.5-13.3-4.1c-1.9-0.8-4.7-1.7-6.5-2.5c-3.6-1.8-9-4.2-12.2-6.5
			c-1.9-1.2-3.9-2.5-5.7-3.8l0.2-0.5l9.3,4c22,8.7,45.8,12.6,69.4,12.5c9,0,18-0.7,26.9-2L637.8,659.4L637.8,659.4z"/>
		<path d="M753.6,595.5c-20.9,12.1-79.6,47.7-82.4,71.8l-5-0.4C669.5,640.8,730.9,607.5,753.6,595.5L753.6,595.5z"/>
		<path d="M806.3,673.4c-8.4-2.4-16.9-4.6-25.5-6.4c-16.5-5.2-33.6-8.5-50.9-9.8c-25.1-1.7-53,2.5-70.8,21.7
			c-5.7,6.2-10.3,13.5-13.4,21.3c-3.8,7.8-6.8,16-8.8,24.4c0.2-8.9,1.6-17.8,4.2-26.3c14.9-37.7,51.5-48.9,89.1-46.2
			c17.7,1.1,35.1,4.9,52,9.9C790.5,665.4,798.5,669.1,806.3,673.4L806.3,673.4z"/>
		<path d="M785.5,650c-32-2.2-63.7,2-95,8.4c-2.1,0.4-4.3,0.8-6.5,1.1l-0.2-0.5l9.1-3.3c21.4-7.3,44.4-11.2,67-10
			c8.7,0.3,17.3,1.7,25.6,4L785.5,650L785.5,650z"/>
		<polygon points="761.4,591.1 770,578.5 773.6,581.9 761.4,591.1 		"/>
		<path class="st4" d="M124.5,328.4c0.8-13.8,60.6-25.7,27,30.5c-19.7,38.7-55.1,48.5-41.7,0L124.5,328.4z"/>
		<path class="st10" d="M543.8,584.9c-0.9-20-9.6-30.7-20.6-31.8l-44.9-4.6l1.9,42.1c1.9,4,3.6,8,5.4,12l0.5,0.7
			c2,3.1,4,6.2,5.9,9.4c1,1.6,2.1,3.1,3,4.8c0,0.1,0.1,0.2,0.1,0.3l-0.3-6.8l31.2,3.2C536.9,615.2,544.7,604.6,543.8,584.9z
			 M521.9,595.8l-27.9-2.8l-1.1-25l27.4,2.8c5,0.5,9,5,9.3,13S526.6,596.2,521.9,595.8z"/>
		<path class="st10" d="M586.7,578.6l2.9,66.8L576,644l-2.9-66.8l-27.6-2.8l-0.9-19.1l68.8,7l0.8,19.1L586.7,578.6z"/>
		<path class="st10" d="M682.2,642l-2.5-12.9c-7.2,4.5-14.6,7.5-25.2,6.5c-14.7-1.6-24.2-12-24.9-28.8s7.5-25.6,22.6-24.1
			c9.2,0.9,18.3,5.3,25.9,11.8l2-17.9c-8.3-7.4-18.9-11.9-30-12.8c-15.7-1.6-36.4,6.3-34.9,41.5c1.5,33,20.1,47.1,38.9,49
			c6.2,0.8,12.5,0.2,18.4-1.6C675,648.4,678.3,644.9,682.2,642z"/>
		<path class="st7" d="M137.2,323.9c-19.1-5.2-62.4-18.3-70.3-33.2c-0.3-0.5-0.9-0.7-1.4-0.5c-0.2,0.1-0.4,0.3-0.5,0.5
			c-14.5,30.8,52.8,125.5,78.6,44.9c1.6-4.9-1.1-10.1-6-11.6C137.5,324,137.3,323.9,137.2,323.9z"/>
		<path class="st7" d="M640.7,273.8c0,0,126.8-35.9,202-23.8c0,0,2.6-66.7-95.3-99C747.5,150.9,644.4,149.7,640.7,273.8z"/>
	</g>
</g>
</svg>
