<?xml version="1.0" encoding="utf-8"?>
<!-- Generator: Adobe Illustrator 26.0.2, SVG Export Plug-In . SVG Version: 6.00 Build 0)  -->
<svg version="1.1" id="Layer_1" xmlns="http://www.w3.org/2000/svg" xmlns:xlink="http://www.w3.org/1999/xlink" x="0px" y="0px"
	 viewBox="0 0 750 970" style="enable-background:new 0 0 750 970;" xml:space="preserve">
<style type="text/css">
	.st0{fill:#010425;stroke:#000000;stroke-width:4;stroke-miterlimit:10;}
	.st1{fill:#15213D;stroke:#000000;stroke-width:4;stroke-miterlimit:10;}
	.st2{fill:#B3B3B3;stroke:#000000;stroke-width:4;stroke-miterlimit:10;}
	.st3{fill:#808080;stroke:#000000;stroke-width:4;stroke-miterlimit:10;}
	.st4{fill:#684C35;stroke:#000000;stroke-width:4;stroke-miterlimit:10;}
	.st5{fill:#F2F2F2;stroke:#000000;stroke-width:4;stroke-miterlimit:10;}
	.st6{fill:#D4A088;stroke:#000000;stroke-width:4;stroke-miterlimit:10;}
	.st7{fill:none;stroke:#000000;stroke-width:2;stroke-miterlimit:10;}
	.st8{fill:none;stroke:#000000;stroke-miterlimit:10;}
</style>
<g id="Knight">
	<path class="st0" d="M399.1,68.1c-13.3-1.4-24.5-49.1,29.8-22.7L468.3,56c-16.2-57,85.2-56,82.2,15.4
		c4.1-55.5,164.4,13.5,99.1,74.7c74.6,7.9,117,190.9,9.5,167c0,0,44.1,66.7-42.1,71.8c0,0-14.2,107.1-76.6,67.1
		c0,0-165-16.7-108.5-93.9L399.1,68.1z"/>
	<path class="st0" d="M682.7,780.7l-71.7-22l-94.7,43.1c-0.2,0.1-0.2,0.3,0,0.4L619.6,852c0,0,54.5-33.5,63.7-70.2
		C683.5,781.3,683.2,780.9,682.7,780.7z"/>
	<path class="st1" d="M654.5,767c0,0,7.3,9.2,6.8,35.1L614.1,846l-88-15.9L516,782.8L654.5,767z"/>
	<polygon class="st0" points="572.4,811.2 518.4,802.6 510.2,775.4 	"/>
	<path class="st2" d="M535.8,791.9c0,0,8.9,18.6,48.1,22.9l45.6-12.7c0,0,23.8-18.2,31.4-30.1l-9.4-33.5L535.8,791.9z"/>
	<path class="st1" d="M386.9,746.4c0,0,20.4,17.3,25.1,38.9l9.2,103c0,0-85.8,74.4-103.4,58l-49.9-79.2l39.6-2.9L243,730.6
		c0,0-24-47.6-7-51.6S386.9,746.4,386.9,746.4z"/>
	<polygon class="st0" points="320.4,733.8 399.1,756.5 393.1,735.2 348.4,693.2 230,663 234,711 	"/>
	<path class="st2" d="M658.4,565c2.7,3.1,8.3,10.6,7.7,16.9l-45.4,24.9l3.8-15.2c0,0,16.1-5.3,31.4-26.4
		C656.5,564.3,657.7,564.2,658.4,565z"/>
	<path class="st2" d="M663.2,540.8c-2-2.3-4.3-4.4-7.3-5.5c-3.6-1.3-8.2-1.1-10.9-4c-1.4-1.5-1.9-3.6-3.1-5.2
		c-1.3-1.9-3.1-3.4-4.5-5.3c-3-4.1-6-8.3-10.5-11.1c-3.6-2.3-9.1-2-11.8-5.4c-1.3-1.6-1.6-3.7-2.6-5.4c-1.5-2.5-4.5-5.7-7.1-7.4
		c-4.3-2.7-9.9-4.1-14.9-5.5c-0.2-0.1-0.4-0.1-0.6-0.2c-2.4-0.7-4.7-1.2-7.1-1.6l-33.9,40.1l75.6,67.2c0,0,40.5-20.4,40.2-49.1
		C664.1,541.9,663.7,541.4,663.2,540.8z"/>
	<path class="st2" d="M357.8,716.6c0,0-19.6,30.1-71.8,33c0,0-58.7,5.4-40.9-70.4C245.1,679.3,331.8,684.8,357.8,716.6z"/>
	<g>
		<polygon points="637.4,551.4 614.6,582.1 611.5,579.5 		"/>
	</g>
	<g>
		<polygon points="620.7,532.6 596.2,566.3 593.1,563.8 		"/>
	</g>
	<g>
		<polygon points="604.7,518 582.9,554.2 579.6,552 		"/>
	</g>
	<path class="st1" d="M369.3,323.9c0,0-86.2-1.9-130.8,59.5c-0.1,0.1-0.1,0.2-0.2,0.4c1.9,3.6,4,7.1,4.5,11.4
		c0.7,6.5-0.9,13.2-3,19.4c-5,14.4-11.4,28.9-18.3,42.8c0,0.1,0,0.2-0.1,0.3c13.1,2.4,27.2,3.6,41.7,2.6l3,1.2l7.6-5.3
		c0,0,28.3-6.8,49.8-22.5C323.4,433.7,416.8,361.5,369.3,323.9z"/>
	<path class="st3" d="M305.6,539.3C282.9,614,164.1,659,241.8,720.8c0,0-10.7-24.1-5.9-33c42.9-4.7,203.5,83.1,264.6,106.1
		c97.7,32,146.3-48,180.3-28.1c0,0,7.7-19.1-13.3-50.5c-9-13.5-16.3-27.9-21.4-43c-6.1-18-12.9-41.7-15.3-63.8
		c-2-19-6.8-37.8-14.8-55.4c-4.6-10-10.3-19.8-17-26.6L305.6,539.3z"/>
	<path class="st2" d="M310.6,519.9l-15.2,14.8c0,0,20.9,63.1,69.2,67c0,0,45.6-7.7,56.7-26.4L310.6,519.9z"/>
	<path class="st2" d="M585.8,498.5l22.7,27c0,0-28.1,72-117.7,82.5c0,0-58.6-8-72.9-27.5L585.8,498.5z"/>
	<path class="st2" d="M367.4,318c0,0-17,3.7-20.8-1.4c0,0,8.8,17.4-5,35.1C341.6,351.7,380.1,353.6,367.4,318z"/>
	<path class="st1" d="M549.2,307l-45.8,48.5c0,0,52.7,89.5,85.1,89.5C588.5,445,650.4,317.9,549.2,307z"/>
	<path class="st1" d="M539.8,306.8c59.5-6.8,117.8,53.2,175,79.4c0,0,29.2,9.4-15.1,97.1l-67.5,3l-29.8-27c0,0,5.1-15.8,10.1-22.9
		c0.7-1,0.1-2.3-1.2-2.5c-8.7-1.2-35-7.4-67.8-39.5C543.5,394.4,515.9,351.6,539.8,306.8z"/>
	<path class="st2" d="M668.4,422c0,0-58-5.1-69.5,39l-13.1,19.6c0,0,1.7,2,4.6,5.4c5,1.4,10.6,2.8,14.9,5.5c2.6,1.7,5.6,4.8,7.1,7.4
		c1,1.7,1.3,3.8,2.6,5.4c2.7,3.3,8.2,3.1,11.8,5.4c4.5,2.9,7.4,7.1,10.5,11.1c1.4,1.8,3.2,3.4,4.5,5.3c1.2,1.7,1.7,3.7,3.1,5.2
		c2.7,2.9,7.3,2.7,10.9,4c3,1.1,5.3,3.2,7.3,5.5c0.4-0.4,0.8-0.9,1.2-1.5c0,0,22-27.8,27.6-29.6C692,509.7,727.8,477,668.4,422z"/>
	<path class="st2" d="M372.2,314.1c0,0-58.3,46.2-71.1,74.6c0,0,1.4,45.1,9.9,61.7l4.2,5.1c0,0-11.9,50.7-6.5,72.1
		c0,0,14.6,73.2,111.5,51.3C454.5,609,597,601,594.3,491.3c0,0-0.1-29.1-6.2-46.2c0,0-68.4-52-56.2-112.1l13.7-28.1L372.2,314.1z"/>
	<polygon class="st4" points="391.6,318.1 389.7,333.1 415.8,345.1 484.2,336.1 500.1,315.7 	"/>
	<path class="st3" d="M421.6,344.6c0,0,31.7,12.4,38.9,20.9c0,0,77.3-12.3,89.3-64.9l-55,8.5C494.8,309.1,502.8,327.3,421.6,344.6z"
		/>
	<path class="st3" d="M415.8,345.1c0,0-21.3-7.5-29-38.3h-21c0,0,2.5,28.2,29.5,48.7C395.2,355.5,407.1,348,415.8,345.1z"/>
	<path class="st4" d="M344.3,196.5c0,0-43,38.4-27.8,75.7c0,0,28.8,54.3,121.8,56.3c0,0,115.5,3.6,114.6-53.2c0,0,20.8-6,24.5-12.4
		c0,0-1.5-17.1,1-26.2c0,0,8.4-21.6-32.8-12.9l49.1-79.5l-89.3-67.8l-122.1,6C383.3,82.5,313.5,124.6,344.3,196.5z"/>
	<g>
		<path d="M546.1,258.7c4.2,4.6,7.6,10.2,8.8,16.4l-4,0.3C551,269.6,549,263.8,546.1,258.7L546.1,258.7z"/>
	</g>
	<g>
		<path d="M419.4,207.2c-11.5,12.2-22.1,32.1-7.1,45.8c0.5,0.4,1.8,1.5,2.2,1.9c0.5,0.4,1.8,1.3,2.4,1.7c1.1,0.7,2.2,1.4,3.3,2
			L420,259c-2.3-0.6-4.6-1.4-6.7-2.5c-15.3-8.4-15.4-25.6-6-38.4c3.2-4.5,7.1-8.3,11.7-11.1L419.4,207.2L419.4,207.2z"/>
	</g>
	<path class="st5" d="M438.1,216.8c10.9-52.8,72-49.8,76.8-24.5C518.3,214,486.3,236,438.1,216.8z"/>
	<path class="st5" d="M409.3,215.7c-2.8-48.7-45.8-50.6-52.2-27.4c-5,20.1,14.9,43.4,51,30.3C408.4,217.6,408.8,216.6,409.3,215.7z"
		/>
	<path class="st2" d="M406.4,200.1c-0.2-0.7-0.5-1.5-0.7-2.2c-1.8,0.6-3.8,0.4-5.6-0.3c-1.9-0.7-3.6-2-5-3.5
		c-0.6-0.7-1.2-1.4-1.5-2.2c-0.1,0-0.1,0-0.2,0c-0.1,1.7-0.2,3.4-0.2,5.2c0,11.2,3,20.7,7.1,23.3c1.7-0.4,3.3-0.9,4.8-1.6
		c0.6-0.3,1.1-0.4,1.7-0.4c0.8-1,1.5-2.3,2.1-3.8C408.2,209.7,408,204.8,406.4,200.1z"/>
	<path class="st5" d="M395.4,182.3c-0.3,0.5-0.5,1.1-0.7,1.7c-0.6,2.2-1,4.6-1.2,7.2c0,0.2,0.1,0.4,0.1,0.5c0.3,0.9,0.9,1.7,1.6,2.3
		c1.4,1.5,3.1,2.8,5,3.5c1.8,0.7,3.8,0.9,5.6,0.3c-0.3-0.9-0.6-1.8-1-2.7C401.9,190.7,398.8,186.4,395.4,182.3z"/>
	<path class="st6" d="M395.2,182.1c-0.2,0.6-0.4,1.2-0.5,1.9c0.2-0.6,0.4-1.1,0.7-1.7C395.3,182.3,395.2,182.2,395.2,182.1z"/>
	<path class="st2" d="M476.1,195.6c-1.2-0.8-2.2-1.9-2.9-3.1c-1.3-2.3-1.2-5-1-7.6c0.1-0.9,0.2-1.9,0.4-2.8c0.1-0.2-0.2-0.4-0.4-0.3
		c-4.4,2.3-7.6,10.1-7.6,19.3c0,11,4.6,20,10.3,20s10.3-9,10.3-20c0-1.1-0.1-2.3-0.2-3.3c0-0.2-0.2-0.3-0.4-0.2
		c-0.8,0.2-1.6,0.3-2.4,0.3C480.1,197.8,477.9,196.9,476.1,195.6z"/>
	<path class="st5" d="M474.9,181c-0.8,0-1.5,0.2-2.2,0.5c-0.3,1.1-0.4,2.3-0.5,3.4c-0.2,2.6-0.2,5.3,1,7.6c0.7,1.2,1.7,2.3,2.9,3.1
		c1.8,1.3,4,2.2,6.2,2.2c0.9,0,1.8-0.2,2.7-0.4C484.2,188,479.9,181,474.9,181z"/>
	<g>
		<path d="M400.1,199.1c-0.4,3,0,6.2,1.1,9.1c0.5,1.2,1.2,2.5,2.3,3.2c0.5,0.3,1.1,0.5,1.7,0.3c0.9-0.3,1-1.4,1.1-2.3
			c0.1-3.3,0.1-6.6-0.7-9.8c0-0.2-0.1-0.3-0.2-0.4c-0.2-0.2-0.5-0.3-0.8-0.3c-1.4-0.2-2.8,0.2-4,0.9"/>
		<g>
			<path d="M398.6,199.1c-0.4,2.7-0.1,5.4,0.7,8c0.7,2.3,1.9,5.1,4.4,6c1.3,0.5,2.8,0,3.5-1.2c0.6-1,0.6-2.2,0.6-3.4
				c0.1-2.8,0-5.6-0.5-8.4c-0.1-0.8-0.3-1.6-0.8-2.1c-0.6-0.6-1.4-0.7-2.2-0.7c-1.5-0.1-3,0.4-4.3,1.1c-1.7,1-0.1,3.6,1.5,2.6
				c0.7-0.4,1.5-0.7,2.4-0.7c0.2,0,0.5,0.1,0.7,0c-0.1,0,0.9-0.4,0.1,0c0.4-0.2-0.6-0.3-0.4-0.5c-0.1,0.1,0.3,1.3,0.3,1.5
				c0.4,2,0.4,4.2,0.4,6.2c0,0.5,0,1,0,1.5c0,0.2,0,0.4,0,0.6c0,0.3,0,0.1,0,0.3c0,0.1-0.1,0.2-0.1,0.3c0,0,0.1-0.2,0,0
				c0,0,0,0.1-0.1,0.1l0.3-0.1h-0.2c-0.1-0.1-0.2-0.1-0.4-0.2c-1.3-0.9-1.9-2.8-2.3-4.2c-0.6-2.2-0.7-4.5-0.4-6.8
				c0.1-0.8-0.8-1.5-1.5-1.5C399.2,197.6,398.7,198.3,398.6,199.1L398.6,199.1z"/>
		</g>
	</g>
	<g>
		<path d="M473.8,193.3c-2,4.4-2.7,9.2-2.5,14c0,1.7,0.3,3.6,1.6,4.7c0.5,0.4,1.2,0.6,1.7,0.3c0.2-0.1,0.3-0.3,0.4-0.4
			c2.4-3.1,3.6-7.1,3.3-11c-0.1-1-0.2-2.1-1-2.8c-0.4-0.4-0.9-0.6-1.3-0.9c-0.8-0.5-1.4-1.3-1.7-2.2"/>
		<g>
			<path d="M472.5,192.5c-1.4,3.1-2.2,6.3-2.6,9.6c-0.3,2.8-0.6,6.3,0.5,8.9c0.5,1.3,1.6,2.5,3,2.8c1.8,0.4,2.8-1.1,3.7-2.4
				c1.6-2.6,2.5-5.6,2.7-8.7c0.1-1.6,0.1-3.5-0.8-4.9c-0.8-1.4-2.7-1.7-3.3-3.3c-0.7-1.8-3.6-1-2.9,0.8c0.6,1.6,1.5,2.6,2.9,3.5
				c1.2,0.8,1.1,2.3,1,3.6c-0.1,1.4-0.3,2.9-0.8,4.2c-0.3,0.8-0.6,1.5-1,2.3c-0.1,0.3-0.3,0.6-0.5,0.8c-0.2,0.3-0.6,0.7-0.7,1.1
				c-0.2,0.2-0.2,0.3,0.1,0.1c-0.1,0-0.2-0.1-0.2-0.2c-0.1-0.2-0.3-0.3-0.4-0.5c-0.3-0.6-0.4-1.2-0.5-1.8c-0.2-1.5-0.1-3,0-4.5
				c0.2-3.4,0.9-6.8,2.3-9.8c0.3-0.7,0.2-1.6-0.5-2.1C473.9,191.6,472.8,191.8,472.5,192.5L472.5,192.5z"/>
		</g>
	</g>
	<path class="st1" d="M449.6,158.7c-4-2.4,21.3-30.2,46-28.7c8.8,0.5,15.7,7.6,14.8,16.1c-0.6,6.1-5.2,11.5-21.3,8.6
		C479.2,153.1,459.4,166,449.6,158.7z"/>
	<path class="st1" d="M405.5,169.3c3.2-1.7-14.8-24.4-34.1-24.5c-6.8,0-12.6,5.1-12.4,11.6c0.1,4.7,3.4,9.2,16,7.8
		C382.8,163.5,397.5,174.5,405.5,169.3z"/>
	<path class="st5" d="M368.9,261.7c7.9,1.8,35.9,8,43.7,8.7c0.4,0,0.7,0.1,1,0.3c8.3,5,78.3-36.1,83.5-17.9c0,0.2,0.1,0.3,0.1,0.5
		c0.3,4,2.9,52.3-68.7,51.5c0,0-53.1-0.3-61.3-41.5C367,262.3,367.9,261.5,368.9,261.7z"/>
	<path class="st7" d="M392.3,266.8c0,0,27.6,26.2,21,36.2"/>
	<path class="st7" d="M418.9,270.8c0,0,20.3,20.2,15.4,34.2"/>
	<path class="st3" d="M106.5,403.8C92.8,414,176,839,183.6,861c6.7,33.9-41.4,71.5-41.4,71.5c-29.5,21.5-85.9,16.1-85.9,16.1
		C-8.4,919.2,20.2,879,20.2,879c40.2-38,97.8-4.2,111.8-34.1C147.4,820.8,79.5,418,79.5,418s-14.7-27.1,16.6-33l28.3,17.3
		L106.5,403.8z"/>
	<path class="st7" d="M448.8,259.9c0,0,28.5,11.4,28.8,33.3"/>
	<path class="st1" d="M605.1,155.2c11.6-14.2-9.6-20.6-13.9-31.1c6.6-12.9-23.2-39.7-23.2-39.7c-1.1-23.6-39.1-21.3-39.1-21.3
		c-44.3-25.9-60.6-14-60.6-14l-44.1-8.9C402.5,44.4,389,64.1,389,64.1C368.3,70,358,52,337.3,95.9l1.1,3.5
		c-20.7,21.4-12.5,53.4-12.5,53.4c-14.6,8.8-2,22.2-2,22.2c-6.2,15,9.5,24.7,9.5,24.7c-1,2.2-1.5,4-1.8,5.4c-0.2,1,1.1,1.7,1.8,0.9
		c3.7-4.2,10.9-9.4,10.9-9.4c-14.7-37.5-7-41.5-4.9-58.5s22.4-27.5,22.4-27.5c11,5.5,25.8-1.9,25.8-1.9c7.8-9.4,14.1-3.9,14.1-3.9
		c2.3-7.3,16.4-2.7,16.4-2.7c-17.6,27,12.8,36.5,12.8,36.5c-15.1-26.5,7.3-38.5,7.3-38.5l17.7-5.3c10.9,8.7,29.9,2.5,29.9,2.5
		c63.5,14.2,69.3,78.8,69.3,78.8C518,203.9,536,244.5,536,244.5c-1.9-12.5,18.9-28.6,18.9-28.6c0,1.7,0,3.5,0,5.2
		c5.3-1.3,10.9-1.3,15.9,0.8c8.2,3.4,7.9,9.8,7.2,17.3c-0.5,5.6-0.7,11.4-0.7,17c0,3.8,0,7.2-2.8,10.1c-2.6,2.6-6.2,3.8-9.6,5.1
		c-4.1,1.6-8.3,2.9-12.5,4.1c0.2,1.3,0.4,2.7,0.5,4c0.5,8.1-4.3,14.3-8.3,20.9c43.1-3.3,46.2-42.5,46.2-42.5
		c21.7-15.1,1.6-45.5,1.6-45.5c12-11.5,14.9-28.5,14.9-28.5C615.4,164.4,605.1,155.2,605.1,155.2z"/>
	<g>
		<path d="M566.9,238.5c-4.8-1.9-11.2-5.1-15.9-2l1.2-2.2v1.4c-0.2,8.9,0.3,17.9,4,26.2l-0.2,0.2c-5.9-7.3-7.2-17.3-6.7-26.4
			c0,0.1,0-1.4,0-1.4v-0.1l0.1-0.1c5.9-3.6,12.9,0.4,17.7,4.1L566.9,238.5L566.9,238.5z"/>
	</g>
	<g>
		<path d="M553.5,255.4c2.7-2,6.1-2.7,9.4-1.9c3.1,0.7,5.3,3.8,3.8,6.9c-0.4,0.8-0.9,1.5-1.5,2l-0.2-0.1c2.6-6-1.9-7.6-7.1-7.3
			c-1.5,0.1-3,0.3-4.5,0.6L553.5,255.4L553.5,255.4z"/>
	</g>
	<g>
		<path d="M416.8,480c-0.2,2.5-1.3,4.8-2.2,7c-1.7,3.9-4.4,9.5-6.3,13.4c-1,2.2-2.2,4.5-2.9,6.7c-0.9,2.7,0.9,5.2,2.3,7.5
			c5,4.9,9.9,13,11.6,20.6c0.6,3,1.1,6.1,0.9,9.2c-0.6,5-4.1,9.2-5,13.9c-0.9,6.5,2.3,14.1,6.8,19.4l-3.2,2.5
			c-4.8-6.2-8.1-14.4-6.7-22.3c1.3-5.8,6.2-10.3,5.7-16.4c-0.3-9.6-4.6-18.8-11.1-25.9c-4.4-6.9-2.2-8.9,1-15.4
			c2-3.8,4.9-9.3,6.7-13.2C415.3,484.7,416.6,482.5,416.8,480L416.8,480z"/>
	</g>
	<g>
		<path d="M425.1,348.2c3.2,8.8-5.3,16.9-10.3,23.2c-5.4,6.7-12,12.3-16.6,19.5c-3.6,5.9-6.3,12.8-6,19.8c0.1,2,0.9,3.7,1.9,5.4
			c3.4,7.1,6.7,14.4,9.7,21.6c4.4,10.6,8.6,21.2,12,32.2l-0.4,0.2c-5.8-10-10.8-20.3-15.6-30.7c-2.3-5.2-4.4-10.6-6.5-15.9l-1.6-4
			c-0.7-2-1.7-3.7-2.2-5.8c-0.9-5.5,1.4-10.8,3.5-15.7c4.8-10.5,11.2-20.3,18.9-28.9c4.9-6,13.4-12.3,12.6-20.8
			C424.7,348.3,425.1,348.2,425.1,348.2L425.1,348.2z"/>
	</g>
	<g>
		<path d="M421.4,377.3c-9.6,10.5-20.2,27-8,39.4c0.4,0.4,0.9,0.9,1.4,1.1l0,0c0,0-0.1,0-0.2,0c-0.1,0-0.2,0.1-0.3,0.1
			c-0.2,0.2,0.1-0.1,0.1-0.6c0.2-1.4-0.3-3.4-1.1-4.5c-1.1-1.6-2.3-0.3-3.6,0.9l0.6-0.9c-1.1,6.1,0.7,12.3,2.8,18
			c2.2,5.9,5.7,11.9,9.2,17.2l0.2,0.3c0.7,1.9,1.7,3.9,2.8,5.1l0.4,0.4c0.1,0.1,0.2,0.1,0.3,0.2c0.2,0.1,0.3,0.1,0.1,0.1
			c-0.1,0-0.3,0.1-0.2,0.1c0.4-0.5,0.5-1.4,0.4-2.1c-0.3-2.3-2.6-3.3-4.7-3.5l1.4-0.3c-1,0.5-1.4,1-1.6,2.1c-0.5,4.5,1.5,9.3,2.5,14
			c1.2,5.1,2.2,10.5,2,15.8c-0.2,3.7-0.6,7.6-2.9,10.7c-2.7,3.6-4.6,8.8-3.6,13.3c0.1,0.3,0.2,0.6,0.3,0.7c0,0.1,0,0,0,0s-0.1,0,0,0
			c1.7-1.4,2.3-4,3.1-6.1c1-3.2,1.7-6.6,2.3-10h0.3c-0.7,5.1-1.4,10.3-3.5,15c-0.5,1-1.7,3-3,1.9c-1.4-1.7-1.2-4.2-1.1-6.3
			c0.4-3.4,1.7-6.8,3.7-9.6c2.8-4.3,2.5-9.9,2-14.9c-0.4-3.4-1.2-6.7-2.1-10c-1.1-5.2-6.3-16.3,0.4-19.4c14.2,1.6,5,21.9-2,4
			c-3.4-5.2-7.2-11.8-9.3-17.8c-2.3-6.3-4.1-13.2-2.6-19.9c1.5-1.5,3.8-3.2,6-2c2.7,1.2,4.5,8.8,1.3,10.1c-3,0.4-6.8-6.6-7.9-9.1
			c-2.7-6.8-0.3-14.4,3.3-20.5c2.9-4.9,6.5-9.4,10.7-13.3L421.4,377.3L421.4,377.3z"/>
	</g>
	<g>
		<path d="M315.9,453.6c11.8,4.4,23.7,8.4,35.7,12c12.1,3.4,24.3,7,36.8,7.8c-6.3,0.1-12.6-0.9-18.8-1.9
			c-12.4-2.2-24.7-5.3-36.9-8.7c-6.1-1.7-12.1-3.5-18.2-5.4L315.9,453.6L315.9,453.6z"/>
	</g>
	<g>
		<path d="M444.9,474.2c10.4,0.3,20.8,0.5,31.1,0.1c5.2-0.1,10.4-0.4,15.5-0.9c5.1-0.7,10.4-1.2,15-3.5l0.2,0.3
			c-9.9,8.7-33.6,8.9-46.3,7.5c-5.2-0.6-10.4-1.4-15.6-3.1L444.9,474.2L444.9,474.2z"/>
	</g>
	<path class="st8" d="M430.3,579.5c40,24,145.8,1,151.6-59.1c0.5-5.2,0.3-10.5-3-14.4c-3.3-3.8-9.8,6.3-3.1,20.5"/>
	<path class="st8" d="M394.3,576.4c-32.5,8.4-96.8-30.5-85.7-74.1c1-3.8,2.4-7.5,5.6-9.5c3.1-2,4.9,6.5-3.1,15.1"/>
	<g>
		<path d="M610.5,435c8.6-15.4,17.7-32.9,35.8-38.6c4.3-1.5,8.8-2.3,13.2-2.7c13.2-1.4,27.2-0.8,39.4,5c5.2,6.8,11.9,14.6,9.9,23.9
			c1.6-9.2-5.1-16.7-10.5-23.3c-11.3-5-25.9-5.5-38.6-3.7c-8.5,1-17.1,3.9-23.8,9.3c-10.3,8.3-15.7,20.5-21.9,32.1
			C614,437,610.5,435,610.5,435L610.5,435z"/>
	</g>
	<path class="st2" d="M235,376l-28.2-5.9l0,0c-11.7-3.2-24-5.6-34.3-8.3c0,0-30.8-19.7-103.2,0c0,0-34,14.1-30.2,28.4l-6.7,28.1
		c0,0-0.1,31.6,2.1,39c0,0,6.4,7,11.2-5.9l1.4,14.4c0,0,26.7,5.1,27.5-35.8c0,0,10.9-24.9,10.8-32.9l10.9-3.7c0,0,14.5,12.9,14.8,18
		c0,0-3.7,31.2,6.4,34.6c0,0,23.3,10,27.9-40.4c0,0,9.4-7.4,14.2-18.8c-2.2,5.4-6.4,13-14,19.4c0,0-1.2,14.2-3.7,19.7
		c0,0,22.8,26.6,76.8,35.7l27.2-40.9C245.9,420.7,249.6,396.3,235,376z"/>
	<g>
		<path d="M259.7,404.1c-2.9-0.8-4.9-3.1-7.1-5c-4.2-3.9-8.2-8.1-12.1-12.3l-2.9-3.2c-0.2-0.2-0.3-0.6-0.2-0.9
			c0.1-0.6,1.1-0.9,1.5-1.1l1.9-1c0.3-0.2,1.1-0.6,1.4-0.7c0.2-0.1,0.2-0.2,0.6-0.3c0.3-0.1,0.6,0,0.8,0.2c0.9,0.6,3.9,2.7,4.9,3.4
			c4.7,3.3,9.4,6.7,13.9,10.3c2.2,1.9,4.5,3.6,6.3,6l-0.3,0.2c-0.3-0.2-0.6-0.4-0.8-0.7c-2-1.4-4.3-2.7-6.4-3.9
			c-6.5-3.8-12.9-7.7-19.2-11.8l-0.4-0.3c0,0-0.1-0.1,0,0s0.2,0.1,0.3,0.2c0.8,0.4,1.9,0.4,2.7,0c-0.2,0.1-0.6,0.3-0.8,0.4
			c-1.1,0.6-2.8,1.4-3.9,2c0.2-0.1,0.6-0.4,0.8-0.6c1-1,1-2.8,0.1-3.8c5.9,6.7,11.7,14.6,17.6,21.3c0.5,0.5,1,1,1.6,1.3L259.7,404.1
			L259.7,404.1z"/>
	</g>
	<g>
		<path d="M53.5,390l0.2,4.9l-5.7,26c0.1-1-0.3,30.8-0.3,30.6l-4-0.2l2.3-30.7c0-0.1,0-0.2,0-0.2s7.4-25.7,7.4-25.5
			C53.4,394.9,53.5,390,53.5,390L53.5,390z"/>
	</g>
	<path class="st1" d="M152.9,400.3c2.6,4,12.5,19.5,12.9,23.8c0,0-13.6,12.2-27.6,11c0,0,6.3-8.8,7.5-29c0,0,4.4-3.4,6.1-5.9
		C152,399.9,152.6,399.9,152.9,400.3z"/>
	<g>
		<path d="M165.5,850.3c4.9,7.7,1.6,17.5-3.5,24.3c-10.6,13.7-25.8,22.4-41.2,29.5c-24.4,10.6-61.9,20.1-87.2,8.7
			c-13.3-6.2-18.5-18.6-15.6-32.7h0.4c-1,8.1,0.4,17,6.1,23.2c20.6,21.2,70.7,7.5,94.7-2.7c16.4-7.1,41.3-20.1,47-38.1
			c1.1-4,0.7-8.3-1.1-12L165.5,850.3L165.5,850.3z"/>
	</g>
	<g>
		<path d="M297.8,589.1c-29.5,22.9-98.6,85-62.3,123.7c2.3,2.4,4.9,4.6,7.6,6.5l-2.4,3.2c-2.8-2.2-5.5-4.6-8-7.2
			C195.5,673.5,265.9,612.7,297.8,589.1L297.8,589.1z"/>
	</g>
	<g>
		<path d="M411.4,666.4c-6,26.9-21.7,51.7-44,68l-2.3-3.3C387.8,716.2,404.3,692.5,411.4,666.4L411.4,666.4z"/>
	</g>
	<g>
		<path d="M448,679.3c16.6,26.5,51.5,83.8,51.3,114.1l-4-0.2C496.2,763.7,463.5,705.9,448,679.3L448,679.3z"/>
	</g>
	<path class="st2" d="M233.6,723.9c0,0,143.1,25.2,179.3,50.1c0,0,16.8,7.5,8.7,89.2c0,0-5.9,32.9-132.3,3.3
		C289.4,866.6,234.1,773.8,233.6,723.9z"/>
	<path class="st2" d="M330.7,950.9c0,0-4.9-65.4-52.8-86.6C184.6,856,158.7,940,184,946.8L330.7,950.9z"/>
	<path class="st3" d="M335.4,950.6c-0.3,0.1-0.7-0.1-0.7-0.4c-0.2-6.5-3.6-59.4-52-85.9c0,0,54.2,39.3,142.2-1
		c0,0,6.7,35.9,5.2,40.8C430.1,904.1,362.8,939.1,335.4,950.6z"/>
	<path class="st2" d="M516.8,802.5c10.6,4.9,110.4,48.9,165.8-20.3c0.3-0.4,1-0.2,1,0.3c0.4,10.2,2.1,68.9-12.2,97.3l-125.3,22.4
		l-18.5-22.5L516,803.1C516,802.7,516.4,802.4,516.8,802.5z"/>
	<polygon class="st3" points="529.3,881.3 520.4,916.8 523.2,948.7 567.3,893.7 	"/>
	<path class="st2" d="M522.8,953.7l3.1,4.3h195.5l7.5-21.4c0,0-4.7-38-23.4-52.3c0,0-14.7-11.4-54-9.9l-81,8.3
		C570.6,882.8,534.8,896.5,522.8,953.7z"/>
</g>
</svg>
