<?xml version="1.0" encoding="utf-8"?>
<!-- Generator: Adobe Illustrator 26.0.2, SVG Export Plug-In . SVG Version: 6.00 Build 0)  -->
<svg version="1.1" id="Layer_1" xmlns="http://www.w3.org/2000/svg" xmlns:xlink="http://www.w3.org/1999/xlink" x="0px" y="0px"
	 viewBox="0 0 650 610" style="enable-background:new 0 0 650 610;" xml:space="preserve">
<style type="text/css">
	.st0{fill:#B77374;stroke:#000000;stroke-width:4;stroke-miterlimit:10;}
	.st1{fill:none;stroke:#000000;stroke-width:4;stroke-miterlimit:10;}
	.st2{fill:#15213D;stroke:#000000;stroke-width:4;stroke-miterlimit:10;}
	.st3{fill:#4D4D4D;stroke:#000000;stroke-width:4;stroke-miterlimit:10;}
	.st4{fill:#808080;stroke:#000000;stroke-width:4;stroke-miterlimit:10;}
	.st5{fill:#2D2C4C;stroke:#000000;stroke-width:4;stroke-miterlimit:10;}
	.st6{fill:#010425;}
	.st7{fill:#15213D;}
	.st8{fill:#F3F2DB;}
	.st9{fill:#223760;stroke:#000000;stroke-width:4;stroke-miterlimit:10;}
</style>
<g id="Lineart">
	<path class="st0" d="M219,37c0,0-89.3,21.4-100.6,40.5l105.7-14.3L219,37z"/>
	<path class="st1" d="M500,569c0,0-23.7-75.6-23-169.5"/>
	<path class="st2" d="M233.3,553.5c0,0-62.2-12.6-55.5,32.2H252C252,585.7,259.2,564.5,233.3,553.5z"/>
	<path class="st2" d="M518.3,561.8c0,0-62.2-12.6-55.5,32.2H537C537,594,544.2,572.8,518.3,561.8z"/>
	<path class="st1" d="M252,574c0,0-20.2-105.9,42.2-162.2"/>
	<g>
		<g>
			<path d="M158.5,320.3c-9.6,4.5-20.7,4.7-30.9,2.3c-10.3-2.5-19.6-7.7-28.1-13.9c-15.8-11.5-30-26.1-39.4-43.3
				c-5.2-9.4-8.8-19.7-10.3-30.4c-0.3-1.9-3.2-1.1-2.9,0.8c2.8,19.9,13,38,26.2,52.9c6.8,7.6,14.4,14.6,22.5,20.7
				c8.7,6.6,18.2,12.3,28.7,15.3c11.7,3.4,24.5,3.3,35.7-1.9C161.7,322.1,160.2,319.5,158.5,320.3L158.5,320.3z"/>
		</g>
	</g>
	<path class="st2" d="M579.4,312.5c0,0-155.1,4.6-214.2,3.6s-185.6,9.3-185.6,9.3c-6.6,0-14.1,3.9-16.7,8.6L67,493.5
		c-2.6,4.7,0.7,8.6,7.3,8.6c0,0,107.7,17.1,202.8,20.8s220.7-5,220.7-5c6.6,0,14.1-3.9,16.7-8.6L586.8,321
		C589.3,316.4,586,312.5,579.4,312.5z M194.9,373c-17.5,0-17.5-27.1,0-27.1C212.4,345.8,212.3,373,194.9,373z M246,379.2
		c-17.5,0-17.5-27.1,0-27.1C263.5,352,263.5,379.2,246,379.2z M295,383.1c-17.5,0-17.5-27.1,0-27.1S312.5,383.1,295,383.1z
		 M352.4,383.1c-17.5,0-17.5-27.1,0-27.1S369.8,383.1,352.4,383.1z M409.2,379.7c-17.5,0-17.5-27.1,0-27.1
		C426.7,352.6,426.6,379.7,409.2,379.7z M457.5,374.7c-17.5,0-17.5-27.1,0-27.1C475,347.5,475,374.7,457.5,374.7z"/>
	<ellipse class="st3" cx="156.5" cy="316.5" rx="10.5" ry="26.5"/>
	<path class="st2" d="M581.4,324c-192.6,23.2-193,19.5-214.4,20c-59.4,1.3-183.6-13-183.6-13c-6.6,0-13.2-5.4-14.8-12L108.3,97
		c-1.5-6.6,2.6-12,9.2-12c0,0,111.5-23.8,207.4-29c95.9-5.2,219.6,7,219.6,7c6.6,0,13.2,5.4,14.8,12l31.3,237
		C592.2,318.6,588,324,581.4,324z"/>
	<ellipse class="st4" cx="163.5" cy="316.5" rx="10.5" ry="26.5"/>
	<path class="st5" d="M573.4,304.5c0,0-155.1,4.6-214.2,3.6s-185.6,9.3-185.6,9.3c-6.6,0-14.1,3.9-16.7,8.6L61,485.5
		c-2.6,4.7,0.7,8.6,7.3,8.6c0,0,107.7,17.1,202.8,20.8s220.7-5,220.7-5c6.6,0,14.1-3.9,16.7-8.6L580.8,313
		C583.3,308.4,580,304.5,573.4,304.5z"/>
	<path class="st6" d="M501.6,334.9c0,0-110,10.9-160.6,10.1c-50.6-0.8-154.8-9.3-154.8-9.3c-5.6,0-12.1,3.3-14.2,7.2L92.6,473.8
		c-2.2,4,0.6,7.2,6.3,7.2c0,0,92.2,14.4,173.5,17.5s150.7-4.2,150.7-4.2c5.6,0,12.1-3.3,14.2-7.2L508,342.2
		C510.1,338.2,507.2,334.9,501.6,334.9z M194.9,373c-17.5,0-17.5-27.1,0-27.1C212.4,345.8,212.3,373,194.9,373z M246,379.2
		c-17.5,0-17.5-27.1,0-27.1C263.5,352,263.5,379.2,246,379.2z M295,383.1c-17.5,0-17.5-27.1,0-27.1S312.5,383.1,295,383.1z
		 M352.4,383.1c-17.5,0-17.5-27.1,0-27.1S369.8,383.1,352.4,383.1z M409.2,379.7c-17.5,0-17.5-27.1,0-27.1
		C426.7,352.6,426.6,379.7,409.2,379.7z M457.5,374.7c-17.5,0-17.5-27.1,0-27.1C475,347.5,475,374.7,457.5,374.7z"/>
	<path class="st5" d="M572.4,315c-192.6,23.2-193,19.5-214.4,20c-59.4,1.3-183.6-13-183.6-13c-6.6,0-13.2-5.4-14.8-12L99.3,88
		c-1.5-6.6,2.6-12,9.2-12c0,0,111.5-23.8,207.4-29c95.9-5.2,219.6,7,219.6,7c6.6,0,13.2,5.4,14.8,12l31.3,237
		C583.2,309.6,579,315,572.4,315z"/>
	<ellipse class="st3" cx="580.5" cy="312.5" rx="10.5" ry="26.5"/>
	<path class="st6" d="M298.2,31.9c7.7,5.8-6.6,14.6-31.9,19.6s-55.4,5.2-59.7-3.3c-9.6-19.2,6.6-12.6,31.9-17.6
		C263.8,25.5,290.6,26.1,298.2,31.9z"/>
	<ellipse transform="matrix(0.9919 -0.127 0.127 0.9919 -2.1796 32.1859)" class="st7" cx="251.3" cy="33.2" rx="48.2" ry="12.6"/>
	<path class="st6" d="M532.8,295c0,0-132.6,15.7-183.4,16.8s-157-10.9-157-10.9c-5.6,0-11.3-4.5-12.6-10.1l-51.6-186.3
		c-1.3-5.5,2.2-10.1,7.9-10.1c0,0,95.4-20,177.4-24.3S501.3,76,501.3,76c5.6,0,11.3,4.5,12.6,10.1L540.7,285
		C542,290.4,538.5,295,532.8,295z"/>
	<ellipse class="st4" cx="587.5" cy="312.5" rx="10.5" ry="26.5"/>
	<g>
		<path class="st7" d="M51.1,240c-5.2-1.4-8.3-7.5-10-13.3c-5.7-18.9-9.6-40.9,5.3-57.8c-0.9,14.6,11.2,51.1,13.1,56.6"/>
		<g>
			<path d="M51.5,238.6c-4.4-1.3-6.8-6.1-8.3-10.1c-1.7-4.6-2.9-9.5-3.9-14.3c-2-9.5-2.8-19.7-0.1-29.1c1.6-5.5,4.4-10.6,8.2-15
				c-0.9-0.4-1.7-0.7-2.6-1.1c-0.2,3.6,0.3,7.3,0.8,10.9c0.7,4.5,1.7,9,2.7,13.4c2,8.5,4.5,16.8,7.1,25.1c0.8,2.6,1.6,5.1,2.5,7.6
				c0.6,1.8,3.5,1,2.9-0.8c-2-5.8-3.8-11.6-5.5-17.5c-2.6-8.8-4.9-17.6-6.5-26.6c-0.7-4-1.3-8.1-1.1-12.2c0.1-1.3-1.7-2-2.6-1.1
				c-7.3,8.4-10.8,18.9-10.8,29.9c0,5.3,0.6,10.6,1.7,15.8c1,5.1,2.3,10.3,4,15.3c1.8,5.2,4.8,10.9,10.5,12.5
				C52.6,242,53.4,239.1,51.5,238.6L51.5,238.6z"/>
		</g>
	</g>
	<g>
		<path class="st7" d="M613.7,425.8l-10.2,5.4c0.4-1,0.8-2,1.2-3l-18.6,12.2l-29,15.3c7.9,1.5,15.8,3,23.9,2.7
			c8-0.3,16.2-2.5,22.4-7.5C610.7,444.9,614.7,435.2,613.7,425.8z"/>
		<g>
			<path d="M613,424.5c-3.4,1.8-6.8,3.6-10.2,5.4c0.7,0.6,1.5,1.1,2.2,1.7c0.4-1,0.8-2,1.2-3c0.4-1.2-1.1-2.4-2.2-1.7
				c-2.9,1.9-5.8,3.8-8.8,5.8c-3.2,2.1-6.4,4.4-9.7,6.4c-2.1,1.3-4.4,2.3-6.5,3.4c-4.5,2.4-9.1,4.8-13.6,7.2c-3,1.6-6,3.2-9,4.7
				c-1.1,0.6-0.9,2.5,0.4,2.7c11.1,2.1,22.7,4.1,33.9,1.4c9.5-2.3,17.9-8.2,22-17.3c2.2-4.8,3.2-10.1,2.6-15.4c-0.2-1.9-3.2-1.9-3,0
				c0.9,8.6-2.5,17.4-9,23.2c-7.3,6.4-17.5,8.2-26.9,7.8c-6.3-0.3-12.6-1.4-18.8-2.6c0.1,0.9,0.2,1.8,0.4,2.7c7-3.7,14-7.4,21-11.1
				c2.6-1.4,5.4-2.7,8-4.2c2.8-1.6,5.4-3.5,8.1-5.3c3.5-2.3,7-4.6,10.5-6.9c-0.7-0.6-1.5-1.1-2.2-1.7c-0.4,1-0.7,2-1.2,3
				c-0.5,1.3,1.2,2.2,2.2,1.7c3.4-1.8,6.8-3.6,10.2-5.4C616.2,426.2,614.7,423.6,613,424.5z"/>
		</g>
	</g>
	<g>
		<path class="st7" d="M602,435.5c-6.9,8-16.6,10.9-25.6,8.8c-9-2-17.1-8.7-23.4-17.5c14.9,4.3,30.6,3.8,45.3-1.6"/>
		<g>
			<path d="M600.9,434.5c-4.7,5.4-11.3,8.9-18.6,9c-7.1,0.1-13.8-3.1-19.1-7.6c-3.4-2.8-6.4-6.2-8.9-9.8c-0.6,0.7-1.1,1.5-1.7,2.2
				c15.1,4.3,31.3,3.8,46.1-1.6c1.8-0.6,1-3.5-0.8-2.9c-14.3,5.2-29.8,5.8-44.5,1.6c-1.2-0.3-2.5,1.1-1.7,2.2
				c4.8,6.7,10.9,12.8,18.4,16.2c7,3.1,14.8,3.7,22,0.7c4.2-1.7,7.9-4.5,10.9-7.9C604.3,435.1,602.2,433,600.9,434.5L600.9,434.5z"
				/>
		</g>
	</g>
	<g>
		<path class="st7" d="M611.1,416.4c0.7-4-1.5-7.9-4.2-10.9c-6.8-7.7-16.9-12-26.9-11.5c7,6.5,12.6,14.6,16.3,23.5"/>
		<g>
			<path d="M612.5,416.8c1.2-7.8-5.6-14.5-11.6-18.4c-6.2-4.1-13.6-6.2-21-5.8c-1.2,0.1-2,1.6-1.1,2.6c6.9,6.5,12.4,14.5,16.1,23.2
				c0.3,0.8,1.4,0.9,2.1,0.5c0.8-0.4,0.9-1.3,0.5-2.1c-3.8-9-9.5-17.1-16.5-23.8c-0.4,0.9-0.7,1.7-1.1,2.6
				c6.5-0.3,12.9,1.4,18.5,4.8c2.8,1.7,5.3,3.8,7.4,6.2c2.2,2.5,4.3,5.9,3.8,9.4C609.4,417.9,612.3,418.7,612.5,416.8L612.5,416.8z"
				/>
		</g>
	</g>
	<g>
		<path class="st7" d="M57.6,245.4c8.7-1.2,17.7-2.5,25.2-5.9c7.6-3.4,13.6-9.4,13.1-15.9c-9.2,3.9-20.1,5.7-30.7,4.9"/>
		<g>
			<path d="M57.6,246.9c9.1-1.2,18.4-2.4,26.7-6.4c6.4-3.1,13.5-9,13.1-16.8c-0.1-1.2-1.2-1.7-2.3-1.3c-9.4,4-19.8,5.4-30,4.7
				c-1.9-0.1-1.9,2.9,0,3c10.7,0.8,21.6-0.9,31.5-5.1c-0.8-0.4-1.5-0.9-2.3-1.3c0.4,7-6.7,12-12.4,14.6c-7.6,3.4-16.2,4.5-24.5,5.6
				c-0.8,0.1-1.5,0.6-1.5,1.5C56.1,246.1,56.8,247,57.6,246.9L57.6,246.9z"/>
		</g>
	</g>
	<g>
		<path class="st7" d="M49.4,240.5c-10.4,2.4-21.8-2.9-27.8-12.9c-3.8-6.3-5.4-14-6.8-21.4c-1.9-9.9-3.8-20.1-2.7-30.2
			c12.3,24.6,30.1,45.5,51.3,60.3"/>
		<g>
			<path d="M49,239.1c-9.2,2-18.8-2.3-24.4-9.7c-3.3-4.3-5.1-9.5-6.5-14.8c-1.5-5.7-2.5-11.6-3.5-17.4c-1.2-7-1.8-14.1-1.1-21.2
				c-0.9,0.3-1.9,0.5-2.8,0.8c9.5,18.9,22.4,36.1,38.2,50.1c4.3,3.8,8.9,7.4,13.7,10.8c1.6,1.1,3.1-1.5,1.5-2.6
				c-16.8-11.8-31-27-42-44.3c-3.2-5-6.1-10.2-8.8-15.5c-0.7-1.5-2.7-0.6-2.8,0.8c-0.7,6.7-0.1,13.5,0.9,20.1
				c1,6.2,2.1,12.5,3.6,18.7c1.4,5.7,3.4,11.4,6.9,16.1c3,4,7,7.3,11.6,9.3c5.1,2.3,10.7,2.9,16.2,1.7
				C51.7,241.5,50.9,238.6,49,239.1L49,239.1z"/>
		</g>
	</g>
	<ellipse transform="matrix(0.9885 -0.151 0.151 0.9885 -23.4294 63.4388)" class="st8" cx="406" cy="186" rx="13.9" ry="49.5"/>
	<ellipse transform="matrix(0.9885 -0.151 0.151 0.9885 -24.4614 49.8488)" class="st8" cx="316" cy="186" rx="13.9" ry="49.5"/>
	<path class="st8" d="M350.3,250.5c0,0,33,12,38.8-4.2c0,0,25.8,30.6,3.4,37.7C376,286,371,257,350.3,250.5z"/>
	<path class="st8" d="M376,119.1c-4-15.1,34-50.1,37.1-3.9C413,115.1,397.9,100.1,376,119.1z"/>
	<path class="st8" d="M323.6,121.1c1.6-15.5-41.2-44.3-37.3,1.7C286.3,122.8,299,105.7,323.6,121.1z"/>
	<circle class="st5" cx="52.5" cy="233.5" r="14"/>
	<g>
		<g>
			<path d="M589.3,314.9c8.1,4.6,16.1,9.6,23.4,15.5c6.3,5.1,12.2,10.9,16,18.1c4.4,8.2,5.1,17.7,4.6,26.9s-2.6,18.5-7,26.6
				c-4.4,8.2-10.9,15.1-19.1,19.5c-1.7,0.9-0.2,3.5,1.5,2.6c16.4-8.7,25.3-26.5,27.2-44.4c1-9.5,0.9-19.9-2.8-28.9
				c-3.3-8-9.1-14.7-15.6-20.3c-8.2-7.1-17.4-12.9-26.8-18.3C589.1,311.3,587.6,313.9,589.3,314.9L589.3,314.9z"/>
		</g>
	</g>
	<circle class="st5" cx="603.5" cy="424.5" r="13"/>
	<path class="st0" d="M424,44.4c0,0,10-22.6,23.5-17.4c0,0,96.3,22.2,114.6,69.1c0,0,2.9,7.2,1.4,15.6c-1.4,8.3,0.4,2.5,0.4,2.5
		s4.4,8,2.5,15.4C566.5,129.6,488.2,49.7,424,44.4z"/>
	<path class="st0" d="M281.6,49.7c0,0-3.3-25,17.6-19.8c0,0,48.5-5.8,60.2-2.8l7.3,15l10.7,2.4C377.3,44.4,321.2,40.3,281.6,49.7z"
		/>
	<path class="st6" d="M468,24c6,16-11.8,19.4-40.7,21.2s-61.6,0.1-66.2-9C351,16,379.1,19.8,408,18S464.4,14.5,468,24z"/>
	<ellipse class="st7" cx="413.5" cy="25" rx="54.2" ry="12.6"/>
	<path class="st9" d="M541.3,330.3c-15.3,22.4-26,47.8-36.5,72.9c-11.9,28.4-24.1,58.2-23.7,88.9
		C497.7,488.5,559.5,329.4,541.3,330.3z"/>
	<path class="st6" d="M504.7,403.2c10.6-25.1,21.3-50.5,36.5-72.9c-1.6,0.1-3.9,1.4-6.9,4.3c0,0-61.4,65.4-57.4,147.4
		c0,7.7,1.5,10.7,4,10.1C480.6,461.4,492.8,431.6,504.7,403.2z"/>
</g>
</svg>
