<?xml version="1.0" encoding="utf-8"?>
<!-- Generator: Adobe Illustrator 26.0.2, SVG Export Plug-In . SVG Version: 6.00 Build 0)  -->
<svg version="1.1" xmlns="http://www.w3.org/2000/svg" xmlns:xlink="http://www.w3.org/1999/xlink" x="0px" y="0px"
	 viewBox="0 0 1024 1024" style="enable-background:new 0 0 1024 1024;" xml:space="preserve">
<style type="text/css">
	.st0{display:none;}
	.st1{display:inline;}
	.st2{display:none;opacity:0.5;}
	.st3{fill:#B77374;stroke:#000000;stroke-width:4;stroke-miterlimit:10;}
	.st4{fill:none;stroke:#000000;stroke-width:4;stroke-miterlimit:10;}
	.st5{fill:#15213D;stroke:#000000;stroke-width:4;stroke-miterlimit:10;}
	.st6{fill:#4D4D4D;stroke:#000000;stroke-width:4;stroke-miterlimit:10;}
	.st7{fill:#808080;stroke:#000000;stroke-width:4;stroke-miterlimit:10;}
	.st8{fill:#2D2C4C;stroke:#000000;stroke-width:4;stroke-miterlimit:10;}
	.st9{fill:#010425;}
	.st10{fill:#15213D;}
	.st11{fill:#F3F2DB;}
	.st12{fill:#223760;stroke:#000000;stroke-width:4;stroke-miterlimit:10;}
</style>
<g id="color_ref" class="st0">
	<g class="st1">
		
			<image style="overflow:visible;" width="1600" height="1200" id="LH5WPj_00000134963338560838428080000016925130707559510954_" xlink:href="E9775CB383E2B2C.jpg"  transform="matrix(0.4135 0 0 0.4135 5 1)">
		</image>
	</g>
</g>
<g id="Rough" class="st2">
	<g class="st1">
		<g>
			<path d="M285.3,283.9c17.1-4.8,34.4-9.1,51.9-12.8c17.4-3.7,35-6.8,52.6-9.3c17.7-2.5,35.4-4.4,53.2-5.7
				c17.8-1.3,35.6-2,53.4-2.1c17.8-0.1,35.6,0.4,53.4,1.5c2.2,0.1,4.5,0.3,6.7,0.4c1.9,0.1,1.9-2.9,0-3c-17.8-1.3-35.7-1.9-53.6-2
				c-17.9,0-35.8,0.5-53.6,1.7c-17.9,1.2-35.7,2.9-53.4,5.3c-17.6,2.3-35.1,5.3-52.6,8.8c-17.5,3.5-35,7.7-52.2,12.4
				c-2.2,0.6-4.3,1.2-6.5,1.8C282.6,281.6,283.4,284.5,285.3,283.9L285.3,283.9z"/>
		</g>
	</g>
	<g class="st1">
		<g>
			<path d="M499.1,255c25.5-1,51-1.1,76.4-0.2c25.5,0.8,50.9,2.6,76.3,5.3c14.3,1.5,28.5,3.3,42.7,5.4c1.9,0.3,2.7-2.6,0.8-2.9
				c-25.3-3.7-50.8-6.6-76.4-8.4c-25.5-1.9-51.1-2.9-76.6-2.9c-14.4,0-28.8,0.3-43.2,0.8C497.2,252,497.2,255,499.1,255L499.1,255z"
				/>
		</g>
	</g>
	<g class="st1">
		<g>
			<path d="M649.5,256.1c20.5,5.6,41.2,10.2,62.1,13.7c5.9,1,11.8,1.9,17.8,2.7c0.8,0.1,1.6-0.2,1.8-1c0.2-0.7-0.2-1.7-1-1.8
				c-21-2.9-41.9-6.9-62.5-11.9c-5.8-1.4-11.6-2.9-17.4-4.5C648.5,252.7,647.7,255.6,649.5,256.1L649.5,256.1z"/>
		</g>
	</g>
	<g class="st1">
		<g>
			<path d="M728.8,272.7c9,30.5,15.3,61.9,18.5,93.6c1.6,15.7,2.5,31.6,2.7,47.4c0.2,15.8-0.1,31.7,0.4,47.5
				c0.5,17.8,2,35.6,6.1,52.9c0.4,1.9,3.3,1.1,2.9-0.8c-7.3-31-6.1-63.1-6.3-94.8c-0.2-31.7-3-63.2-8.8-94.4
				c-3.3-17.6-7.5-35-12.5-52.2C731.2,270.1,728.3,270.9,728.8,272.7L728.8,272.7z"/>
		</g>
	</g>
	<g class="st1">
		<g>
			<path d="M749.3,457.5c1.3,16.5,3.6,33,6.8,49.3c0.9,4.7,1.9,9.4,3,14c0.4,1.9,3.3,1.1,2.9-0.8c-3.7-16-6.5-32.2-8.3-48.4
				c-0.5-4.7-1-9.3-1.3-14C752.1,455.6,749.1,455.6,749.3,457.5L749.3,457.5z"/>
		</g>
	</g>
	<g class="st1">
		<g>
			<path d="M757.4,519.8c-40.6,6.5-81.4,11.3-122.4,14.4c-40.9,3.1-82,4.4-123,4c-23.1-0.2-46.2-1-69.2-2.3c-1.9-0.1-1.9,2.9,0,3
				c41.2,2.4,82.4,3,123.6,1.8c41.2-1.1,82.4-4,123.4-8.7c22.9-2.6,45.7-5.7,68.4-9.4C760.1,522.4,759.3,519.5,757.4,519.8
				L757.4,519.8z"/>
		</g>
	</g>
	<g class="st1">
		<g>
			<path d="M492.4,546c-21.7-2-43.3-4.4-64.9-7c-21.7-2.6-43.4-5.6-65-8.9c-12.1-1.8-24.3-3.8-36.4-5.8c-1.9-0.3-2.7,2.6-0.8,2.9
				c21.6,3.6,43.3,6.9,65,9.9c21.7,3,43.4,5.7,65.2,8.1c12.3,1.3,24.6,2.6,36.9,3.7C494.3,549.2,494.3,546.2,492.4,546L492.4,546z"
				/>
		</g>
	</g>
	<g class="st1">
		<g>
			<path d="M279.5,282.3c3.7,28.2,8.7,56.2,15.1,83.9c6.4,27.7,14.1,55.2,23.1,82.2c5.1,15.2,10.6,30.3,16.5,45.2
				c0.7,1.8,3.6,1,2.9-0.8c-10.4-26.4-19.6-53.3-27.5-80.6c-7.9-27.3-14.4-54.9-19.6-82.8c-2.9-15.6-5.4-31.3-7.5-47.1
				c-0.1-0.8-0.6-1.5-1.5-1.5C280.3,280.8,279.4,281.5,279.5,282.3L279.5,282.3z"/>
		</g>
	</g>
	<g class="st1">
		<g>
			<path d="M303,395.2c5,20.1,10.8,40,17.4,59.6c6.6,19.7,13.9,39.2,21.9,58.4c4.5,10.8,9.3,21.4,14.2,32c0.8,1.7,3.4,0.2,2.6-1.5
				c-8.8-18.7-16.9-37.7-24.2-57c-7.3-19.3-14-38.9-19.8-58.6c-3.3-11.1-6.4-22.3-9.2-33.6C305.4,392.5,302.5,393.3,303,395.2
				L303,395.2z"/>
		</g>
	</g>
	<g class="st1">
		<g>
			<path d="M363.5,508.2c14,9.6,32.1,9.8,48.4,10.4c19.5,0.7,39.1,0.6,58.6-0.2c19.7-0.7,39.3-2,58.9-3.6
				c19.2-1.5,38.5-3.1,57.7-4.9c18.6-1.8,37.3-4.2,55.4-8.8c2.3-0.6,4.6-1.2,6.8-1.9c1.9-0.5,1.1-3.4-0.8-2.9
				c-17.9,5.2-36.4,8-54.9,9.9c-18.9,2-37.9,3.5-56.9,5c-19.3,1.6-38.7,2.9-58,3.8c-19.3,0.9-38.7,1.2-58.1,0.8
				c-9-0.2-18.1-0.5-27.1-1.3c-8-0.8-16.1-2.3-23.4-5.9c-1.8-0.9-3.6-1.9-5.2-3.1C363.4,504.5,361.9,507.1,363.5,508.2L363.5,508.2z
				"/>
		</g>
	</g>
	<g class="st1">
		<g>
			<path d="M557.5,510.1c26.9,0.3,53.9,0.7,80.7-2.8c23.4-3,46.5-9,67.5-19.8c11.4-5.9,22.1-13.2,31.4-22c1.4-1.3-0.7-3.4-2.1-2.1
				c-16.5,15.5-37.1,26.1-58.6,32.8c-24,7.4-49.1,10.1-74,10.8c-14.9,0.5-29.9,0.3-44.8,0.1C555.6,507.1,555.6,510.1,557.5,510.1
				L557.5,510.1z"/>
		</g>
	</g>
	<g class="st1">
		<g>
			<path d="M722.6,484.5c1.1-25.8,1.1-51.7-0.1-77.5c-1.2-25.8-3.6-51.5-7.2-77c-2-14.4-4.4-28.7-7.1-42.9c-0.4-1.9-3.3-1.1-2.9,0.8
				c4.8,25.3,8.5,50.9,11,76.5c2.5,25.5,3.8,51,4,76.6c0.1,14.5-0.2,29-0.8,43.5C719.5,486.4,722.5,486.4,722.6,484.5L722.6,484.5z"
				/>
		</g>
	</g>
	<g class="st1">
		<g>
			<path d="M716.7,331c-2.7-10.1-5.3-20.2-8-30.3c-0.5-1.9-3.4-1.1-2.9,0.8c2.7,10.1,5.3,20.2,8,30.3
				C714.3,333.7,717.2,332.9,716.7,331L716.7,331z"/>
		</g>
	</g>
	<g class="st1">
		<g>
			<path d="M708.1,292.6c-17.6-5.5-35.9-8.2-54.3-9.7c-18.8-1.5-37.7-1.8-56.6-2.2c-19.5-0.4-39.1-0.5-58.6-0.5
				c-19.4,0.1-38.9,0.4-58.3,0.9c-19.4,0.5-38.9,1.3-58.3,2.3c-2.4,0.1-4.9,0.3-7.3,0.4c-1.9,0.1-1.9,3.1,0,3
				c38.8-2.1,77.7-3.3,116.6-3.6c19.3-0.1,38.5,0,57.8,0.3c19,0.3,38,0.6,57,1.8c20.7,1.3,41.4,3.9,61.2,10.1
				C709.2,296,710,293.1,708.1,292.6L708.1,292.6z"/>
		</g>
	</g>
	<g class="st1">
		<g>
			<path d="M415.9,280.3c-17.1-0.6-34.3,0.2-51.3,2.4c-16.9,2.2-33.6,5.7-50,10.6c-9.3,2.8-18.5,6-27.5,9.6c-1.8,0.7-1,3.6,0.8,2.9
				c15.8-6.3,32-11.4,48.6-15.1c16.6-3.7,33.5-6.1,50.5-7c9.6-0.5,19.2-0.6,28.8-0.3C417.8,283.4,417.8,280.4,415.9,280.3
				L415.9,280.3z"/>
		</g>
	</g>
	<g class="st1">
		<g>
			<path d="M315.2,297.6c-1.2,29.8,6.6,59.1,13.2,88c3.4,14.8,6.8,29.6,10.1,44.3c2.8,12.2,5.5,24.5,9.7,36.3
				c4.5,12.9,10.9,25.3,20.4,35.1c1.3,1.4,3.5-0.7,2.1-2.1c-17.1-17.6-23-42.5-28.3-65.7c-3.4-14.7-6.7-29.3-10-44
				c-3.3-14.4-6.8-28.8-9.6-43.3c-3.1-16.1-5.3-32.4-4.6-48.8C318.3,295.6,315.3,295.7,315.2,297.6L315.2,297.6z"/>
		</g>
	</g>
	<g class="st1">
		<g>
			<path d="M589.3,351.9c1-6.2-5.2-12-11.3-11.4c-7.2,0.7-10.8,7.3-12.1,13.7c-1.5,7.6-1.9,15.6-1.8,23.4c0,8.1,0.8,16.2,2.1,24.2
				c0.7,4,1.5,8,2.5,12c0.9,3.7,1.9,7.4,3.4,10.8c2.6,6,8.4,12.2,15.6,11.1c6.5-1,9.9-7.8,11.2-13.7c1.6-7.8,0.9-16.1,0.5-23.9
				c-0.5-8.5-1.4-16.9-2.6-25.3c-1-6.7-2.2-13.6-5.8-19.4c-0.9-1.5-2-2.8-3.1-4.1c-1.3-1.4-3.4,0.7-2.1,2.1
				c4.2,4.5,6.1,10.5,7.3,16.5c1.4,7.1,2.1,14.3,2.8,21.5c0.7,7.4,1.2,14.9,1.1,22.3c0,6-0.5,13.4-4.7,18.1c-1.8,2-4.2,3.2-6.9,2.9
				c-2.9-0.4-5.5-2.3-7.3-4.5c-2.1-2.5-3.4-5.6-4.4-8.7c-1.1-3.4-1.9-6.9-2.7-10.4c-3.1-14.2-4.3-28.8-3.2-43.3
				c0.3-3.8,0.6-7.7,1.4-11.4c0.7-3.3,1.9-6.7,4.5-9c2.3-2,5.7-2.8,8.6-1.4c2.4,1.2,4.9,4,4.4,6.9
				C586.1,353,588.9,353.8,589.3,351.9L589.3,351.9z"/>
		</g>
	</g>
	<g class="st1">
		<g>
			<path d="M497.6,354.4c-0.6-5.5-6.2-10-11.7-9.5c-6.7,0.6-10.8,7-13.2,12.7c-5.7,13.4-4.5,28.9-2.5,43c0.5,3.9,1.3,7.7,2.8,11.4
				c1.3,3.2,3.1,6.1,5.3,8.8c2.1,2.7,4.6,5.2,7.2,7.5c2.6,2.3,5.2,4.8,8,6.7c2.5,1.7,5.6,2.2,8,0.1c2-1.8,2.7-4.6,3.1-7.1
				c0.5-3.5,0.6-7.1,0.8-10.7c0.2-3.9,0.4-7.7,0.5-11.6c0.5-15.5-0.4-31.3-5.1-46.2c-0.6-1.9-1.3-3.9-2-5.8c-0.7-1.8-3.6-1-2.9,0.8
				c5.2,13.4,7,27.8,7.1,42.1c0.1,7-0.2,14-0.7,20.9c-0.2,3.2-0.2,6.5-0.7,9.6c-0.3,1.9-0.8,4.8-2.5,6c-2.4,1.6-5.4-1.7-7.1-3.1
				c-2.4-2-4.8-4.1-7-6.3c-4.6-4.5-8.4-9.6-10.3-15.9c-1.9-6.5-2.5-13.7-2.9-20.4c-0.4-6.6-0.3-13.2,0.9-19.7
				c0.7-3.5,1.7-6.9,3.2-10.1c1.4-2.9,3.1-6,5.8-7.9c2.4-1.8,5.2-2.3,8-1.2c2.4,1,4.7,3.2,5,5.9
				C494.8,356.3,497.8,356.3,497.6,354.4L497.6,354.4z"/>
		</g>
	</g>
	<g class="st1">
		<g>
			<path d="M529.5,453.3c7.2,4.2,15.4,8.2,23.9,8.1c6.8-0.1,13.8-3.1,17-9.4c-0.8,0.1-1.6,0.2-2.4,0.3c4,4.9,8.3,10,10.6,15.9
				c1.9,5.1,2.9,11.9-1.3,16.2c-1.8,1.8-4.2,2.9-6.7,2.8c-2.5-0.1-4.8-1.4-6.7-3c-4.4-3.7-7.5-8.8-11.3-13.2
				c-4.9-5.6-10.4-10.7-15.9-15.8c-1.4-1.3-3.5,0.8-2.1,2.1c5.3,5,10.7,10,15.6,15.5c4.2,4.8,7.6,10.6,12.8,14.4
				c4.7,3.5,10.8,4,15.5,0.2c5.1-4.1,5.6-11.2,4-17.1c-2-7.8-7.3-14.1-12.3-20.2c-0.6-0.7-1.9-0.5-2.4,0.3c-2.8,5.6-9.1,8-15.1,7.9
				c-7.8-0.1-15.1-3.8-21.7-7.6C529.4,449.8,527.8,452.4,529.5,453.3L529.5,453.3z"/>
		</g>
	</g>
	<g class="st1">
		<g>
			<path d="M557.5,324.1c0.5-8.2,4.2-16,10.4-21.3c3.2-2.7,7.4-5.1,11.6-5.2c4.4-0.1,8.3,2.4,9.6,6.6c1.8,5.7,2.3,12,2.4,17.9
				c0.9-0.3,1.9-0.5,2.8-0.8c-7.1-9.5-22.1-9.8-31.7-4.1c-3,1.8-5.3,4.3-6.3,7.7c-0.6,1.9,2.3,2.6,2.9,0.8c1.9-6.3,9.8-8.6,15.6-9.1
				c6.2-0.5,13,1,16.8,6.2c0.8,1.1,2.8,0.9,2.8-0.8c-0.2-5.9-0.8-12.1-2.3-17.8c-1.3-4.9-4.9-8.6-10-9.5c-5.1-0.9-10.1,1.2-14.2,4.1
				c-3.7,2.6-6.9,6.1-9.1,10c-2.7,4.6-4.1,9.9-4.5,15.2C554.3,326,557.3,326,557.5,324.1L557.5,324.1z"/>
		</g>
	</g>
	<g class="st1">
		<g>
			<path d="M506.4,329c-2.5-10.2-9.7-19.3-18.9-24.5c-4.7-2.6-10.4-4.5-15.9-3.6c-5.7,1-8.6,5.6-10.4,10.7
				c-1.9,5.3-3.7,11.7,0.4,16.5c0.6,0.7,1.9,0.5,2.4-0.3c3.2-6.1,10.2-8.2,16.6-8.3c4.2-0.1,8.4,0.6,12.6,1.2
				c1.8,0.3,3.9,0.5,5.6,1.3c1.2,0.6,2.7,2,2.4,3.5c-0.4,1.9,2.5,2.7,2.9,0.8c1-4.5-3.6-7.3-7.4-8c-4.8-0.9-9.8-1.7-14.7-1.8
				c-7.9-0.1-16.7,2.3-20.7,9.8c0.8-0.1,1.6-0.2,2.4-0.3c-3-3.5-1.3-8.7,0.1-12.6c1.5-4.4,3.6-8.7,8.7-9.5c4.7-0.8,9.7,1.1,13.7,3.3
				c4,2.3,7.5,5.3,10.5,8.9c3.2,4,5.6,8.7,6.9,13.6C504,331.6,506.9,330.8,506.4,329L506.4,329z"/>
		</g>
	</g>
	<g class="st1">
		<g>
			<path d="M760,519c-15.6,47.7-39.9,92.4-71.4,131.4c-7.8,9.6-16,18.9-24.6,27.8c-9,9.3-17.9,18.4-31.1,20.9
				c-7.2,1.4-14.6,1.8-21.9,2.5c-7.3,0.6-14.5,1.1-21.8,1.5c-14.7,0.8-29.5,1.3-44.2,1.6c-58.6,1.2-117.2,1.6-175.8,2
				c-29.7,0.2-59.4,0.3-89.1,0.2c-14.2,0-28.6,0.3-42.6-2.3c-3.2-0.6-6.6-1.2-9.7-2.3c-4.7-1.6-2.6-6-0.3-8.9c4-4.9,9-9.1,13.4-13.7
				c36.3-37.7,68.3-79.4,95.3-124.1c3.3-5.4,6.5-10.9,9.6-16.5c1-1.7-1.6-3.2-2.6-1.5c-26.8,47.2-59,91.2-96,131
				c-4.5,4.9-9.2,9.7-13.8,14.5c-3.9,4-9.6,8.1-11.3,13.7c-1.9,6.1,3.7,8.2,8.6,9.4c6.7,1.7,13.6,2.6,20.4,3
				c14.6,1,29.3,0.6,43.9,0.6c15.4,0,30.8,0,46.2-0.1c60.8-0.3,121.6-1,182.4-1.9c30-0.4,60-1,89.9-3.7c7-0.6,14.1-1.1,21-2.5
				c6.2-1.3,11.7-3.9,16.8-7.7c9.8-7.5,18.2-17.2,26.4-26.4c33.9-38,60.8-82.3,78.8-130c2.2-5.9,4.3-11.9,6.3-17.9
				C763.4,518,760.6,517.2,760,519L760,519z"/>
		</g>
	</g>
	<g class="st1">
		<g>
			<path d="M367.4,546.4c-28.2,24.7-36.1,63.5-57,93.4c-6.3,9-13.9,17.1-22.1,24.4c-2.8,2.5-7.1,5.5-5.6,9.8c1.2,3.7,5.7,5.1,9,6
				c22.7,5.8,46.1,8.8,69.4,10.3c48.2,3.2,96.5,0.2,144.7-2.2c24.1-1.2,48.3-2.4,72.4-3.6c19.1-1,40.7-0.6,57.1-11.9
				c8.2-5.6,13.8-13.8,18.7-22.3c5.8-10.2,11.4-20.7,17-31c5.6-10.1,11.2-20.2,16.6-30.4c5.1-9.6,10-19.5,13.4-29.9
				c1.6-5,2.9-10.1,3.7-15.3c0.1-0.9-0.4-2-1.4-1.9c-48,4.1-96.2,7.2-144.3,9.1c-48,1.9-96.1,2.6-144.2,2.3
				c-27.1-0.2-54.2-0.8-81.3-1.7c-1.9-0.1-1.9,2.9,0,3c48.2,1.6,96.4,2.2,144.6,1.5c48.1-0.6,96.1-2.4,144.1-5.2
				c27-1.6,54.1-3.6,81.1-5.9c-0.5-0.6-1-1.3-1.4-1.9c-3.4,21.4-14.6,40.4-24.9,59.2c-5.6,10.3-11.3,20.6-16.9,30.9
				c-5,9.2-9.7,18.9-16.2,27.3c-6,7.7-13.9,13.1-23.2,16c-9,2.9-18.6,3.8-28,4.4c-22.9,1.4-45.7,2.3-68.6,3.5
				c-46.7,2.3-93.5,5.6-140.2,4.2c-23.2-0.7-46.3-2.5-69.2-6.5c-5.6-1-11.2-2.1-16.7-3.4c-2.4-0.6-4.9-1.1-7.3-1.8
				c-1.8-0.6-4.3-1.5-5.1-3.3c-1-2.3,1.6-4.2,3.1-5.5c2.1-1.8,4.1-3.7,6.1-5.6c3.8-3.7,7.5-7.5,10.9-11.6
				c11.8-14,19.8-30.4,27.6-46.9c7.6-16,15.2-32.4,26.8-45.9c2.9-3.3,5.9-6.5,9.2-9.4C371,547.3,368.8,545.1,367.4,546.4
				L367.4,546.4z"/>
		</g>
	</g>
	<g class="st1">
		<g>
			<path d="M392.1,575.7c-0.2-3.6-3.1-5.8-6.4-6.7c-3.7-1-7.8-0.3-11.3,1c-3.9,1.4-7.4,3.7-10.6,6.5c-3.1,2.7-6.2,5.9-8.3,9.5
				c-2.1,3.4-3,7.6-1.2,11.3c1.8,3.7,5.8,4.9,9.6,4.3c4.2-0.7,8.2-2.9,12-4.8c4.1-2,8.1-4.2,11.8-6.9c7.4-5.5,13.5-13.7,13.6-23.3
				c0-1.9-3-1.9-3,0c-0.1,15.9-16.4,24.2-28.9,30c-2.8,1.3-6.5,3-9.7,1.9c-3.2-1.1-3.9-5-3-7.9c1-3.5,3.8-6.5,6.2-9
				c2.5-2.6,5.2-4.9,8.2-6.7c3.3-1.9,7-3.2,10.9-3.3c2.5,0,6.9,0.9,7,4.1C389.2,577.6,392.2,577.6,392.1,575.7L392.1,575.7z"/>
		</g>
	</g>
	<g class="st1">
		<g>
			<path d="M481.9,584.6c2.2-1.3,3.2-3.8,2.9-6.3c-0.3-2.9-2.2-5.1-4.7-6.5c-2.9-1.6-6.3-2.1-9.5-2.6c-3.6-0.5-7.2-0.8-10.8-0.8
				c-7.1,0-14.1,1.1-20.9,3.2c-5.7,1.8-11.8,4.2-15.7,8.9c-3.5,4.2-4.4,9.8-1.6,14.7c2.8,4.7,8,7.7,13.1,9.3
				c11.4,3.5,24.7,1.2,35.1-4.2c5.9-3.1,11.6-7.4,15.4-12.9c3.7-5.2,6.1-12.7,2.1-18.4c-1.1-1.6-3.7-0.1-2.6,1.5
				c3.1,4.4,1.4,9.9-1.3,14.1c-2.8,4.5-7.1,8.1-11.5,11c-9,5.7-19.8,8.3-30.4,7.2c-4.9-0.5-9.8-2-13.7-5c-3.6-2.8-6-7.1-4.5-11.6
				c1.5-4.6,6.2-7.5,10.4-9.3c5.6-2.5,11.8-4,17.9-4.8c7-0.8,14.2-0.6,21.2,0.7c2.8,0.5,6.2,1.3,8,3.7c1.2,1.6,1.4,4.6-0.5,5.7
				C478.7,583,480.2,585.6,481.9,584.6L481.9,584.6z"/>
		</g>
	</g>
	<g class="st1">
		<g>
			<path d="M594,578.1c-8.1-10.5-21.5-13.8-34.1-14.9c-3.3-0.3-6.6-0.4-9.9-0.5c-4-0.1-8.1-0.1-12.1,0.4c-6.8,1-13.8,4.2-17.1,10.6
				c-3.2,6.4-0.9,13.9,4.5,18.3c5.8,4.8,13.8,5.8,21.1,5.2c15.3-1.1,28.9-9.6,41-18.4c6.6-4.8,13.4-9.6,19.1-15.4
				c2.4-2.4,4.7-5.6,4.3-9.2c-0.3-2.8-2.7-5.4-5.5-5.8c-1.5-0.2-2.7,0.2-3.9,1.1c-1.5,1.2,0.6,3.3,2.1,2.1c1.8-1.4,4.2,1.4,4.3,3.1
				c0.3,3.3-2.8,6.1-5,8.1c-5.4,5-11.4,9.4-17.3,13.7c-10.8,7.8-22.6,15.4-36,17.4c-6.5,1-13.9,0.8-19.7-2.4c-5.3-2.9-9-8.9-6.9-15
				c2.1-6,8.4-9.2,14.3-10.3c3.6-0.7,7.3-0.7,10.9-0.6c3,0,6,0.1,9,0.3c12.3,0.8,26.3,3.2,34.3,13.6c0.5,0.6,1.3,1,2.1,0.5
				C594.1,579.8,594.4,578.7,594,578.1L594,578.1z"/>
		</g>
	</g>
	<g class="st1">
		<g>
			<path d="M649,562.8c1.9-2.7-0.6-5.6-3.1-6.7c-3.2-1.4-7.2-1-10.5-0.3c-7.4,1.6-13.7,6.2-18.9,11.5c-2.6,2.7-5,5.7-7.3,8.6
				c-2,2.5-5.4,6.1-3,9.5c1.8,2.6,5.8,3.5,8.7,3.7c3.4,0.3,6.8-0.4,9.8-2c6.7-3.5,10.2-11.3,9-18.6c-0.3-1.9-3.2-1.1-2.9,0.8
				c0.8,5.1-1.3,10.6-5.4,13.8c-4.1,3.3-10.3,4-15.1,1.8c-1.1-0.5-2.2-1.2-1.9-2.6c0.4-1.5,1.7-2.8,2.6-3.9c1.9-2.4,3.8-4.8,5.8-7.1
				c4-4.5,8.6-8.6,14.2-11c3-1.3,6.2-2.1,9.5-2.1c1.5,0,3.1,0,4.4,0.8c0.8,0.4,2.1,1.3,1.4,2.3C645.2,562.8,647.8,564.3,649,562.8
				L649,562.8z"/>
		</g>
	</g>
	<g class="st1">
		<g>
			<path d="M375.2,625.6c-6.8-3.1-14.6-2.9-21.5-0.3c-7,2.6-12.9,7.4-18.1,12.7c-1.3,1.4-2.6,2.8-3.9,4.3c-1.2,1.3-2.3,2.7-2.8,4.4
				c-1.1,3.6,1.6,6.1,5,6.5c6.4,0.9,13.1-0.6,18.9-3.3c6.6-3.1,12.2-8.3,15.7-14.7c0.9-1.7-1.7-3.2-2.6-1.5
				c-5.4,9.9-16.2,16.4-27.4,16.7c-1.7,0-6.9,0.5-6.8-2.3c0.1-1.4,1.3-2.8,2.2-3.8c1.1-1.3,2.3-2.6,3.5-3.8
				c4.4-4.6,9.4-8.9,15.2-11.6c6.5-3,14.5-4,21.2-0.9C375.5,629,377,626.4,375.2,625.6L375.2,625.6z"/>
		</g>
	</g>
	<g class="st1">
		<g>
			<path d="M458.3,639.4c2.6-2.1,3.1-5.9,1.9-8.9c-1.4-3.7-4.7-5.8-8.3-7c-3.9-1.3-8.2-1.8-12.3-2c-4.2-0.2-8.5,0.2-12.4,1.8
				c-7.2,3-11.5,9.8-14.5,16.7c-0.8,1.7-1.5,3.5-2.2,5.2c-0.7,1.8-1.2,3.9,0,5.7c2.1,3.1,6.7,2.1,9.8,1.7
				c10.8-1.6,21.5-3.7,32.1-6.5c1.9-0.5,1.1-3.4-0.8-2.9c-8,2.1-16.1,3.9-24.3,5.3c-2.1,0.4-4.1,0.7-6.2,1c-1.8,0.3-3.6,0.6-5.4,0.7
				c-1.1,0-2.7-0.1-2.9-1.4c-0.2-1.5,1-3.5,1.5-4.9c2.4-5.8,5.3-12,10.5-15.7c6.1-4.3,13.9-4,20.9-2.9c3.6,0.6,7.9,1.3,10.5,4.2
				c2,2.1,2.5,5.9,0,7.9C454.7,638.5,456.8,640.6,458.3,639.4L458.3,639.4z"/>
		</g>
	</g>
	<g class="st1">
		<g>
			<path d="M559,640.1c1.1-4.5-0.9-9.2-4.4-12.1c-3.6-2.9-8.2-4.3-12.7-5c-8.9-1.3-18.2,0.3-26.2,4.5c-4,2.1-8.1,4.9-10.8,8.5
				c-2.6,3.4-3,8,0.4,11.1c3,2.8,7.3,3.6,11.2,3.8c4.1,0.2,8.3-0.5,12.2-1.7c9-2.9,17-9.2,21.5-17.6c0.9-1.7-1.7-3.2-2.6-1.5
				c-3.5,6.5-9,11.5-15.6,14.6c-6.2,2.9-14.3,4.5-20.9,2.3c-3.1-1-6.2-3.4-5-7c0.7-1.9,2.2-3.5,3.7-4.8c1.5-1.3,3-2.5,4.7-3.5
				c6.6-4.2,14.5-6.3,22.3-6.1c4.5,0.1,9.2,0.9,13.2,3c3.9,2,7.3,6.1,6.1,10.7C555.6,641.2,558.5,642,559,640.1L559,640.1z"/>
		</g>
	</g>
	<g class="st1">
		<g>
			<path d="M624.7,629.3c-1.6-4.8-7.5-5.3-11.8-5.7c-5.2-0.5-10.4-0.4-15.5,0.3c-10.3,1.4-20.3,5-29,10.6c-4.4,2.8-8.4,6.1-12,9.8
				c-1.8,1.9-3.6,4.1-4.2,6.7c-0.6,2.7,0.3,5.2,2.3,7.1c8.3,7.4,20.8,5.1,29.5-0.2c5.4-3.3,10.3-7.6,14.7-12.1
				c4.4-4.5,8.4-9.6,11.3-15.2c0.9-1.7-1.7-3.2-2.6-1.5c-4.7,9-12,16.6-20,22.8c-7.4,5.7-17.3,10.3-26.7,6.5c-2-0.8-4.6-2.2-5.5-4.2
				c-1-2.3,0.7-4.9,2.1-6.6c3-3.5,6.8-6.6,10.6-9.2c7.6-5.3,16.3-9,25.4-10.8c5.1-1,10.3-1.5,15.5-1.3c2.6,0.1,5.1,0.3,7.6,0.7
				c1.9,0.3,4.7,1,5.4,3.1C622.4,631.9,625.3,631.1,624.7,629.3L624.7,629.3z"/>
		</g>
	</g>
	<g class="st1">
		<g>
			<path d="M763.1,534.7c-1.6,1.7-4.1,1.7-6.2,0.8c-2.5-1.1-3.9-3.3-4.5-5.9c-1.2-5.9,1.9-12.6,4.8-17.6c1.6-2.6,3.4-5.1,5.6-7.4
				c1-1.1,2.1-2.1,3.2-3c1.2-1,2.6-2.4,4.1-2.9c2.7-0.9,3.8,5.7,4,7.3c0.4,3.3,0,6.7-0.7,10c-0.8,3.3-1.9,6.6-3.2,9.7
				c-1.1,2.8-2.2,5.7-4,8.2c-1.3,1.8-3.5,3.7-5.8,2.3c-2-1.3-2.8-4.1-3.2-6.3c-1.9-11.8,2.9-24.5,11.5-32.6c0.9-0.9,2.2-2.2,3.3-0.9
				c0.8,0.9,1.1,2.3,1.3,3.5c0.5,3.8,0.4,7.8,0.1,11.7c-0.6,7.8-2.7,15.5-6,22.5c-0.8,1.7,1.8,3.3,2.6,1.5
				c3.5-7.5,5.7-15.6,6.4-23.8c0.3-4.1,0.4-8.3-0.1-12.4c-0.3-2.6-1.6-6.1-4.6-6.5c-1.9-0.3-3.4,0.8-4.7,2c-1.3,1.2-2.6,2.5-3.7,3.9
				c-2.2,2.8-4.1,5.8-5.6,9c-2.9,6.5-4.3,13.8-3.5,21c0.3,3.1,1.1,6.4,3.3,8.8c2.1,2.2,5.5,2.7,8.1,1.1c2.8-1.8,4.4-5,5.7-7.9
				c1.7-3.7,3.2-7.5,4.4-11.4c1.1-3.8,1.9-7.9,1.7-11.9c-0.2-3.4-0.9-7.8-3.3-10.4c-3-3.4-7-0.1-9.5,2c-2.8,2.4-5.3,5.1-7.5,8.1
				c-2.2,3-4,6.3-5.4,9.8c-1.4,3.4-2.4,7.2-2.3,10.9c0.1,3.4,1.4,6.9,4.1,9c2.3,1.8,5.3,2.7,8.2,2.1c1.4-0.3,2.7-1.1,3.7-2.1
				C766.6,535.4,764.4,533.3,763.1,534.7L763.1,534.7z"/>
		</g>
	</g>
	<g class="st1">
		<g>
			<path d="M345.1,523.7c0.7-1.5,0.2-3.2-1.2-4.1c-1.6-1-3.4-0.5-4.9,0.5c-2.7,1.8-5,4.3-6.7,6.9c-3.4,5.2-5.1,11.7-4.6,17.9
				c0.3,3.6,1.3,7.1,3,10.3c0.8-0.6,1.6-1.2,2.4-1.8c-4.7-5.9-3-14.2,1-19.9c2-2.9,4.7-5.8,7.7-7.7c2.5-1.5,6.5-2,8.2,1
				c1,1.7,3.5,0.2,2.6-1.5c-1.5-2.6-4.6-3.9-7.6-3.6c-3.5,0.3-6.4,2.5-8.8,4.8c-5,4.8-9,11.2-8.9,18.4c0,3.9,1.3,7.6,3.7,10.7
				c1.1,1.4,3.1-0.4,2.4-1.8c-2.9-5.5-3.3-12-1.6-18c0.8-2.9,2.2-5.7,4-8.2c0.9-1.3,2-2.4,3.2-3.5c0.6-0.5,1.3-1.1,2-1.5
				c0.3-0.2,0.8-0.5,1.2-0.5c0.3,0,0.5,0.3,0.6,0.1C341.8,524,344.3,525.5,345.1,523.7L345.1,523.7z"/>
		</g>
	</g>
	<g class="st1">
		<g>
			<path d="M765.7,521.3c16.8,12.6,33.2,27.7,42.8,46.7c4,7.8,6.7,16.4,6.6,25.3c-0.1,7.9-2.4,15.7-6.7,22.3
				c-5.4,8.1-13.7,13.6-23,16.5c-1.8,0.6-1.1,3.5,0.8,2.9c8.8-2.7,16.9-7.6,22.6-14.8c5.2-6.6,8.3-14.6,9.1-23
				c1.9-19.8-9.5-38.3-22.1-52.5c-8.5-9.7-18.3-18.1-28.6-25.8C765.6,517.6,764.1,520.2,765.7,521.3L765.7,521.3z"/>
		</g>
	</g>
	<g class="st1">
		<g>
			<path d="M794.6,625.5c-15.8-5.7-30.8-14.1-43.4-25.3c-1-0.9-2.4-0.2-2.6,1.1c-1.4,12,8.7,22.6,18.3,28c3.4,1.9,7,3.4,10.8,4.3
				c1.9,0.5,2.7-2.4,0.8-2.9c-7.6-2-14.7-6.1-20-11.9c-4.3-4.7-7.7-11-6.9-17.6c-0.9,0.4-1.7,0.7-2.6,1.1
				c13,11.5,28.4,20.2,44.7,26.1C795.6,629.1,796.4,626.2,794.6,625.5L794.6,625.5z"/>
		</g>
	</g>
	<g class="st1">
		<g>
			<path d="M790.4,634.3c-13,5.8-28.7,4.6-41.8,0c-4-1.4-7.8-3.2-11.4-5.4c-1-0.6-2.2,0.2-2.3,1.3c-0.4,4.3,1.9,8.3,4.8,11.4
				c3.6,3.7,8.2,6.3,13,8.1c10.4,3.8,22.1,2.5,31.5-3.4c4.9-3,9-7.1,12.4-11.7c1.1-1.6-1.5-3.1-2.6-1.5
				c-5.7,7.7-13.7,13.5-23.2,15.3c-9.5,1.8-20-1-27.3-7.3c-3.2-2.7-6-6.4-5.6-10.8c-0.8,0.4-1.5,0.9-2.3,1.3
				c13.2,8,29.7,11.3,45,8.8c3.9-0.6,7.7-1.8,11.4-3.4C793.7,636.1,792.2,633.5,790.4,634.3L790.4,634.3z"/>
		</g>
	</g>
	<g class="st1">
		<g>
			<path d="M796.9,630.2c3.9,5.8,5.5,12.7,3.6,19.5c-1.8,6.6-6.7,11.9-12.6,15.2c-4,2.2-8.4,3.4-12.8,3.8c0.5,0.6,1,1.3,1.4,1.9
				c4.5-11.7,9.1-23.4,13.6-35.1c0.7-1.8-2.2-2.6-2.9-0.8c-4.5,11.7-9.1,23.4-13.6,35.1c-0.3,0.9,0.5,2,1.4,1.9
				c8.3-0.8,16.5-4.1,22.2-10.3c5-5.5,7.8-12.9,6.9-20.3c-0.5-4.5-2.2-8.7-4.7-12.4C798.4,627.1,795.8,628.6,796.9,630.2
				L796.9,630.2z"/>
		</g>
	</g>
	<g class="st1">
		<g>
			<path d="M206.5,436c-12.4-11.5-18.3-28.9-16.4-45.6c0.5-4.7,1.8-9.3,3.6-13.7c-1-0.1-2-0.3-2.9-0.4c-0.1,19.7,2.4,39.4,7.4,58.5
				c0.5,1.9,3.4,1.1,2.9-0.8c-4.9-18.8-7.4-38.2-7.3-57.7c0-1.8-2.3-1.9-2.9-0.4c-6.7,16.3-4.8,35.6,4.2,50.6
				c2.6,4.3,5.7,8.2,9.4,11.6C205.8,439.4,207.9,437.3,206.5,436L206.5,436z"/>
		</g>
	</g>
	<g class="st1">
		<g>
			<path d="M201.7,436.3c-2.7-10.3-1.1-21.3,3.3-31c4.4-9.5,11.4-17.5,19.6-24.1c4.6-3.7,9.6-6.9,14.7-9.8c-0.6-0.8-1.2-1.6-1.8-2.4
				c-12.6,13.2-22.5,29-29,46c-1.8,4.8-3.4,9.8-4.6,14.8c-0.5,1.9,2.4,2.7,2.9,0.8c4.4-17.3,12.3-33.7,23-48c3-4,6.3-7.8,9.8-11.5
				c1.2-1.2-0.3-3.2-1.8-2.4c-19,10.6-36.5,27.2-39.8,49.7c-0.9,6.2-0.7,12.5,0.9,18.5C199.3,439,202.2,438.2,201.7,436.3
				L201.7,436.3z"/>
		</g>
	</g>
	<g class="st1">
		<g>
			<path d="M208.5,436.9c15.4,0.3,30.8-3.2,44.6-10c4-1.9,7.8-4.2,11.4-6.6c1.1-0.8,0.8-2.9-0.8-2.8c-20.1,1.3-40.2,4.2-59.8,8.6
				c-1.9,0.4-1.1,3.3,0.8,2.9c19.4-4.4,39.2-7.2,59-8.5c-0.3-0.9-0.5-1.9-0.8-2.8c-12.4,8.4-26.9,13.8-41.8,15.6
				c-4.2,0.5-8.5,0.7-12.8,0.6C206.5,433.9,206.5,436.9,208.5,436.9L208.5,436.9z"/>
		</g>
	</g>
	<g class="st1">
		<g>
			<path d="M205.4,440.7c-3.4-0.7-7.8-1.5-9.8-4.7c-0.8-1.2-1.3-2.7-1-4.1c0.3-1.4,1.4-2.4,2.7-2.8c3-1,6.5,0.2,8.7,2.4
				c2.1,2,3.4,5.3,1.8,8c-1.5,2.5-4.8,3.9-7.2,2.3c-1.6-1.1-3.1,1.5-1.5,2.6c3.3,2.2,7.8,0.9,10.3-2c2.9-3.3,2.7-8.1,0.1-11.5
				c-2.7-3.6-7.1-5.7-11.5-5c-2.1,0.3-4.1,1.4-5.3,3.2c-1.2,1.8-1.3,4.3-0.6,6.3c1.9,5.5,7.5,7.2,12.7,8.3
				C206.5,444,207.3,441.1,205.4,440.7L205.4,440.7z"/>
		</g>
	</g>
	<g class="st1">
		<g>
			<path d="M690.1,652.1c-0.6,18,3.5,35.7,7.7,53.2c2.1,8.8,4.3,17.7,5.9,26.6c0.7,4.2,2.1,9,0.4,13.1c-1.5,3.5-4.2,6.7-6.8,9.5
				c-9.9,11.1-23.5,18.6-38.1,21.5c-3.6,0.7-7.3,1.1-11,1.2c-1.8,0-3.7,0-5.5-0.1c-1.5-0.1-4-0.1-4.5-1.9c-0.5-1.7,0.7-3.7,1.5-5.1
				c0.9-1.6,1.9-3.2,3-4.6c2.2-2.9,4.9-5.5,7.8-7.8c13.5-10.6,31-13,47.6-14.2c2.3-0.2,4.5-0.3,6.8-0.5c1.9-0.1,1.9-3.1,0-3
				c-17.9,1.1-36.8,2.5-52.3,12.5c-6.6,4.3-12.4,10-16,17.1c-1.7,3.4-2.4,8,1.8,9.8c1.8,0.8,3.9,0.8,5.9,0.8c1.9,0.1,3.8,0.1,5.7,0
				c15.7-0.8,31.1-7,43-17.3c3-2.6,5.8-5.4,8.3-8.4c2.6-3.2,5.6-6.8,6.3-10.9c0.4-2.3,0.1-4.6-0.2-6.9c-0.3-2.3-0.7-4.6-1.2-6.9
				c-0.9-4.7-1.9-9.4-3-14.1c-4.3-18.6-9.6-37.1-10.2-56.3c-0.1-2.4-0.1-4.8,0-7.2C693.2,650.2,690.2,650.2,690.1,652.1L690.1,652.1
				z"/>
		</g>
	</g>
	<g class="st1">
		<g>
			<path d="M406,710.9c-0.7,12.7-0.6,25.4,0.5,38.1c0.5,6.3,1.2,12.5,2.2,18.7c0.5,3.1,1,6.2,1.6,9.3c0.3,1.5,0.6,3,0.9,4.5
				c0.3,1.4,0.7,2.9,0.7,4.4c0,2.9-2.7,2.9-4.9,3c-3.1,0.1-6.2,0.2-9.3,0.3c-4.5,0.1-9.1,0-13.5-1.3c-4.1-1.1-7.9-3.4-9.8-7.3
				c-1.9-3.8-1.4-8.5,0.4-12.3c5.3-11,18.8-12.2,29.4-9.7c1.9,0.4,2.7-2.4,0.8-2.9c-10.6-2.5-23.6-1.7-30.7,7.6
				c-2.9,3.8-4.6,8.8-4.1,13.7c0.6,4.8,3.3,8.9,7.5,11.5c4.2,2.6,9.2,3.4,14,3.7c2.6,0.2,5.2,0.1,7.9,0c3.2-0.1,6.5,0,9.7-0.4
				c2.7-0.3,5.1-1.7,5.5-4.5c0.5-3-0.7-6.2-1.3-9.1c-1.3-6.9-2.4-13.8-3.1-20.7c-1.7-15.4-2.2-31-1.3-46.5
				C409.1,709,406.1,709,406,710.9L406,710.9z"/>
		</g>
	</g>
	<g class="st1">
		<g>
			<path d="M613.4,274.7c-14.3,0-27.8-5.2-39.9-12.4c-6.2-3.6-12.1-7.8-17.8-12.1c-4.7-3.6-12.2-8.2-10-15.2
				c2.3-7.2,10.9-9,17.3-9.9c7.9-1.1,15.9-1.1,23.9-1.1c7.8,0,15.7,0,23.4,1.3c6.5,1.1,13.8,2.8,19,7.2c2.9,2.5,4.6,5.6,5.3,9.4
				c0.7,3.9,0.6,8.2,0.4,12.2c-0.3,3.8-1.5,7.2-4.6,9.6c-2.7,2.1-6,3.3-9.2,4.5c-1.8,0.6-1,3.5,0.8,2.9c6.3-2.3,13.1-5.2,15.2-12.1
				c1.1-3.7,0.9-7.8,0.9-11.6c-0.1-3.9-0.5-7.8-2.2-11.3c-3.1-6.3-9.8-9.7-16.1-11.7c-8.1-2.5-16.6-3.2-25-3.3
				c-8.7-0.2-17.5-0.2-26.2,0.5c-7.5,0.6-16.7,1.4-22.2,7.1c-2.4,2.5-4.1,5.9-4,9.4c0.2,3.6,2.2,6.7,4.7,9.1
				c2.7,2.5,5.7,4.7,8.7,6.9c3.2,2.4,6.4,4.7,9.7,6.8c12.7,8.4,27,15.3,42.3,16.6c1.9,0.2,3.8,0.2,5.7,0.2
				C615.3,277.7,615.3,274.7,613.4,274.7L613.4,274.7z"/>
		</g>
	</g>
	<g class="st1">
		<g>
			<path d="M423.9,267.2c-14.7,3.7-29.8,5.6-45,5.6c-7.6,0-15.1-0.5-22.6-1.4c-3.7-0.5-7.5-1-11.2-1.8c-1.6-0.4-2.8-1-3.3-2.7
				c-0.4-1.4-0.4-3-0.5-4.5c-0.1-3.1-0.1-6.4,0.8-9.4c1-3,3.1-5.2,5.8-6.7c2.9-1.5,6.1-2.3,9.2-3.2c3.8-1.1,7.6-2.1,11.3-3
				c7.5-1.9,15-3.7,22.6-5.2c7.1-1.4,14.5-2.5,21.8-1.4c6.5,0.9,15.8,3.9,15.1,12.1c-0.7,7.7-8.3,11.9-14.3,15.2
				c-1.7,0.9-0.2,3.5,1.5,2.6c6.2-3.3,12.7-7.2,15.1-14.2c1.1-3.2,1-6.8-0.5-9.8c-1.5-3-4.4-5-7.4-6.3c-7.1-3.1-15.2-3.3-22.9-2.5
				c-8.2,0.9-16.3,2.9-24.3,4.8c-8,1.9-16.2,3.8-24.1,6.4c-3.1,1-6.2,2.4-8.6,4.7c-2.5,2.5-3.7,5.7-4.1,9.1c-0.4,3.3-0.4,6.9,0,10.2
				c0.2,1.7,0.7,3.3,1.8,4.6c1.2,1.3,2.9,1.8,4.6,2.2c8.1,1.6,16.3,2.5,24.5,2.9c16.5,0.9,33.1-0.5,49.3-4.1c2-0.4,4-0.9,6-1.4
				C426.6,269.6,425.8,266.7,423.9,267.2L423.9,267.2z"/>
		</g>
	</g>
	<g class="st1">
		<g>
			<path d="M433,244c29-7.4,58.8-11.3,88.7-11.8c8.3-0.1,16.7,0,25,0.4c1.9,0.1,1.9-2.9,0-3c-30-1.5-60.1,0.5-89.6,6
				c-8.4,1.5-16.7,3.4-24.9,5.5C430.3,241.5,431.1,244.4,433,244L433,244z"/>
		</g>
	</g>
	<g class="st1">
		<g>
			<path d="M430.5,248.4c29.1-5.5,58.9-7.6,88.5-6.3c8.4,0.4,16.8,1,25.2,2c1.9,0.2,1.9-2.8,0-3c-29.8-3.3-59.9-3.1-89.6,0.5
				c-8.3,1-16.6,2.3-24.9,3.9C427.8,245.9,428.6,248.8,430.5,248.4L430.5,248.4z"/>
		</g>
	</g>
	<g class="st1">
		<g>
			<path d="M634.6,247.5c18.8,8,37.1,17.2,54.7,27.6c8.6,5.1,17.1,10.5,25.3,16.2c7.2,5,14.2,10.4,20.4,16.7
				c6.8,6.9,12.6,15,15.8,24.2c0.6,1.8,3.5,1,2.9-0.8c-5.9-17.1-19.5-29.7-33.8-40.1c-16.3-11.8-33.9-22.2-51.8-31.4
				c-10.4-5.4-21.1-10.4-31.9-15c-0.8-0.3-1.6-0.2-2.1,0.5C633.7,246.1,633.8,247.2,634.6,247.5L634.6,247.5z"/>
		</g>
	</g>
	<g class="st1">
		<g>
			<path d="M626,272.3c20.1,8.6,38.7,20.3,57.1,31.9c15.4,9.7,31,19.7,43.8,32.8c7.1,7.3,13.2,15.6,17.4,24.9c0.4,1,2.2,1,2.6,0
				c4.1-9.6,5.2-20.2,3.1-30.5c-0.4-1.9-3.3-1.1-2.9,0.8c1.9,9.4,1,19.3-2.8,28.2c0.9,0,1.7,0,2.6,0c-7.7-16.8-21.1-29.9-35.7-40.9
				c-7.5-5.6-15.4-10.8-23.3-15.8c-9.1-5.7-18.2-11.5-27.4-16.9c-10.7-6.3-21.6-12.2-33-17.1C625.8,268.9,624.3,271.5,626,272.3
				L626,272.3z"/>
		</g>
	</g>
	<g class="st1">
		<g>
			<path d="M337,251.8c-16.8,4.5-32.4,13.2-45.3,25c-1.4,1.3,0.7,3.4,2.1,2.1c12.4-11.5,27.6-19.8,43.9-24.2
				C339.6,254.2,338.9,251.3,337,251.8L337,251.8z"/>
		</g>
	</g>
	<g class="st1">
		<g>
			<path d="M199.1,442.1c-3,11-1.6,22.8,2.7,33.3c4.5,10.9,11.8,20.2,20.6,28c9.1,8,19.5,14.3,30.1,19.9c11,5.9,22.4,11.3,34.5,14.6
				c13.3,3.7,27.5,4.7,40.7,0c1.8-0.6,1-3.5-0.8-2.9c-23.3,8.3-48.3-1.6-69.1-12.3c-20-10.4-40.7-23.1-51.2-44
				c-5.5-11-7.8-23.8-4.5-35.8C202.5,441,199.6,440.2,199.1,442.1L199.1,442.1z"/>
		</g>
	</g>
	<g class="st1">
		<g>
			<path d="M731.3,538.5c6.9,8.8,1.5,20.7-3,29.1c-5.1,9.6-10.6,19.1-16.4,28.4c-11.5,18.5-24.3,36.5-38.9,52.6
				c-7.1,7.8-15.7,15.8-26.6,17.2c0.5,0.6,1,1.3,1.4,1.9c3.7-10.1,9.1-19.5,14.8-28.6c5.4-8.7,10.8-17.3,16.1-26
				c10.2-16.9,20.3-34,32.8-49.4c6.9-8.6,14.5-16.5,23.1-23.5c1.5-1.2-0.6-3.3-2.1-2.1c-15.4,12.6-27.7,28.4-38.6,45
				c-11.2,16.9-21.2,34.6-32,51.7c-6.5,10.3-12.7,20.7-16.9,32.2c-0.3,0.8,0.5,2,1.4,1.9c10.1-1.3,18.5-7.4,25.4-14.5
				c7.8-7.9,14.7-16.8,21.3-25.6c13.9-18.4,26.2-38,37.1-58.4c3-5.6,6.1-11.4,7-17.8c0.8-5.7-0.2-11.6-3.8-16.2
				C732.3,534.8,730.2,537,731.3,538.5L731.3,538.5z"/>
		</g>
	</g>
	<g class="st1">
		<g>
			<path d="M759,530c0.2,6.9,2.3,13.7,0.5,20.6c-1.7,6.4-5.5,12.2-8.6,18c-6.6,12.1-13.8,23.8-21.8,35.1
				c-7.8,11-16.1,21.6-23.8,32.7c-7.2,10.2-13.6,20.9-20.4,31.4c-7.4,11.4-15.5,22.4-25.9,31.1c0.5-0.1,1-0.3,1.5-0.4
				c-4-0.9-8-2-11.9-3.2c-1.8-0.6-2.6,2.3-0.8,2.9c3.6,1.2,7.3,2.2,11,3c0.9,0.2,1.6,0.4,2.4-0.2c0.6-0.4,1.1-0.9,1.6-1.3
				c1.2-1.1,2.5-2.2,3.6-3.4c4.6-4.5,8.8-9.5,12.7-14.7c7.8-10.5,14.4-21.9,21.5-32.8c7.9-12.1,16.6-23.6,25.2-35.3
				c8.7-11.9,17-24,24.3-36.9c2.1-3.8,4.2-7.7,6.3-11.5c1.9-3.5,3.8-6.9,5.2-10.6c1.4-3.7,2-7.6,1.8-11.6c-0.2-4.3-1.1-8.5-1.2-12.8
				C761.9,528.1,758.9,528.1,759,530L759,530z"/>
		</g>
	</g>
	<g class="st1">
		<g>
			<path d="M223.7,701.9c4.2,11.3,16,16.8,27.4,17.9c7.8,0.8,15.6-0.1,23.4-0.4c7.8-0.3,15.6,0,23.3,0.8c15.5,1.6,30.9,4.8,46.4,6.7
				c15.8,2,31.6,1.9,47.4,0.9c16-1,31.9-2.7,47.9-3.7c16.1-1,32.2-1.5,48.3-1.9c32.2-0.7,64.5-0.7,96.7-2.1
				c13.4-0.6,27.1-1,40.4-3.5c11.2-2.1,22.4-6,31-13.6c2.1-1.9,3.9-4,5.6-6.2c1.2-1.5-1.4-3-2.6-1.5c-15,19.7-43.8,20.2-66.2,21.4
				c-31.2,1.6-62.4,1.7-93.7,2.3c-15.5,0.3-31.1,0.7-46.6,1.4c-15.6,0.7-31.2,2-46.7,3.3c-15.4,1.3-31,2.3-46.5,1.5
				c-15.2-0.8-30.2-3.7-45.3-6c-14.8-2.3-29.5-3.5-44.5-2.6c-13,0.8-28.1,1.6-38.2-8.4c-2.1-2.1-3.7-4.5-4.7-7.2
				C225.9,699.3,223,700.1,223.7,701.9L223.7,701.9z"/>
		</g>
	</g>
	<g class="st1">
		<g>
			<path d="M730.5,271.9c6.5,16.3,13,32.6,19.4,48.9c1.7,4.2,3.4,8.8,2.4,13.4c-0.4,1.9,2.5,2.7,2.9,0.8c0.9-4.1,0.1-8.2-1.3-12.1
				c-1.5-4.1-3.2-8.2-4.8-12.2c-3.3-8.4-6.7-16.8-10-25.2c-1.9-4.8-3.8-9.5-5.7-14.3C732.7,269.4,729.8,270.1,730.5,271.9
				L730.5,271.9z"/>
		</g>
	</g>
	<g class="st1">
		<g>
			<path d="M749.9,356.3c6.5,18,9.4,36.9,11,55.9c1.6,19.2,2,38.4,3.7,57.6c0.9,10.7,2.3,21.4,4.4,31.9c0.4,1.9,3.3,1.1,2.9-0.8
				c-3.8-18.9-5-38.1-6-57.3c-1-19.1-1.9-38.3-5.2-57.2c-1.8-10.5-4.3-20.9-8-31C752.2,353.7,749.3,354.4,749.9,356.3L749.9,356.3z"
				/>
		</g>
	</g>
</g>
<g id="Lineart">
	<path class="st3" d="M399,242c0,0-89.3,21.4-100.6,40.5l105.7-14.3L399,242z"/>
	<path class="st4" d="M680,774c0,0-23.7-75.6-23-169.5"/>
	<path class="st5" d="M413.3,758.5c0,0-62.2-12.6-55.5,32.2H432C432,790.7,439.2,769.5,413.3,758.5z"/>
	<path class="st5" d="M698.3,766.8c0,0-62.2-12.6-55.5,32.2H717C717,799,724.2,777.8,698.3,766.8z"/>
	<path class="st4" d="M432,779c0,0-20.2-105.9,42.2-162.2"/>
	<g>
		<g>
			<path d="M338.5,525.3c-9.6,4.5-20.7,4.7-30.9,2.3c-10.3-2.5-19.6-7.7-28.1-13.9c-15.8-11.5-30-26.1-39.4-43.3
				c-5.2-9.4-8.8-19.7-10.3-30.4c-0.3-1.9-3.2-1.1-2.9,0.8c2.8,19.9,13,38,26.2,52.9c6.8,7.6,14.4,14.6,22.5,20.7
				c8.7,6.6,18.2,12.3,28.7,15.3c11.7,3.4,24.5,3.3,35.7-1.9C341.7,527.1,340.2,524.5,338.5,525.3L338.5,525.3z"/>
		</g>
	</g>
	<path class="st5" d="M759.4,517.5c0,0-155.1,4.6-214.2,3.6s-185.6,9.3-185.6,9.3c-6.6,0-14.1,3.9-16.7,8.6l-95.9,159.5
		c-2.6,4.7,0.7,8.6,7.3,8.6c0,0,107.7,17.1,202.8,20.8s220.7-5,220.7-5c6.6,0,14.1-3.9,16.7-8.6l72.3-188.3
		C769.3,521.4,766,517.5,759.4,517.5z M374.9,578c-17.5,0-17.5-27.1,0-27.1C392.4,550.8,392.3,578,374.9,578z M426,584.2
		c-17.5,0-17.5-27.1,0-27.1C443.5,557,443.5,584.2,426,584.2z M475,588.1c-17.5,0-17.5-27.1,0-27.1C492.5,561,492.5,588.1,475,588.1
		z M532.4,588.1c-17.5,0-17.5-27.1,0-27.1C549.9,561,549.8,588.1,532.4,588.1z M589.2,584.7c-17.5,0-17.5-27.1,0-27.1
		C606.7,557.6,606.6,584.7,589.2,584.7z M637.5,579.7c-17.5,0-17.5-27.1,0-27.1C655,552.5,655,579.7,637.5,579.7z"/>
	<ellipse class="st6" cx="336.5" cy="521.5" rx="10.5" ry="26.5"/>
	<path class="st5" d="M761.4,529c-192.6,23.2-193,19.5-214.4,20c-59.4,1.3-183.6-13-183.6-13c-6.6,0-13.2-5.4-14.8-12l-60.3-222
		c-1.5-6.6,2.6-12,9.2-12c0,0,111.5-23.8,207.4-29c95.9-5.2,219.6,7,219.6,7c6.6,0,13.2,5.4,14.8,12l31.3,237
		C772.2,523.6,768,529,761.4,529z"/>
	<ellipse class="st7" cx="343.5" cy="521.5" rx="10.5" ry="26.5"/>
	<path class="st8" d="M753.4,509.5c0,0-155.1,4.6-214.2,3.6s-185.6,9.3-185.6,9.3c-6.6,0-14.1,3.9-16.7,8.6l-95.9,159.5
		c-2.6,4.7,0.7,8.6,7.3,8.6c0,0,107.7,17.1,202.8,20.8s220.7-5,220.7-5c6.6,0,14.1-3.9,16.7-8.6l72.3-188.3
		C763.3,513.4,760,509.5,753.4,509.5z"/>
	<path class="st9" d="M681.6,539.9c0,0-110,10.9-160.6,10.1c-50.6-0.8-154.8-9.3-154.8-9.3c-5.6,0-12.1,3.3-14.2,7.2l-79.4,130.9
		c-2.2,4,0.6,7.2,6.3,7.2c0,0,92.2,14.4,173.5,17.5c81.3,3.1,150.7-4.2,150.7-4.2c5.6,0,12.1-3.3,14.2-7.2l70.7-144.9
		C690.1,543.2,687.2,539.9,681.6,539.9z M374.9,578c-17.5,0-17.5-27.1,0-27.1C392.4,550.8,392.3,578,374.9,578z M426,584.2
		c-17.5,0-17.5-27.1,0-27.1C443.5,557,443.5,584.2,426,584.2z M475,588.1c-17.5,0-17.5-27.1,0-27.1C492.5,561,492.5,588.1,475,588.1
		z M532.4,588.1c-17.5,0-17.5-27.1,0-27.1C549.9,561,549.8,588.1,532.4,588.1z M589.2,584.7c-17.5,0-17.5-27.1,0-27.1
		C606.7,557.6,606.6,584.7,589.2,584.7z M637.5,579.7c-17.5,0-17.5-27.1,0-27.1C655,552.5,655,579.7,637.5,579.7z"/>
	<path class="st8" d="M752.4,520c-192.6,23.2-193,19.5-214.4,20c-59.4,1.3-183.6-13-183.6-13c-6.6,0-13.2-5.4-14.8-12l-60.3-222
		c-1.5-6.6,2.6-12,9.2-12c0,0,111.5-23.8,207.4-29c95.9-5.2,219.6,7,219.6,7c6.6,0,13.2,5.4,14.8,12l31.3,237
		C763.2,514.6,759,520,752.4,520z"/>
	<ellipse class="st6" cx="760.5" cy="517.5" rx="10.5" ry="26.5"/>
	<path class="st9" d="M478.2,236.9c7.7,5.8-6.6,14.6-31.9,19.6c-25.3,5-55.4,5.2-59.7-3.3c-9.6-19.2,6.6-12.6,31.9-17.6
		C443.8,230.5,470.6,231.1,478.2,236.9z"/>
	
		<ellipse transform="matrix(0.9919 -0.127 0.127 0.9919 -26.7474 56.6884)" class="st10" cx="431.3" cy="238.2" rx="48.2" ry="12.6"/>
	<path class="st9" d="M712.8,500c0,0-132.6,15.7-183.4,16.8s-157-10.9-157-10.9c-5.6,0-11.3-4.5-12.6-10.1l-51.6-186.3
		c-1.3-5.5,2.2-10.1,7.9-10.1c0,0,95.4-20,177.4-24.3c82-4.3,187.8,5.9,187.8,5.9c5.6,0,11.3,4.5,12.6,10.1l26.8,198.9
		C722,495.4,718.5,500,712.8,500z"/>
	<ellipse class="st7" cx="767.5" cy="517.5" rx="10.5" ry="26.5"/>
	<g>
		<path class="st10" d="M231.1,445c-5.2-1.4-8.3-7.5-10-13.3c-5.7-18.9-9.6-40.9,5.3-57.8c-0.9,14.6,11.2,51.1,13.1,56.6"/>
		<g>
			<path d="M231.5,443.6c-4.4-1.3-6.8-6.1-8.3-10.1c-1.7-4.6-2.9-9.5-3.9-14.3c-2-9.5-2.8-19.7-0.1-29.1c1.6-5.5,4.4-10.6,8.2-15
				c-0.9-0.4-1.7-0.7-2.6-1.1c-0.2,3.6,0.3,7.3,0.8,10.9c0.7,4.5,1.7,9,2.7,13.4c2,8.5,4.5,16.8,7.1,25.1c0.8,2.6,1.6,5.1,2.5,7.6
				c0.6,1.8,3.5,1,2.9-0.8c-2-5.8-3.8-11.6-5.5-17.5c-2.6-8.8-4.9-17.6-6.5-26.6c-0.7-4-1.3-8.1-1.1-12.2c0.1-1.3-1.7-2-2.6-1.1
				c-7.3,8.4-10.8,18.9-10.8,29.9c0,5.3,0.6,10.6,1.7,15.8c1,5.1,2.3,10.3,4,15.3c1.8,5.2,4.8,10.9,10.5,12.5
				C232.6,447,233.4,444.1,231.5,443.6L231.5,443.6z"/>
		</g>
	</g>
	<g>
		<path class="st10" d="M793.7,630.8l-10.2,5.4c0.4-1,0.8-2,1.2-3l-18.6,12.2l-29,15.3c7.9,1.5,15.8,3,23.9,2.7
			c8-0.3,16.2-2.5,22.4-7.5C790.7,649.9,794.7,640.2,793.7,630.8z"/>
		<g>
			<path d="M793,629.5c-3.4,1.8-6.8,3.6-10.2,5.4c0.7,0.6,1.5,1.1,2.2,1.7c0.4-1,0.8-2,1.2-3c0.4-1.2-1.1-2.4-2.2-1.7
				c-2.9,1.9-5.8,3.8-8.8,5.8c-3.2,2.1-6.4,4.4-9.7,6.4c-2.1,1.3-4.4,2.3-6.5,3.4c-4.5,2.4-9.1,4.8-13.6,7.2c-3,1.6-6,3.2-9,4.7
				c-1.1,0.6-0.9,2.5,0.4,2.7c11.1,2.1,22.7,4.1,33.9,1.4c9.5-2.3,17.9-8.2,22-17.3c2.2-4.8,3.2-10.1,2.6-15.4c-0.2-1.9-3.2-1.9-3,0
				c0.9,8.6-2.5,17.4-9,23.2c-7.3,6.4-17.5,8.2-26.9,7.8c-6.3-0.3-12.6-1.4-18.8-2.6c0.1,0.9,0.2,1.8,0.4,2.7c7-3.7,14-7.4,21-11.1
				c2.6-1.4,5.4-2.7,8-4.2c2.8-1.6,5.4-3.5,8.1-5.3c3.5-2.3,7-4.6,10.5-6.9c-0.7-0.6-1.5-1.1-2.2-1.7c-0.4,1-0.7,2-1.2,3
				c-0.5,1.3,1.2,2.2,2.2,1.7c3.4-1.8,6.8-3.6,10.2-5.4C796.2,631.2,794.7,628.6,793,629.5z"/>
		</g>
	</g>
	<g>
		<path class="st10" d="M782,640.5c-6.9,8-16.6,10.9-25.6,8.8c-9-2-17.1-8.7-23.4-17.5c14.9,4.3,30.6,3.8,45.3-1.6"/>
		<g>
			<path d="M780.9,639.5c-4.7,5.4-11.3,8.9-18.6,9c-7.1,0.1-13.8-3.1-19.1-7.6c-3.4-2.8-6.4-6.2-8.9-9.8c-0.6,0.7-1.1,1.5-1.7,2.2
				c15.1,4.3,31.3,3.8,46.1-1.6c1.8-0.6,1-3.5-0.8-2.9c-14.3,5.2-29.8,5.8-44.5,1.6c-1.2-0.3-2.5,1.1-1.7,2.2
				c4.8,6.7,10.9,12.8,18.4,16.2c7,3.1,14.8,3.7,22,0.7c4.2-1.7,7.9-4.5,10.9-7.9C784.3,640.1,782.2,638,780.9,639.5L780.9,639.5z"
				/>
		</g>
	</g>
	<g>
		<path class="st10" d="M791.1,621.4c0.7-4-1.5-7.9-4.2-10.9c-6.8-7.7-16.9-12-26.9-11.5c7,6.5,12.6,14.6,16.3,23.5"/>
		<g>
			<path d="M792.5,621.8c1.2-7.8-5.6-14.5-11.6-18.4c-6.2-4.1-13.6-6.2-21-5.8c-1.2,0.1-2,1.6-1.1,2.6c6.9,6.5,12.4,14.5,16.1,23.2
				c0.3,0.8,1.4,0.9,2.1,0.5c0.8-0.4,0.9-1.3,0.5-2.1c-3.8-9-9.5-17.1-16.5-23.8c-0.4,0.9-0.7,1.7-1.1,2.6
				c6.5-0.3,12.9,1.4,18.5,4.8c2.8,1.7,5.3,3.8,7.4,6.2c2.2,2.5,4.3,5.9,3.8,9.4C789.4,622.9,792.3,623.7,792.5,621.8L792.5,621.8z"
				/>
		</g>
	</g>
	<g>
		<path class="st10" d="M237.6,450.4c8.7-1.2,17.7-2.5,25.2-5.9c7.6-3.4,13.6-9.4,13.1-15.9c-9.2,3.9-20.1,5.7-30.7,4.9"/>
		<g>
			<path d="M237.6,451.9c9.1-1.2,18.4-2.4,26.7-6.4c6.4-3.1,13.5-9,13.1-16.8c-0.1-1.2-1.2-1.7-2.3-1.3c-9.4,4-19.8,5.4-30,4.7
				c-1.9-0.1-1.9,2.9,0,3c10.7,0.8,21.6-0.9,31.5-5.1c-0.8-0.4-1.5-0.9-2.3-1.3c0.4,7-6.7,12-12.4,14.6c-7.6,3.4-16.2,4.5-24.5,5.6
				c-0.8,0.1-1.5,0.6-1.5,1.5C236.1,451.1,236.8,452,237.6,451.9L237.6,451.9z"/>
		</g>
	</g>
	<g>
		<path class="st10" d="M229.4,445.5c-10.4,2.4-21.8-2.9-27.8-12.9c-3.8-6.3-5.4-14-6.8-21.4c-1.9-9.9-3.8-20.1-2.7-30.2
			c12.3,24.6,30.1,45.5,51.3,60.3"/>
		<g>
			<path d="M229,444.1c-9.2,2-18.8-2.3-24.4-9.7c-3.3-4.3-5.1-9.5-6.5-14.8c-1.5-5.7-2.5-11.6-3.5-17.4c-1.2-7-1.8-14.1-1.1-21.2
				c-0.9,0.3-1.9,0.5-2.8,0.8c9.5,18.9,22.4,36.1,38.2,50.1c4.3,3.8,8.9,7.4,13.7,10.8c1.6,1.1,3.1-1.5,1.5-2.6
				c-16.8-11.8-31-27-42-44.3c-3.2-5-6.1-10.2-8.8-15.5c-0.7-1.5-2.7-0.6-2.8,0.8c-0.7,6.7-0.1,13.5,0.9,20.1
				c1,6.2,2.1,12.5,3.6,18.7c1.4,5.7,3.4,11.4,6.9,16.1c3,4,7,7.3,11.6,9.3c5.1,2.3,10.7,2.9,16.2,1.7
				C231.7,446.5,230.9,443.6,229,444.1L229,444.1z"/>
		</g>
	</g>
	<ellipse transform="matrix(0.9885 -0.151 0.151 0.9885 -52.3208 92.9671)" class="st11" cx="586" cy="391" rx="13.9" ry="49.5"/>
	<ellipse transform="matrix(0.9885 -0.151 0.151 0.9885 -53.3527 79.3774)" class="st11" cx="496" cy="391" rx="13.9" ry="49.5"/>
	<path class="st11" d="M530.3,455.5c0,0,33,12,38.8-4.2c0,0,25.8,30.6,3.4,37.7C556,491,551,462,530.3,455.5z"/>
	<path class="st11" d="M556,324.1c-4-15.1,34-50.1,37.1-3.9C593,320.1,577.9,305.1,556,324.1z"/>
	<path class="st11" d="M503.6,326.1c1.6-15.5-41.2-44.3-37.3,1.7C466.3,327.8,479,310.7,503.6,326.1z"/>
	<circle class="st8" cx="232.5" cy="438.5" r="14"/>
	<g>
		<g>
			<path d="M769.3,519.9c8.1,4.6,16.1,9.6,23.4,15.5c6.3,5.1,12.2,10.9,16,18.1c4.4,8.2,5.1,17.7,4.6,26.9c-0.5,9.2-2.6,18.5-7,26.6
				c-4.4,8.2-10.9,15.1-19.1,19.5c-1.7,0.9-0.2,3.5,1.5,2.6c16.4-8.7,25.3-26.5,27.2-44.4c1-9.5,0.9-19.9-2.8-28.9
				c-3.3-8-9.1-14.7-15.6-20.3c-8.2-7.1-17.4-12.9-26.8-18.3C769.1,516.3,767.6,518.9,769.3,519.9L769.3,519.9z"/>
		</g>
	</g>
	<circle class="st8" cx="783.5" cy="629.5" r="13"/>
	<path class="st3" d="M604,249.4c0,0,10-22.6,23.5-17.4c0,0,96.3,22.2,114.6,69.1c0,0,2.9,7.2,1.4,15.6c-1.4,8.3,0.4,2.5,0.4,2.5
		s4.4,8,2.5,15.4C746.5,334.6,668.2,254.7,604,249.4z"/>
	<path class="st3" d="M461.6,254.7c0,0-3.3-25,17.6-19.8c0,0,48.5-5.8,60.2-2.8l7.3,15l10.7,2.4
		C557.3,249.4,501.2,245.3,461.6,254.7z"/>
	<path class="st9" d="M648,229c6,16-11.8,19.4-40.7,21.2c-28.9,1.8-61.6,0.1-66.2-9C531,221,559.1,224.8,588,223
		S644.4,219.5,648,229z"/>
	<ellipse class="st10" cx="593.5" cy="230" rx="54.2" ry="12.6"/>
	<path class="st12" d="M721.3,535.3c-15.3,22.4-26,47.8-36.5,72.9c-11.9,28.4-24.1,58.2-23.7,88.9
		C677.7,693.5,739.5,534.4,721.3,535.3z"/>
	<path class="st9" d="M684.7,608.2c10.6-25.1,21.3-50.5,36.5-72.9c-1.6,0.1-3.9,1.4-6.9,4.3c0,0-61.4,65.4-57.4,147.4
		c0,7.7,1.5,10.7,4,10.1C660.6,666.4,672.8,636.6,684.7,608.2z"/>
</g>
</svg>
