<?xml version="1.0" encoding="utf-8"?>
<!-- Generator: Adobe Illustrator 26.0.2, SVG Export Plug-In . SVG Version: 6.00 Build 0)  -->
<svg version="1.1" id="Layer_1" xmlns="http://www.w3.org/2000/svg" xmlns:xlink="http://www.w3.org/1999/xlink" x="0px" y="0px"
	 viewBox="0 0 500 500" style="enable-background:new 0 0 500 500;" xml:space="preserve">
<style type="text/css">
	.st0{fill:#CCCCCC;stroke:#000000;stroke-width:4;stroke-miterlimit:10;}
	.st1{fill:#808080;stroke:#000000;stroke-width:4;stroke-miterlimit:10;}
	.st2{fill:#B77374;stroke:#000000;stroke-width:4;stroke-miterlimit:10;}
	.st3{fill:#87414D;stroke:#000000;stroke-width:4;stroke-miterlimit:10;}
	.st4{fill:#D4A088;stroke:#000000;stroke-width:4;stroke-miterlimit:10;}
	.st5{fill:#F3F2DB;}
	.st6{fill:#E6E6E6;stroke:#000000;stroke-width:4;stroke-miterlimit:10;}
	.st7{opacity:0.55;fill:#B77374;enable-background:new    ;}
	.st8{fill:#D4A088;stroke:#B77374;stroke-width:4;stroke-miterlimit:10;}
	.st9{opacity:0.5;}
	.st10{fill:#666666;}
	.st11{fill:#B77374;}
	.st12{opacity:0.55;fill:#F3F2DB;enable-background:new    ;}
	.st13{opacity:0.55;}
	.st14{fill:none;stroke:#000000;stroke-width:4;stroke-miterlimit:10;}
	.st15{fill:#F3F2DB;stroke:#000000;stroke-width:2;stroke-miterlimit:10;}
	.st16{fill:#D4A088;}
</style>
<g id="Lineart">
	<path class="st0" d="M86.8,354.5c0,0,0.6-27.9,3.5-45.3c0,0-28,31.5-11.2,59.7L86.8,354.5z"/>
	<path class="st0" d="M76.1,352.7c0,0-5.1-26.7-5.1-43.7c0,0-29.8,34.4-1.9,58.7L76.1,352.7z"/>
	<path class="st0" d="M80.4,374.5L52.6,385c0,0,1.4-16.6,14.4-19.3l13.4,5C82.1,371.3,82.1,373.8,80.4,374.5z"/>
	<circle class="st1" cx="80" cy="363" r="11"/>
	<g>
		<g>
			<path d="M164.3,328.2c-17.7,13.2-38.4,22.1-59.6,27.9c-6.6,1.8-13.3,3.3-20.1,4.4c-1.9,0.3-1.1,3.2,0.8,2.9
				c22.8-4,45.4-11.3,65.5-22.9c5.2-2.9,10.1-6.2,14.9-9.7C167.4,329.7,165.9,327.1,164.3,328.2L164.3,328.2z"/>
		</g>
	</g>
	<ellipse class="st2" cx="179" cy="322" rx="27" ry="38"/>
	<ellipse class="st3" cx="166.9" cy="434" rx="27.9" ry="41"/>
	<ellipse class="st2" cx="176.1" cy="433" rx="27.9" ry="41"/>
	<path class="st4" d="M333.2,271.6c-9.5-4.6-45.5,6.3-85.2,6.3s-75.8-10.9-85.2-6.3c-0.6,0.3-0.8,20.6-0.8,47.2
		c0,34.8,0.4,80.4,0.6,106c0.1,11.9,0.2,19.5,0.2,19.7c0,5.8,38.2,36.6,85.2,36.6s85.2-30.7,85.2-36.6
		C333.2,443.5,335,272.4,333.2,271.6z"/>
	<path class="st5" d="M210,440c0-35,1-75,3-111c-18.3-0.5-33.2-1.8-49-10.3c0,34.8,0.4,80.4,0.6,106c3.1,1.5,7.2,4.9,10.4,6.3
		C186.1,435.8,198.3,442.7,210,440z"/>
	<ellipse class="st2" cx="327" cy="326" rx="27" ry="38"/>
	<path class="st0" d="M347.2,288.4c0,5.8-44.4,10.6-99.2,10.6s-99.2-4.7-99.2-10.6c0-0.9-2-16,0-16.9c11-4.6,53,6.3,99.2,6.3
		s88.2-10.9,99.2-6.3C349.3,272.4,347.2,287.5,347.2,288.4z"/>
	<ellipse class="st6" cx="248" cy="271.6" rx="99.2" ry="10.6"/>
	<path class="st0" d="M342,266c0,5.5-42.1,10-94,10s-94-4.5-94-10c0-0.9-1.9-15.2,0-16c10.4-4.3,50.2,6,94,6s83.6-10.3,94-6
		C343.9,250.8,342,265.1,342,266z"/>
	<ellipse class="st6" cx="248" cy="250" rx="94" ry="10"/>
	<path class="st7" d="M242,75c-1.9,1.8-3.7,3.7-5.4,5.6c-48.4,53-50.3,134.3,12.1,166.7c0.4,0.2,0.9,0.5,1.3,0.7l0,0
		C345.8,168.7,271.7,101.9,242,75z"/>
	<circle class="st8" cx="318" cy="203" r="16"/>
	<circle class="st8" cx="274" cy="213" r="16"/>
	<g class="st9">
		<path class="st10" d="M241.5,85.9c14,19.1,20.9,43,21,66.5c-0.1,23.6-8.7,47.6-24.7,65l-0.3-0.2c6.7-9.4,12.1-19.8,15.6-30.8
			c9-27.6,6.2-58-4.5-84.7c-2.1-5.4-4.6-10.6-7.5-15.6L241.5,85.9L241.5,85.9z"/>
	</g>
	<circle class="st8" cx="295" cy="215" r="15"/>
	<circle class="st8" cx="256" cy="215" r="15"/>
	<g class="st9">
		<path class="st10" d="M247.8,82.1c37-3.3,77.8-6.3,114.9-8.9c22.2-0.8,52.2-4.4,72.5,5.9c9,4.6,15.6,12.8,20.1,21.6
			c2.4,4.3,4.1,8.8,5.9,13.3l-0.4,0.2c-12.3-26.9-24.6-37.3-54.7-38.2c-14.4-0.5-28.8,0.5-43.2,1.4
			C324.9,79.2,285.2,82.7,247.8,82.1L247.8,82.1z"/>
	</g>
	<circle class="st8" cx="381" cy="193" r="16"/>
	<circle class="st8" cx="335.5" cy="185.5" r="19.5"/>
	<circle class="st8" cx="355" cy="207.5" r="17"/>
	<circle class="st8" cx="409" cy="191" r="21"/>
	<g class="st9">
		<path class="st10" d="M268.6,149.7c20.6-3.2,42.1-5.1,62.9-6.3c21-1.1,42.1-1.6,63.2-0.7c10.6,0.5,21.2,1.2,31.6,3.2
			c2.6,0.5,5.3,1.1,7.7,2.3c0.8,0.4,1.7,0.8,2.2,1.7l-0.3,0.2c-1-1.3-3-1.6-4.6-2c-12-2.2-24.4-2-36.6-2.2c-14-0.1-28,0.3-42,0.7
			c-28,0.8-56,2-84,3.6C268.6,150.1,268.6,149.7,268.6,149.7L268.6,149.7z"/>
	</g>
	<path class="st11" d="M231.4,234.4c-12.1,3.8-25,4.8-37.5,2.8s-24.9-7.2-33.3-16.6c13.2,1,26.5,1.1,39.7,0.4
		c5.6-0.3,11.4-0.9,16.4-3.3c-36.5-53-1.8-124.6,25-142.9l-6.6,0.3C92.6,78.2,69.8,85.9,66.3,87.8c-1.5,0.8-2.9,1.5-4.4,2.3
		C-19.3,131.8,23,242.7,96,242.7c60.7,4.8,111.5,6.1,153.7,5.3C242.8,243.8,236.7,239.2,231.4,234.4z"/>
	<path class="st12" d="M407.8,66.9l-166.2,7.8c-1.9,1.3-3.9,2.9-5.9,4.8c0.3,0.4,0.6,0.7,0.9,1.1c-48.4,53-50.3,134.3,12.1,166.7
		c0.4,0.2,0.9,0.5,1.3,0.7l0,0c112.8-2.3,164.2-19.9,179.6-26.5c3.5-1.5,7.1-2.9,10.6-4.2C513.2,190.1,485.7,57.7,407.8,66.9z"/>
	<g>
		<path class="st5" d="M142,114c-5.2,0-10,3.5-13.9,9.5c-5.9,4.6-13.3,7.1-20.8,7.7c-8.8,0.8-17.7-0.9-26.2-3.5
			c3.5,8.8,10.1,16.4,18.3,21.2c6,3.5,12.9,5.5,19.8,5.8c-0.1,2-0.2,4.1-0.2,6.3c0,26,10.3,47,23,47s23-21,23-47S154.7,114,142,114z
			"/>
	</g>
	<path class="st11" d="M250,248L250,248L250,248L250,248z"/>
	<path class="st12" d="M249.8,248c0.1,0,0.1,0,0.2,0c-0.5-0.2-0.9-0.5-1.3-0.7C249,247.5,249.4,247.8,249.8,248z"/>
	<g class="st13">
		<path class="st10" d="M407.8,67c0.1,0.1-167,8.3-166,8.1c-19.4,14.4-32,41.2-37.4,64.3c-7.5,33-0.9,66.1,23.4,90.5
			c6.7,6.7,14.3,12.4,22.4,17.3l-0.5-0.1c50.6-1.4,101.6-4.5,150.8-16.8c10.2-2.6,20.3-5.7,30-9.8c4.2-1.7,10.6-4,14.7-6
			C511.3,183.7,483.6,58.2,407.8,67L407.8,67z M407.8,66.9C484,58,511.9,184.1,445.5,215.2c-4.1,1.9-10.4,4.3-14.7,6
			c-41.4,16.4-86.3,21.2-130.4,24.7c-16.9,1.3-33.8,1.8-50.7,2.3c-7.3-4.4-14.1-9.4-20.3-15.3c-26.2-24.7-33.7-59-25.7-93.5
			c4.8-20.5,14.1-40.4,28.3-56.2c2.9-3.1,6-6,9.5-8.4C241.6,74.7,407.7,66.9,407.8,66.9L407.8,66.9z"/>
	</g>
	<path class="st5" d="M160.5,220.6c8.4,9.4,20.8,14.6,33.3,16.6s25.5,1,37.5-2.8c-5.9-5.3-10.8-10.9-14.8-16.7
		c-4.9,2.3-10.8,3-16.4,3.3C187,221.7,173.7,221.6,160.5,220.6z"/>
	<ellipse class="st3" cx="330" cy="442" rx="30" ry="45"/>
	<path class="st14" d="M407.8,66.9l-166.2,7.8c-32.4,22.2-76.5,122.3,8.2,173.2c113-2.2,164.4-19.9,179.9-26.5
		c3.5-1.5,7.1-2.9,10.6-4.2C513.2,190.1,485.7,57.7,407.8,66.9z"/>
	<ellipse class="st2" cx="340" cy="441" rx="30" ry="45"/>
	<ellipse class="st15" cx="341.8" cy="441" rx="10.2" ry="20"/>
	<g>
		<g>
			<path d="M333.2,337.9c5.8,6.4,11.6,12.9,17.4,19.3c2.9,3.2,5.7,6.4,8.6,9.6c1.5,1.7,3,3.3,4.5,5c1.2,1.3,2.6,2.1,4.4,1.6
				c1.7-0.5,3.3-1.8,4.7-2.8c1.6-1,3.2-2.1,4.7-3.2c3.2-2.2,6.3-4.5,9.4-6.8c6.1-4.6,12-9.6,17.6-14.8c6.3-5.9,12.3-12.1,18-18.6
				c1.3-1.5-0.9-3.6-2.1-2.1c-9.6,11.1-20.1,21.2-31.6,30.3c-5.8,4.6-11.8,8.9-18,12.9c-0.7,0.5-1.5,1-2.2,1.4
				c-0.7,0.5-1.4,1-2.2,0.4c-1.5-1.2-2.7-3-4-4.4c-2.8-3.1-5.5-6.1-8.3-9.2c-6.2-6.9-12.5-13.9-18.7-20.8
				C334,334.3,331.9,336.5,333.2,337.9L333.2,337.9z"/>
		</g>
	</g>
	<path class="st16" d="M101,58.5c-8.5-37,68.5-84,73.7-4.9C174.7,53.5,132.5,12.5,101,58.5z"/>
	<path class="st0" d="M420.2,330.8c0,0-29.2-4.8-37.2-18.8l41,1.6L420.2,330.8z"/>
	<path class="st0" d="M432.3,324.1c0,0,21.1-29.7,11.1-71.6l-25,54L432.3,324.1z"/>
	<path class="st0" d="M427.8,330.8L427.8,330.8c27.6-7.1,47-32,47-60.5v-7.8l-47,50.8V330.8z"/>
	<ellipse class="st1" cx="424" cy="318.5" rx="11.5" ry="13"/>
	<g class="st9">
		<path class="st10" d="M464.9,158.3c2.3,10.4-3.3,20.8-10.1,28.5c-6.1,6.8-13.7,12.1-21.7,16.5c-10.2,5.6-21.1,9.8-32.2,13.2
			c-46.6,13.6-95.7,15.9-144,14.1l-7.6-0.4v-0.4c20.3-0.3,40.5-1,60.7-2.5c40.7-3.3,97-10.1,131.4-32.5c12.1-8,24.8-20.8,22.9-36.4
			C464.5,158.4,464.9,158.3,464.9,158.3L464.9,158.3z"/>
	</g>
</g>
</svg>
