<?xml version="1.0" encoding="utf-8"?>
<!-- Generator: Adobe Illustrator 26.0.2, SVG Export Plug-In . SVG Version: 6.00 Build 0)  -->
<svg version="1.1" xmlns="http://www.w3.org/2000/svg" xmlns:xlink="http://www.w3.org/1999/xlink" x="0px" y="0px"
	 viewBox="0 0 524 525" style="enable-background:new 0 0 524 525;" xml:space="preserve">
<style type="text/css">
	.st0{display:none;}
	.st1{display:inline;}
	.st2{display:none;opacity:0.47;}
	.st3{display:inline;fill:none;stroke:#000000;stroke-width:4;stroke-miterlimit:10;}
	.st4{fill:#CCCCCC;stroke:#000000;stroke-width:4;stroke-miterlimit:10;}
	.st5{fill:#808080;stroke:#000000;stroke-width:4;stroke-miterlimit:10;}
	.st6{fill:#B77374;stroke:#000000;stroke-width:4;stroke-miterlimit:10;}
	.st7{fill:#87414D;stroke:#000000;stroke-width:4;stroke-miterlimit:10;}
	.st8{fill:#D4A088;stroke:#000000;stroke-width:4;stroke-miterlimit:10;}
	.st9{fill:#F3F2DB;}
	.st10{fill:#E6E6E6;stroke:#000000;stroke-width:4;stroke-miterlimit:10;}
	.st11{opacity:0.55;fill:#B77374;}
	.st12{fill:#D4A088;stroke:#B77374;stroke-width:4;stroke-miterlimit:10;}
	.st13{opacity:0.5;}
	.st14{fill:#666666;}
	.st15{fill:#B77374;}
	.st16{opacity:0.55;fill:#F3F2DB;}
	.st17{opacity:0.55;}
	.st18{fill:none;stroke:#000000;stroke-width:4;stroke-miterlimit:10;}
	.st19{fill:#F3F2DB;stroke:#000000;stroke-width:2;stroke-miterlimit:10;}
	.st20{fill:#D4A088;}
</style>
<g id="Color_Ref" class="st0">
	<g class="st1">
		
			<image style="overflow:visible;" width="1600" height="1200" id="XhfSAY_00000147211559527381835800000005354029780187115156_" xlink:href="20B52BA09A4A8D3D.jpg"  transform="matrix(0.4031 0 0 0.4031 -250 -249.5)">
		</image>
	</g>
</g>
<g id="Rough" class="st2">
	<path class="st3" d="M286.4,454.9c2.9-6.7,8.7-12.5,13.7-17.2c4.3-4,9.2-7.8,14.8-8.3v-43.1c-0.1,0-0.1,0-0.2,0
		c-9.2-3.7-18.3-15.8-19.3-27c-0.7-8,2.7-15.6,4.2-23.2c0.1-0.4,0.2-0.8,0.3-1.2c-0.4,0.2-0.9,0.5-1.3,0.7c-14,7-29.3,8.7-44.4,8.8
		c-16.5,0.2-33.1,0.2-49.6,0.2c-13.8,0-27.3-1.5-40.9-4c-7.8-1.4-17.9-3-24.8-8.7v135.4c0,0,58,71.1,147.1,25.2
		C282.2,480.2,281.4,466.3,286.4,454.9z"/>
	<g class="st1">
		<g>
			<path d="M51.2,86.7c16.9-0.4,33.8-0.7,50.7-1.1c16.8-0.4,33.6-0.7,50.5-1.1c9.6-0.2,19.2-0.4,28.7-0.6c1.9,0,1.9-3,0-3
				c-16.9,0.4-33.8,0.7-50.7,1.1c-16.8,0.4-33.6,0.7-50.5,1.1c-9.6,0.2-19.2,0.4-28.7,0.6C49.2,83.7,49.2,86.7,51.2,86.7L51.2,86.7z
				"/>
		</g>
	</g>
	<g class="st1">
		<g>
			<path d="M104.1,76.1c20.2,0.4,40.5,0.5,60.7,0.3c20.2-0.2,40.3-0.8,60.5-1.7c11.4-0.5,22.7-1.1,34-1.8c1.9-0.1,1.9-3.1,0-3
				c-20.2,1.3-40.4,2.2-60.7,2.8c-20.2,0.6-40.3,0.9-60.5,0.8c-11.4,0-22.7-0.2-34.1-0.4C102.1,73,102.1,76,104.1,76.1L104.1,76.1z"
				/>
		</g>
	</g>
	<g class="st1">
		<g>
			<path d="M163.9,75.1c31.7-0.7,63.5-1.5,95.2-2.3c28.5-0.7,57.3-1.5,85.4-6.8c15.7-3,31-7.5,45.6-14c1.8-0.8,0.2-3.4-1.5-2.6
				c-25.9,11.6-54.3,16.3-82.4,18.4c-14.2,1.1-28.5,1.5-42.7,1.9c-15.6,0.4-31.1,0.8-46.7,1.1c-17.6,0.4-35.2,0.8-52.8,1.3
				C162,72.1,162,75.1,163.9,75.1L163.9,75.1z"/>
		</g>
	</g>
	<g class="st1">
		<g>
			<path d="M290.6,72.2c19.1-3.7,38.3-6.2,57.7-7.5c19.3-1.3,38.6-1.4,57.9-0.4c10.9,0.6,21.8,1.6,32.6,2.9c1.9,0.2,1.9-2.8,0-3
				c-19.3-2.4-38.8-3.6-58.2-3.6c-19.5,0-38.9,1.2-58.2,3.6c-10.9,1.3-21.7,3.1-32.5,5.1C287.9,69.7,288.7,72.6,290.6,72.2
				L290.6,72.2z"/>
		</g>
	</g>
	<g class="st1">
		<g>
			<path d="M309.1,63.9c21.5-0.9,43.1-0.1,64.5,1.9c5.4,0.5,10.8,1.1,16.1,1.7c5.4,0.7,10.8,1.2,16.2,2.2c4.8,0.9,9.8,2,14.3,4
				c3.8,1.7,7.3,4.1,10.5,6.8c7.3,6.2,13.1,13.8,20.2,20.1c1.4,1.3,3.6-0.8,2.1-2.1c-6.4-5.8-11.8-12.6-18.2-18.4
				c-3.2-2.9-6.6-5.6-10.4-7.6c-4.1-2.3-8.6-3.6-13.1-4.7c-5.3-1.3-10.8-1.9-16.2-2.6c-5.5-0.7-10.9-1.3-16.4-1.9
				c-10.9-1.1-21.8-1.9-32.7-2.4c-12.3-0.5-24.7-0.5-37,0C307.2,61,307.2,64,309.1,63.9L309.1,63.9z"/>
		</g>
	</g>
	<g class="st1">
		<g>
			<path d="M252.5,242.6c-20.8-0.9-41.6-2-62.3-2.9c-20.8-0.9-41.5-1.8-62.3-2.3c-11.8-0.3-23.5-0.5-35.3-0.6c-1.9,0-1.9,3,0,3
				c20.8,0.1,41.6,0.7,62.4,1.4c20.8,0.8,41.5,1.7,62.3,2.7c11.8,0.6,23.5,1.1,35.3,1.7C254.4,245.7,254.4,242.7,252.5,242.6
				L252.5,242.6z"/>
		</g>
	</g>
	<g class="st1">
		<g>
			<path d="M119,237.7c-17.8,0.9-35.5-3.2-52.2-8.9c-7.5-2.6-14.9-5.7-21.4-10.2c-6.5-4.4-11.7-10.2-15.7-16.9
				c-4.6-7.5-7.9-15.8-11.1-24c-0.7-1.8-3.6-1-2.9,0.8c5.8,14.8,12.1,30.3,25,40.3c6.5,5.1,14,8.7,21.7,11.5
				c8.4,3.1,17,5.7,25.7,7.5c10.1,2.2,20.5,3.3,30.9,2.8C120.9,240.6,121,237.6,119,237.7L119,237.7z"/>
		</g>
	</g>
	<g class="st1">
		<g>
			<path d="M43.3,210.4c-13.9-5.8-25.1-17.1-31.6-30.5c-3.2-6.7-5.3-14-5.9-21.4c-0.7-8.9,0.9-17.8,2.9-26.5
				c2.4-10.2,5.3-20.3,6-30.9c0.1-1.9-2.9-1.9-3,0c-1.3,18.9-10,36.9-9,56c0.9,15.4,7.7,30.3,18.3,41.4c6,6.3,13.3,11.3,21.4,14.7
				C44.3,214,45.1,211.1,43.3,210.4L43.3,210.4z"/>
		</g>
	</g>
	<g class="st1">
		<g>
			<path d="M22.1,111.4c-1.7-1-1.5-3.3-1-5c0.6-2.2,1.8-4.3,3-6.2c2.6-3.9,6.2-7,10-9.5c9.1-5.8,19.7-8.1,30.1-10.1
				c6.6-1.3,13.2-2.5,19.5-4.6c1.8-0.6,1-3.5-0.8-2.9c-12.3,4-25.4,4.8-37.6,9c-9.6,3.3-19.2,8.8-24.6,17.7
				c-2.4,3.9-5.4,11.1-0.2,14.2C22.2,115,23.7,112.4,22.1,111.4L22.1,111.4z"/>
		</g>
	</g>
	<g class="st1">
		<g>
			<path d="M127.1,82.8c-15.8,1.2-31.5,2.5-47.3,3.7c-7.8,0.6-15.6,1.2-23.4,1.8c-6.9,0.5-13.9,0.9-20.6,2.5
				c-6.3,1.5-12.2,4.2-17,8.6c-4.5,4.1-7.9,9.2-10.3,14.7c-5.7,13.2-5.8,27.9-6.1,42C2,173,1.9,190,6.1,206.3
				c0.5,1.9,3.4,1.1,2.9-0.8c-3.6-14.2-4-29-3.8-43.6c0.1-7.3,0.2-14.6,0.7-21.9c0.5-6.9,1.4-13.8,3.6-20.4c1.9-5.6,4.7-11,8.6-15.4
				c4.2-4.7,9.5-7.9,15.5-9.7c6.2-1.9,12.8-2.4,19.2-2.9c7.6-0.6,15.3-1.2,22.9-1.8c17.1-1.3,34.2-2.7,51.3-4
				C129,85.6,129,82.6,127.1,82.8L127.1,82.8z"/>
		</g>
	</g>
	<g class="st1">
		<g>
			<path d="M14.4,104.4C3.9,121.2-6,139.2-9.1,159c-2.6,16.8,0,35.3,10.5,49.1c6.5,8.7,15.8,14.2,25.1,19.4c1.7,0.9,3.2-1.6,1.5-2.6
				c-8.1-4.6-16.4-9.3-22.5-16.4c-5.3-6.3-8.8-13.9-10.7-21.9c-4.2-17.6-0.5-35.7,6.6-52c4.4-10,9.9-19.4,15.6-28.7
				C18,104.3,15.5,102.8,14.4,104.4L14.4,104.4z"/>
		</g>
	</g>
	<g class="st1">
		<g>
			<path d="M-0.3,173.5c-2.6,6.5-0.8,14,2.9,19.7c3.8,6,9.4,10.6,14.7,15.2c10.3,9.1,21.1,18.1,33.7,23.9c7,3.2,14.3,5.4,22,5.9
				c1.9,0.1,1.9-2.9,0-3c-13-0.9-24.8-6.9-35.3-14.2c-5.5-3.8-10.6-8.1-15.7-12.5c-5-4.3-10.2-8.6-14.5-13.6
				c-4.7-5.7-7.9-13.5-5-20.7C3.3,172.5,0.4,171.7-0.3,173.5L-0.3,173.5z"/>
		</g>
	</g>
	<g class="st1">
		<g>
			<path d="M42.3,234.9c24,6.5,48.7,10.1,73.5,11.9c24.9,1.8,49.9,1.8,74.8,1.1c14.1-0.4,28.1-0.9,42.2-1.5c1.9-0.1,1.9-3.1,0-3
				c-25,1-49.9,2.1-74.9,1.9c-24.7-0.1-49.5-1.4-74-4.9c-13.8-2-27.4-4.7-40.9-8.4C41.2,231.5,40.4,234.4,42.3,234.9L42.3,234.9z"/>
		</g>
	</g>
	<g class="st1">
		<g>
			<path d="M312.8,243.4c17.2-3.2,34.1-8,51.1-12.3c4.9-1.2,9.8-2.4,14.7-3.5c1.9-0.4,1.1-3.3-0.8-2.9c-17.1,3.9-34,8.8-51.1,12.7
				c-4.9,1.1-9.7,2.2-14.6,3.1C310.1,240.9,310.9,243.7,312.8,243.4L312.8,243.4z"/>
		</g>
	</g>
	<g class="st1">
		<g>
			<path d="M155.6,245.7c18.7,4.8,37.9,7.3,57.2,7.9c1.9,0.1,1.9-2.9,0-3c-19-0.6-38-3-56.4-7.8
				C154.5,242.4,153.7,245.3,155.6,245.7L155.6,245.7z"/>
		</g>
	</g>
	<g class="st1">
		<g>
			<path d="M315,243.4c26.1-3.2,51.8-8.4,77.3-14.7c7-1.7,14.1-3.5,21.1-5.4c1.9-0.5,1.1-3.4-0.8-2.9c-24.9,6.6-50,12.6-75.5,16.8
				c-7.4,1.2-14.8,2.3-22.2,3.2C313.1,240.7,313,243.7,315,243.4L315,243.4z"/>
		</g>
	</g>
	<g class="st1">
		<g>
			<path d="M173.5,247.1c12.7,0.9,25.3,1.5,38,1.8c1.9,0,1.9-3,0-3c-12.7-0.3-25.4-0.9-38-1.8C171.6,243.9,171.6,246.9,173.5,247.1
				L173.5,247.1z"/>
		</g>
	</g>
	<g class="st1">
		<g>
			<path d="M322.1,243.3c28.1-8.6,55.5-19.3,82-32c7.6-3.6,15.1-7.5,22.5-11.4c1.7-0.9,0.2-3.5-1.5-2.6
				c-25.8,13.8-52.7,25.7-80.3,35.4c-7.7,2.7-15.6,5.3-23.4,7.7C319.4,241,320.2,243.9,322.1,243.3L322.1,243.3z"/>
		</g>
	</g>
	<g class="st1">
		<g>
			<path d="M397.6,67.7c16.4,2,30.6,11.2,40.2,24.4c9.7,13.4,15,29.8,16.8,46.1c1,9.1,0.9,18.4-0.5,27.4c-0.3,1.9,2.6,2.7,2.9,0.8
				c2.6-17,1.1-34.6-4.2-50.9c-5.2-15.9-14.3-31-28.2-40.7c-8-5.6-17.3-8.9-27-10.1C395.7,64.4,395.7,67.4,397.6,67.7L397.6,67.7z"
				/>
		</g>
	</g>
	<g class="st1">
		<g>
			<path d="M437.1,193.3c-6.8,11.9-16.9,21.4-28.3,28.7c-1.6,1-0.1,3.6,1.5,2.6c11.9-7.7,22.3-17.5,29.4-29.8
				C440.7,193.2,438.1,191.7,437.1,193.3L437.1,193.3z"/>
		</g>
	</g>
	<g class="st1">
		<g>
			<path d="M451.8,139c-1.2,15.3-4,30.6-9.9,44.8c-0.3,0.8,0.3,1.6,1,1.8c0.9,0.2,1.5-0.3,1.8-1c6.1-14.5,8.8-30,10-45.6
				C454.9,137.1,451.9,137.1,451.8,139L451.8,139z"/>
		</g>
	</g>
	<g class="st1">
		<g>
			<path d="M434.9,198.6c-9.6,8-21,13.7-33.2,16.5c-1.9,0.4-1.1,3.3,0.8,2.9c12.7-2.9,24.5-9,34.5-17.3
				C438.5,199.5,436.4,197.4,434.9,198.6L434.9,198.6z"/>
		</g>
	</g>
	<g class="st1">
		<g>
			<path d="M456.5,148.4c-1.2,20.1-11.6,38.5-25.7,52.4c-15.6,15.5-35.9,25.2-56.5,32.1c-22.5,7.5-45.9,12.4-69.2,16.5
				c-24.3,4.2-48.9,7-73.6,8.3c-24.7,1.3-49.5,1.2-74.2-0.4c-3.1-0.2-6.1-0.4-9.2-0.7c-1.9-0.2-1.9,2.8,0,3
				c25.2,2,50.4,2.4,75.7,1.4c25.1-1,50-3.6,74.8-7.6c24-3.9,48.1-8.8,71.3-16c21.2-6.6,42.1-15.7,58.8-30.6
				c14.9-13.2,26.7-31.1,30-51c0.4-2.5,0.7-5,0.8-7.5C459.6,146.5,456.6,146.5,456.5,148.4L456.5,148.4z"/>
		</g>
	</g>
	<g class="st1">
		<g>
			<path d="M349.5,239.5c-31.8,2.9-63.7,5.2-95.6,6.7c-31.9,1.6-63.8,2.4-95.8,2.6c-17.9,0.1-35.7,0-53.6-0.3c-1.9,0-1.9,3,0,3
				c31.9,0.6,63.9,0.5,95.8-0.3c31.9-0.8,63.8-2.3,95.7-4.4c17.8-1.2,35.7-2.6,53.5-4.3C351.4,242.3,351.4,239.3,349.5,239.5
				L349.5,239.5z"/>
		</g>
	</g>
	<g class="st1">
		<g>
			<path d="M286.4,238.6c-24.4,4.7-49.1,7.7-73.9,9c-24.8,1.3-49.6,1-74.4-1c-14-1.1-27.9-2.8-41.8-5.1c-1.9-0.3-2.7,2.6-0.8,2.9
				c24.8,4,49.8,6.3,75,6.8c25,0.6,50.1-0.6,75-3.4c14-1.6,27.9-3.7,41.7-6.4C289.1,241.1,288.3,238.2,286.4,238.6L286.4,238.6z"/>
		</g>
	</g>
	<g class="st1">
		<g>
			<path d="M227.5,67.7c-13,6.1-23.6,16.4-31.4,28.4c-8.1,12.5-13.2,26.7-15.9,41.3c-3.1,16.7-3.1,34,0.8,50.5
				c3.5,15,10.4,29,20.3,40.8c9.3,11,21.1,19.9,34.5,25.1c1.6,0.6,3.3,1.2,5,1.7c1.8,0.6,2.6-2.3,0.8-2.9
				c-13.3-4.2-25.1-12-34.7-22.1c-10.1-10.6-17.4-23.6-21.5-37.6c-4.7-15.8-5.6-32.7-3.3-49c2-14.6,6.5-28.9,13.8-41.8
				c6.8-12,16.3-22.6,28.4-29.5c1.5-0.9,3.1-1.7,4.7-2.4C230.7,69.5,229.2,66.9,227.5,67.7L227.5,67.7z"/>
		</g>
	</g>
	<g class="st1">
		<g>
			<path d="M217,85.3c10.4,14.6,15.3,32.2,16.4,50c0.6,9.1,0.2,18.3-0.8,27.4c-1,8.9-2.6,17.9-5,26.5c-2.6,9.5-6.7,18.9-14.1,25.6
				c-1.4,1.3,0.7,3.4,2.1,2.1c6.7-6.1,10.9-14.4,13.7-22.9c2.8-8.8,4.5-18,5.8-27.1c2.5-18.3,2.5-37.4-2.5-55.3
				c-2.7-9.9-7-19.4-13-27.8C218.5,82.2,215.9,83.7,217,85.3L217,85.3z"/>
		</g>
	</g>
	<g class="st1">
		<g>
			<path d="M185.5,83.1c17.4,0.9,34.9-0.3,52.3-1.6c17.3-1.3,34.7-2.7,52.1-2.3c17.5,0.4,34.9,2.5,52.3,4.5c8.6,1,17.2,1.9,25.9,2.9
				c8.1,0.9,16.2,1.9,24.1,4.1c13.2,3.6,26.5,11.2,32.3,24.2c0.7,1.5,1.2,3,1.6,4.5c0.5,1.9,3.4,1.1,2.9-0.8
				c-3.7-13.5-15.3-23.1-27.8-28.1c-7.6-3.1-15.8-4.6-23.9-5.8c-8.5-1.2-17-2-25.6-3c-17.7-2-35.4-4.3-53.2-5.3
				c-17.7-0.9-35.4,0.1-53.1,1.4c-17.7,1.3-35.5,2.8-53.2,2.4c-2.2-0.1-4.4-0.1-6.6-0.2C183.5,80,183.5,83,185.5,83.1L185.5,83.1z"
				/>
		</g>
	</g>
	<g class="st1">
		<g>
			<path d="M301,192.5c-9.5,0.2-19.1,0.2-28.6,0.3c-1.9,0-1.9,3,0,3c9.5,0,19.1-0.1,28.6-0.3C302.9,195.5,302.9,192.5,301,192.5
				L301,192.5z"/>
		</g>
	</g>
	<g class="st1">
		<g>
			<path d="M354.4,188.3c-10.5,1.7-21.1,2.6-31.6,3.3c-1.9,0.1-1.9,3.1,0,3c10.9-0.8,21.7-1.7,32.4-3.5
				C357.1,190.9,356.2,188,354.4,188.3L354.4,188.3z"/>
		</g>
	</g>
	<g class="st1">
		<g>
			<path d="M434.9,155.6c-15.8,10.2-32.8,18.8-50.5,25.2c-1.8,0.7-1,3.6,0.8,2.9c18-6.5,35.2-15.1,51.3-25.5
				C438,157.1,436.5,154.5,434.9,155.6L434.9,155.6z"/>
		</g>
	</g>
	<g class="st1">
		<g>
			<path d="M214,222.9c-0.9,2.2-3.4,3.4-5.7,3.3c-2.5-0.1-4.7-1.8-6-3.9c-3-4.8-2-12.7,2.3-16.3c4.3-3.6,11.1-4,16.4-4.1
				c0.4,0,1.5-0.2,1.9,0.1c0.3,0.3,0.3,1.7,0.3,2.2c0.2,1.7,0.2,3.4,0.1,5.1c-0.2,3.3-0.8,6.6-1.8,9.7c-1,3.1-2.6,5.6-5.9,6.4
				c-2.8,0.7-5.9,0.4-8.8,0c-1.9-0.3-2.7,2.6-0.8,2.9c3.3,0.5,6.7,0.9,10,0.1c3.4-0.8,6-3,7.5-6.3c1.6-3.7,2.4-7.8,2.7-11.9
				c0.1-2.1,0.1-4.2-0.1-6.3c-0.2-1.7-0.2-3.8-2-4.7c-1.6-0.8-4-0.4-5.8-0.2c-2,0.1-4,0.4-5.9,0.7c-3.3,0.6-6.7,1.6-9.4,3.7
				c-5.7,4.4-7.2,14.2-3.5,20.3c1.9,3.1,5.2,5.5,8.9,5.5c3.7,0.1,7-2.1,8.4-5.5C217.6,221.9,214.7,221.1,214,222.9L214,222.9z"/>
		</g>
	</g>
	<g class="st1">
		<g>
			<path d="M258.8,202.1c-0.4,1.3-2.1,1.5-3.2,1.6c-2.1,0.1-4.3-0.1-6.4-0.5c-4-0.7-8.3-1.7-11.8-4c-7.6-4.9-3.8-14.8-0.5-21.1
				c1.6-3.1,3.6-6.6,7.1-7.7c3.7-1.1,7.5,0.6,10.5,2.7c3.3,2.2,6.2,5.1,8.7,8.1c2.6,3,4.9,6.4,6.8,9.9c1,1.8,2.4,4.1,2,6.2
				c-0.4,1.9-2.5,2.7-4.1,3.3c-4.8,1.6-9.9,2.2-14.9,2c-1.9-0.1-1.9,2.9,0,3c5.3,0.2,10.7-0.4,15.7-2.1c1.9-0.6,3.8-1.5,5-3.1
				c1.4-1.8,1.6-4.1,1-6.3c-0.7-2.3-1.9-4.4-3.1-6.4c-1.2-2-2.6-4-4-5.9c-2.9-3.7-6.1-7.2-9.9-10.1c-3.5-2.7-8-5.1-12.6-4.6
				c-4.6,0.5-7.7,3.8-9.8,7.6c-4.2,7.4-8.9,18.8-1.2,25.7c4,3.6,10.1,5.1,15.3,5.8c3.8,0.5,11,1.7,12.4-3.4
				C262.2,201,259.3,200.2,258.8,202.1L258.8,202.1z"/>
		</g>
	</g>
	<g class="st1">
		<g>
			<path d="M294.2,224.2c-5,3.3-11,4.9-16.9,4.6c-2.8-0.1-6-0.4-7-3.5c-1-3-1.1-6.4-1.3-9.6c-0.1-3.1-0.1-6.3,0.5-9.4
				c0.2-1,0.5-2.1,1.2-2.8c1.1-1.1,2.7-0.7,4.1-0.3c5.6,1.5,11.7,4.2,15.7,8.5c2,2.2,3.2,5.1,2,7.9c-1.1,2.6-3.6,4.5-6.3,5.2
				c-1.9,0.5-1.1,3.4,0.8,2.9c6.2-1.6,10.9-8.1,8.2-14.4c-1.3-3.1-4-5.4-6.7-7.2c-3.2-2.1-6.7-3.8-10.3-5.1
				c-3.1-1.1-7.2-2.4-9.7,0.5c-2.1,2.5-2.2,6.2-2.4,9.3c-0.2,4.1,0.1,8.2,0.7,12.3c0.6,3.6,1.8,6.7,5.5,7.8
				c3.8,1.2,8.2,0.9,12.1,0.3c4-0.7,7.9-2.3,11.4-4.5C297.4,225.7,295.9,223.2,294.2,224.2L294.2,224.2z"/>
		</g>
	</g>
	<g class="st1">
		<g>
			<path d="M326.8,185.9c-2.3,8.4-12.4,10.1-19.7,10.6c-2,0.1-4.2,0.1-5.7-1.4c-1.4-1.4-2.3-3.4-3-5.1c-1.6-4-2.3-8.4-2-12.7
				c0.3-3.9,1.8-7.7,5.6-9.3c3.5-1.5,7.6-1.2,11.3-0.6c4.3,0.7,8.6,2.1,12.5,4.1c3,1.6,7.2,3.9,7.4,7.8c0.2,4.5-4.6,8-7.9,10.2
				c-2,1.3-4.1,2.5-6.3,3.5c-2.2,1-4.8,2.2-7.2,1.3c-1.8-0.6-2.6,2.3-0.8,2.9c2.5,0.9,5.2,0.2,7.6-0.8c2.3-0.9,4.6-2.1,6.8-3.4
				c4-2.5,8.4-5.6,10.2-10.2c4.1-10.2-10.6-15.8-18-17.6c-4.5-1.1-9.5-1.8-14.2-0.8c-4.6,1-8,4.2-9.3,8.7
				c-1.4,4.7-0.9,10.1,0.5,14.8c1.2,4.2,3.4,9.8,8.1,11.1c2.7,0.8,5.7,0.3,8.4,0c3-0.4,5.9-0.9,8.6-2c4.6-1.9,8.7-5.4,10-10.4
				C330.3,184.9,327.4,184.1,326.8,185.9L326.8,185.9z"/>
		</g>
	</g>
	<g class="st1">
		<g>
			<path d="M349,220.2c-7.5,1.3-16,2.5-22.5-2.2c-2.6-1.9-4.5-4.7-4.8-7.9c-0.3-3.3,0.9-6.4,3.8-8.2c3.3-2,7.4-2,11.1-2.1
				c3.8-0.1,7.7-0.1,11.5,0.8c6.2,1.4,12.7,6.1,12.7,13c0.1,8.9-10.6,11.4-17.4,12.8c-1.9,0.4-1.1,3.3,0.8,2.9
				c7.6-1.6,17.5-4.3,19.3-13.2c1.6-7.9-4.6-14.9-11.6-17.5c-4.1-1.5-8.6-1.9-13-1.9c-4.4,0-9.2,0-13.4,1.7
				c-3.7,1.6-6.3,4.7-6.9,8.7c-0.5,3.7,0.6,7.5,3,10.4c6.8,8.4,18.7,7.1,28.1,5.5C351.7,222.8,350.9,219.9,349,220.2L349,220.2z"/>
		</g>
	</g>
	<g class="st1">
		<g>
			<path d="M366.1,193.9c-7.4,0-10.4-8-10.7-14.2c-0.3-5.5,0.6-12.3,5.2-16c5.6-4.6,13.4-1.2,18.9,1.7c2.4,1.3,5.2,2.9,6.4,5.6
				c1.4,3.2-0.9,6.6-2.5,9.2c-3.5,5.6-8.2,11.4-15.1,12.6c-1.9,0.3-1.1,3.2,0.8,2.9c7.3-1.3,12.4-7.2,16.3-13.1
				c2.1-3.2,4.5-6.9,3.9-10.9c-0.6-3.5-3.4-6.1-6.3-7.9c-6.3-4-15.5-7.9-22.6-3.7c-6,3.5-7.9,11.2-7.9,17.7c0,4.5,0.7,9.3,3.4,13.1
				c2.4,3.4,6.2,5.8,10.4,5.8C368,196.9,368,193.9,366.1,193.9L366.1,193.9z"/>
		</g>
	</g>
	<g class="st1">
		<g>
			<path d="M410.2,201.8c-4-0.4-8,1.4-12,0.6c-3.3-0.6-6.1-2.8-8-5.4c-2.3-3.2-3.5-6.9-4.3-10.7c-0.4-1.7-0.9-3.8-0.1-5.5
				c0.6-1.3,1.9-2.2,3.2-2.7c3.3-1.4,7.2-1.8,10.7-2.3c2.1-0.3,4.2-0.6,6.3-0.7c1.3-0.1,3.1-0.1,4.1,0.9c1.2,1.2,1.2,3.7,1.3,5.3
				c0.2,2.1,0.4,4.3,0.4,6.4c0.1,3.9,0,8-0.7,11.9c-0.6,3.1-1.7,6.7-4.5,8.5c-3.7,2.3-8.3,0.7-12-0.5c-1.8-0.6-2.6,2.3-0.8,2.9
				c4.1,1.3,8.7,2.7,12.8,1c3.5-1.4,5.6-4.5,6.7-8c1.3-4.1,1.5-8.6,1.6-12.8c0-2.5,0-4.9-0.2-7.4c-0.2-2.3-0.2-4.9-1-7.1
				c-1.5-4.2-6-4.2-9.7-3.8c-4.6,0.4-9.5,1-13.9,2.3c-3.6,1-7,3.2-7.5,7.2c-0.3,2.2,0.3,4.5,0.8,6.6c0.5,2.2,1.2,4.3,2.2,6.4
				c1.9,4.2,5.1,8,9.4,9.8c2.3,0.9,4.6,1.2,7.1,1c2.8-0.3,5.4-0.9,8.2-0.7C412.1,205,412.1,202,410.2,201.8L410.2,201.8z"/>
		</g>
	</g>
	<g class="st1">
		<g>
			<path d="M136.1,125c-6.8-7.2-17.4-8.5-26.2-4.6c-2.3,1-4.3,2.3-6.3,3.9c-1.9,1.6-3.6,3.5-5.7,4.9c-4,2.9-8.8,4.4-13.7,4.9
				c-6.3,0.6-12.6-0.2-18.8-1c-1-0.1-2.3,0.6-1.8,1.8c4.7,13.2,18.6,22.2,32.6,20.8c-0.5-0.5-1-1-1.5-1.5c-1.3,11.3-2.4,23,2.2,33.7
				c2.1,4.9,5.5,9,9.7,12.3c4.1,3.2,8.8,6.2,14,7.2c4.7,0.9,9.5,0,13.3-3c3.5-2.7,5.9-6.6,7.4-10.7c1.9-5.1,2.1-10.6,2.2-15.9
				c0.1-6,0.1-12.1,0.1-18.1c-0.1-6.2,0-12.5-0.9-18.7c-0.7-5.6-2.3-11.2-5.7-15.8c-1.1-1.5-3.7,0-2.6,1.5
				c5.8,7.9,5.9,18.2,6.1,27.6c0.1,5.6,0.1,11.3,0.1,16.9c0,5.6,0.2,11.4-0.9,16.9c-1.4,7.7-6.4,16.4-15.2,16.6
				c-5,0.1-9.7-2.3-13.7-5.1c-4.1-2.8-7.7-6.3-10.1-10.7c-5.8-10.6-4.4-23.3-3.1-34.8c0.1-0.8-0.8-1.6-1.5-1.5
				c-12.6,1.3-25.4-6.6-29.7-18.6c-0.6,0.6-1.2,1.2-1.8,1.8c10.1,1.4,20.8,2.7,30.4-1.7c2.2-1,4.2-2.3,6-3.8
				c1.9-1.6,3.6-3.5,5.7-4.9c3.8-2.8,8.5-4.5,13.3-4.4c5.2,0,10.3,2.2,13.9,6C135.3,128.5,137.4,126.4,136.1,125L136.1,125z"/>
		</g>
	</g>
	<g class="st1">
		<g>
			<path d="M79.5,57c-0.7-8.3,4.4-16,8.4-22.9c3.8-6.4,8.1-12.9,14.7-16.6c3.6-2.1,7.6-3.2,11.7-4c4-0.8,8.1-1.5,12.2-1.7
				c4.2-0.2,8,0.6,11.1,3.6c2.8,2.7,4.8,6.3,6.5,9.7c4.2,8.3,6.3,17.7,6.1,27c0.9-0.4,1.7-0.7,2.6-1.1c-8.7-8.5-18-17.4-30.3-20.2
				c-5.8-1.3-11.9-1.2-17.4,1.1c-5.6,2.3-10,6.6-14.1,10.8C85.5,48.4,80.1,54,74.6,59.7c-1.3,1.4,0.8,3.5,2.1,2.1
				c4.7-4.8,9.3-9.7,14-14.5c4-4.1,7.9-8.5,12.9-11.3c10.3-5.9,22.6-2.3,31.9,4c5.5,3.8,10.4,8.5,15.1,13.2c0.9,0.9,2.5,0.2,2.6-1.1
				c0.2-8.9-1.7-17.8-5.3-25.9c-3.3-7.5-8.2-16-17.1-17.2c-4.4-0.6-8.9,0.3-13.2,1c-4.4,0.7-8.9,1.6-13.1,3.3
				c-7.7,3.2-13.1,9.5-17.5,16.5c-2.5,4-4.9,8.2-7,12.5c-2.3,4.6-4,9.6-3.5,14.8C76.6,58.9,79.6,58.9,79.5,57L79.5,57z"/>
		</g>
	</g>
	<g class="st1">
		<g>
			<path d="M194.4,214.9c-6.2,4-13.7,4.8-20.8,5.7c-8.4,1-16.8,2-25.1,3c-1.3,0.2-2.2,2.1-0.8,2.8c15.4,7.5,33,9.9,49.9,6.9
				c4.8-0.8,9.5-2.1,14-3.9c1.8-0.7,1-3.6-0.8-2.9c-15.4,5.8-32.5,6.6-48.4,2.3c-4.6-1.2-9-2.9-13.2-5c-0.3,0.9-0.5,1.9-0.8,2.8
				c8.7-1,17.4-2.1,26.1-3.1c7.4-0.9,15-1.9,21.4-6C197.5,216.4,196,213.8,194.4,214.9L194.4,214.9z"/>
		</g>
	</g>
	<g class="st1">
		<g>
			<path d="M143.8,238.6c-5.8,3-7.9,10.8-6.6,16.8c0.4,1.9,3.3,1.1,2.9-0.8c-1-4.8,0.7-11,5.3-13.4
				C147,240.3,145.5,237.7,143.8,238.6L143.8,238.6z"/>
		</g>
	</g>
	<g class="st1">
		<g>
			<path d="M135.8,240.9c-1.9,5.7-1.9,11.9-0.2,17.6c0.6,1.8,3.5,1.1,2.9-0.8c-1.6-5.2-1.5-10.8,0.2-16
				C139.3,239.8,136.4,239.1,135.8,240.9L135.8,240.9z"/>
		</g>
	</g>
	<g class="st1">
		<g>
			<path d="M134.9,259.2c10.3,18.8,30.8,29.4,50.6,35.2c21.6,6.3,44.4,6.8,66.6,4.5c12.7-1.3,25.3-3.5,37.8-6.1
				c1.9-0.4,1.1-3.3-0.8-2.9c-21.7,4.4-43.7,7.8-65.9,7.2c-21.6-0.6-43.4-5.4-62.3-16.3c-9.7-5.6-18.1-13.2-23.5-23.1
				C136.5,256,133.9,257.5,134.9,259.2L134.9,259.2z"/>
		</g>
	</g>
	<g class="st1">
		<g>
			<path d="M260.3,305.2c15.4,0.6,30-6.1,41.1-16.5c3.5-3.3,6.6-6.9,9.4-10.8c1.1-1.6-1.5-3.1-2.6-1.5
				c-8.7,12.1-21.3,21.8-36.1,24.9c-3.9,0.8-7.8,1.1-11.7,1C258.3,302.1,258.3,305.1,260.3,305.2L260.3,305.2z"/>
		</g>
	</g>
	<g class="st1">
		<g>
			<path d="M316.4,242.3c4,6.9,4.6,15.9,3.8,23.7c-0.2,1.9,2.8,1.9,3,0c0.5-4.6,0.3-9.3-0.5-13.8c-0.7-3.9-1.8-7.9-3.8-11.3
				C318,239.1,315.4,240.7,316.4,242.3L316.4,242.3z"/>
		</g>
	</g>
	<g class="st1">
		<g>
			<path d="M134,256.3c-4.9,5.1-5.5,12.8-4,19.4c1.7,7.6,6.8,13.6,13,18.1c3.2,2.3,6.6,4.1,10.1,5.9c4.2,2.2,8.4,4.2,12.7,6.2
				c8.5,3.9,17.3,7.4,26.1,10.5c17.7,6.1,36.1,11,54.7,13.3c17.4,2.2,35.6,1.3,51.6-6.4c13.5-6.4,24.9-17.2,31.7-30.5
				c0.9-1.8,1.7-3.6,2.4-5.4c0.7-1.8-2.2-2.6-2.9-0.8c-5.5,13.4-15.6,24.6-28.2,31.7c-14.3,8.1-30.9,10.3-47.1,9.1
				c-9.2-0.7-18.3-2.3-27.2-4.3c-8.6-1.9-17.2-4.2-25.6-6.8c-17-5.3-33.7-12.2-49.4-20.6c-6.6-3.5-13-7.8-16.7-14.5
				c-3.1-5.5-4.1-13.1-1.5-19c0.6-1.4,1.4-2.7,2.5-3.8C137.5,257,135.4,254.9,134,256.3L134,256.3z"/>
		</g>
	</g>
	<g class="st1">
		<g>
			<path d="M333.6,287c0.8-4,1.5-8.3,0.1-12.2c-1.1-3.2-3.5-6.2-6.9-6.9c-1.9-0.4-2.7,2.5-0.8,2.9c2.6,0.5,4.2,2.9,5,5.3
				c1,3.3,0.4,6.9-0.3,10.2C330.3,288.1,333.2,288.9,333.6,287L333.6,287z"/>
		</g>
	</g>
	<g class="st1">
		<g>
			<path d="M346,324.7c-5.1,0-10.2,0-15.3,0c-1.9,0-1.9,3,0,3c5.1,0,10.2,0,15.3,0C348,327.7,348,324.7,346,324.7L346,324.7z"/>
		</g>
	</g>
	<g class="st1">
		<g>
			<path d="M331.6,289.7c-6.2,12.9-14.7,25-25.9,34.1c-5.3,4.3-11.2,7.9-17.7,10.3c-7.6,2.8-15.8,3.3-23.8,3.5
				c-9,0.2-18.1-0.3-27-1.2c-4.6-0.5-9.1-1-13.7-1.6c-2.2-0.3-4.5-0.2-6.7-0.2c-0.9,0-1.8,0-2.7-0.3c-1-0.3-1.9-0.7-2.8-1
				c-1.9-0.6-4-0.6-6-0.8c-2.2-0.3-4.4-0.5-6.6-0.9c-4.3-0.6-8.6-1.4-12.9-2.3c-8.5-1.8-16.9-4.2-25.1-7.2
				c-13.6-4.9-24.9-15.8-32.5-27.8c-1-1.6-2-3.2-2.9-4.9c0,0.5,0,1,0,1.5c2.7-4.7,6.5-8.5,10.3-12.3c1.4-1.4-0.8-3.5-2.1-2.1
				c-3,3-6,6-8.5,9.5c-0.7,0.9-1.3,1.8-1.8,2.8c-0.7,1.2-0.5,1.8,0.1,3c1,1.8,2.1,3.6,3.3,5.4c4.4,6.7,9.8,12.7,16.1,17.7
				c3,2.4,6.3,4.6,9.7,6.5c3.8,2.1,7.8,3.6,12,5c9.1,3.1,18.5,5.4,27.9,7.1c4.7,0.8,9.5,1.5,14.3,2.1c1.1,0.1,2.2,0.1,3.3,0.4
				c1,0.2,2,0.7,3,1.1c2.2,0.8,4.4,0.6,6.7,0.6c5.1,0,10.1,1,15.1,1.5c4.9,0.5,9.8,1,14.7,1.3c10,0.6,20.1,0.4,30.1-0.9
				c7.4-1,14.7-4.2,21-8.1c13.4-8.4,23.7-21.1,31.2-34.8c1-1.8,1.9-3.5,2.7-5.4C335,289.4,332.4,287.9,331.6,289.7L331.6,289.7z"/>
		</g>
	</g>
	<g class="st1">
		<g>
			<path d="M123.7,300.4c-0.7,6.9-1.5,14.6,2,21c3.2,5.9,9.5,8.9,15.4,11.5c14.1,6.2,29.1,10.3,44.3,12.7c15.2,2.4,30.6,3.2,46,3.3
				c15.7,0,31.4-0.6,46.4-5.4c13.7-4.4,26.5-11.5,37.7-20.5c1.4-1.1,2.8-2.3,4.2-3.5c1.5-1.3-0.7-3.4-2.1-2.1
				c-10.6,9.3-22.8,16.9-36,21.7c-6.5,2.4-13.2,4.1-20,5.2c-7.9,1.2-15.9,1.5-23.9,1.6c-29.6,0.3-59.8-2-87.8-12.5
				c-3.9-1.5-7.8-3.1-11.6-4.9c-3-1.5-5.8-3.2-8.1-5.6c-5.4-6-4.3-14.9-3.5-22.3C126.9,298.5,123.9,298.5,123.7,300.4L123.7,300.4z"
				/>
		</g>
	</g>
	<g class="st1">
		<g>
			<path d="M330.4,321.9c2.6,2.3,5.5,4.3,8.6,5.6c0.7,0.3,1.6,0.2,2.1-0.5c0.3-0.6,0.2-1.7-0.5-2.1c-1.5-0.7-2.9-1.4-4.3-2.3
				c-0.7-0.4-1.3-0.9-2-1.4c-0.2-0.2,0.3,0.2-0.1-0.1c-0.1-0.1-0.2-0.1-0.2-0.2c-0.2-0.1-0.3-0.2-0.5-0.4c-0.3-0.3-0.7-0.6-1-0.9
				c-0.6-0.5-1.6-0.6-2.1,0C329.9,320.3,329.8,321.3,330.4,321.9L330.4,321.9z"/>
		</g>
	</g>
	<g class="st1">
		<g>
			<path d="M135.7,343c6.7,8.9,15.3,16.1,25,21.3c4.7,2.5,9.6,4.3,14.5,6.1c3.1,1.1,6.1,2.6,9.2,3.5c3.8,1.1,8.1,0.9,12,1
				c-0.5-0.6-1-1.3-1.4-1.9c-4.9,21.8-4.1,44.5-5.3,66.7c-0.3,5.6-0.7,11.2-1.3,16.7c-0.6,5.2-1.2,10.5-2.7,15.5
				c-0.2,0.6-0.3,1.2-0.9,1.4c-0.4,0.2-1,0.1-1.5,0.1c-1.4,0-2.9-0.1-4.3-0.4c-2.6-0.5-5.1-1.3-7.5-2.3c-5.1-2.2-9.9-5-14.9-7.4
				c-10-4.6-13.2-16-16.7-25.6c-0.6-1.8-3.5-1-2.9,0.8c3.2,9.1,6.3,19.6,14.6,25.4c2.1,1.5,4.5,2.4,6.8,3.5c2.6,1.3,5.2,2.7,7.9,4
				c5,2.5,10.2,4.5,15.8,4.8c1.3,0.1,2.7,0.2,3.9-0.3c1.4-0.5,2.1-1.7,2.6-3c0.8-2.6,1.2-5.3,1.6-8c1-5.7,1.6-11.4,2-17.1
				c0.9-11.8,1.1-23.7,1.6-35.6c0.5-12.9,1.3-26,4.1-38.6c0.2-1-0.4-1.9-1.4-1.9c-3.4-0.1-7.2,0.1-10.4-0.7
				c-2.6-0.6-5.1-1.9-7.7-2.9c-4.8-1.8-9.6-3.4-14.2-5.7c-4.7-2.3-9.1-5.1-13.2-8.3c-4.7-3.7-9-8.1-12.7-12.9
				C137.1,340,134.5,341.5,135.7,343L135.7,343z"/>
		</g>
	</g>
	<g class="st1">
		<g>
			<path d="M331,317.8c-11.7,0.8-20.8,10.4-24.1,21.2c-2.1,6.9-2,14.3-0.9,21.4c1,6.8,2.9,13.7,5.5,20.1c2.2,5.5,5.7,11.3,11.4,13.6
				c3.2,1.3,6.4,0.8,9-1.3c2.5-2,4.4-4.8,6.2-7.5c7.1-10.8,10.3-24.1,8.8-36.9c-1.7-14-8.8-27.1-19.6-36.2c-1.5-1.2-3.6,0.9-2.1,2.1
				c8.8,7.4,15.1,17.5,17.7,28.6c2.7,11.5,1.3,23.9-3.8,34.6c-1.3,2.7-2.8,5.2-4.5,7.7c-1.6,2.2-3.5,5.1-6.1,6.3
				c-2.8,1.2-5.8-0.5-7.8-2.3c-2.1-1.9-3.7-4.2-5-6.7c-2.7-5.4-4.4-11.5-5.7-17.4c-1.5-6.6-2.3-13.5-1.3-20.2
				c1.7-11.4,10-23.3,22.3-24.2C332.9,320.7,332.9,317.7,331,317.8L331,317.8z"/>
		</g>
	</g>
	<g class="st1">
		<g>
			<path d="M331.2,359.4c6.6,10.8,11.5,22.5,16.8,33.9c2.6,5.6,5.2,11.3,8.6,16.5c2.2,3.4,3.9,7.2,6.4,10.4c2.4,3,5.6,5.3,9.6,4.6
				c1.4-0.3,2-1,2.9-2c1.2-1.3,2.3-2.5,3.5-3.8c2.1-2.3,4.3-4.7,6.4-7.1c8.5-9.5,16.7-19.1,24.6-29c9-11.2,17.6-22.7,25.9-34.4
				c1.1-1.6-1.5-3.1-2.6-1.5c-14.1,20.2-29.5,39.5-45.7,58c-4,4.6-8.1,9.2-12.3,13.7c-0.5,0.6-1.1,1.1-1.6,1.7
				c-0.3,0.4-1,1.2-1.2,1.4c-0.6,0.4-1.7,0.2-2.3,0.1c-1.6-0.3-3-1.4-4-2.6c-2.6-2.8-4.3-6.4-6.2-9.7c-2.9-4.9-5.5-9.8-8-14.9
				c-5.9-12.4-11-25.1-18.2-36.9C332.8,356.2,330.2,357.7,331.2,359.4L331.2,359.4z"/>
		</g>
	</g>
	<g class="st1">
		<g>
			<path d="M436.4,346.8c-3.3,0.8-7.2,1.5-10.4-0.2c-2.3-1.2-3.6-3.8-3.3-6.4c0.1-0.9,0.5-2,1.3-2.6c1.3-1,3.2-0.7,4.8-0.2
				c2,0.6,3.9,1.5,5.7,2.4c1.5,0.7,3.3,1.5,4.3,2.9c1,1.5,0.4,3.3-0.8,4.5c-1.5,1.5-3.7,2-5.7,2.5c-1.9,0.5-1.1,3.4,0.8,2.9
				c2.3-0.6,4.7-1.3,6.5-2.9c1.7-1.4,2.8-3.8,2.6-6c-0.3-2.4-1.9-4.1-3.9-5.3c-2.2-1.3-4.5-2.4-6.9-3.3c-2.3-0.9-4.9-1.7-7.4-0.9
				c-1.9,0.6-3.2,1.9-3.9,3.7c-1.3,3.2-0.2,7.5,2.4,9.8c3.9,3.6,9.8,3.1,14.6,1.8C439.1,349.2,438.3,346.3,436.4,346.8L436.4,346.8z
				"/>
		</g>
	</g>
	<g class="st1">
		<g>
			<path d="M126.3,323.3c-2.8,8.7-3.8,18-3,27.2c0.8,8.2,2.8,16.6,7.2,23.7c2.3,3.7,5.3,7,9,9.4c1.6,1.1,3.1-1.5,1.5-2.6
				c-6.1-4-9.9-10.7-12.1-17.6c-2.6-8-3.4-16.5-2.7-24.9c0.4-4.9,1.4-9.7,2.9-14.4C129.8,322.3,126.9,321.5,126.3,323.3L126.3,323.3
				z"/>
		</g>
	</g>
	<g class="st1">
		<g>
			<path d="M129.6,373.6c-8.6,7.7-17.1,15.4-25.7,23c-7.7,6.7-16,12.3-25.3,16.5c-5.4,2.4-11,4.4-16.7,6c-1.9,0.5-1.1,3.4,0.8,2.9
				c10-2.8,19.7-6.8,28.6-12.3c9.4-5.7,17.3-13.3,25.4-20.6c5-4.5,10-9,15-13.4C133.1,374.4,131,372.3,129.6,373.6L129.6,373.6z"/>
		</g>
	</g>
	<g class="st1">
		<g>
			<path d="M62.6,420.9c-2.2,0.6-4.7,0.5-6.7-0.5c-0.9-0.5-1.6-1-2.1-1.8c-0.1-0.1-0.1-0.3-0.2-0.5c0-0.1-0.1-0.2-0.1-0.3
				c0,0.2,0,0,0-0.1c0-0.6,0-0.7,0.2-1.3c0.1-0.1,0.4-0.7,0.6-0.9c0.4-0.4,0.8-0.8,1.3-1.1c1-0.6,2.1-0.9,3.2-0.9
				c1.2-0.1,2.4,0,3.6,0.3c1,0.3,2,0.7,2.7,1.4c0.8,0.8,1.3,1.8,0.9,2.8c-0.5,1.2-2,1.8-3.2,1.8c-1.9,0.1-1.9,3.1,0,3
				c1.8-0.1,3.8-0.8,5-2.2c1.2-1.4,1.7-3.3,1.1-5.1c-1.2-3.4-4.9-4.8-8.2-5.1c-3.3-0.2-6.9,0.7-8.9,3.5c-1.9,2.6-1.5,6,1,8.1
				c2.9,2.4,7.2,3,10.7,1.9C65.2,423.2,64.5,420.3,62.6,420.9L62.6,420.9z"/>
		</g>
	</g>
	<g class="st1">
		<g>
			<path d="M61,410.5c-14.3-4-28.2-11.2-38.2-22.4c-0.6-0.7-2-0.6-2.4,0.3c-3.3,7.5-1.9,15.9,3,22.4c5.2,6.8,13.4,10.8,21.5,12.8
				c5.1,1.3,10.4,1.8,15.6,1.5c1.9-0.1,1.9-3.1,0-3c-8.2,0.4-16.6-1.1-23.9-4.7c-6.6-3.3-12.6-8.5-14.5-15.9
				c-1-3.8-0.7-7.9,0.9-11.6c-0.8,0.1-1.6,0.2-2.4,0.3c10.3,11.6,24.8,19,39.5,23.1C62,413.9,62.8,411,61,410.5L61,410.5z"/>
		</g>
	</g>
	<g class="st1">
		<g>
			<path d="M69.3,409.9c-6.2-2.8-8-9.4-12-14.3c-4.5-5.6-10.9-9.5-15.1-15.5c-0.8-1.2-2.7-0.8-2.8,0.8c-0.2,5.4-0.9,11,0.3,16.3
				c1,4.5,3.5,8.2,7.2,10.9c1.6,1.2,3-1.5,1.5-2.6c-7.9-5.8-6.3-16.1-6-24.7c-0.9,0.3-1.9,0.5-2.8,0.8c4.3,6.2,10.8,10.3,15.5,16.1
				c2,2.5,3.4,5.4,5.1,8.1c1.9,2.9,4.3,5.3,7.5,6.7C69.5,413.2,71.1,410.7,69.3,409.9L69.3,409.9z"/>
		</g>
	</g>
	<g class="st1">
		<g>
			<path d="M68.9,419.2c-5.5,8.3-12.2,15.7-19.8,22.2c0.9,0.4,1.7,0.7,2.6,1.1c0.8-6.8,4.8-12.7,9.9-17.1c1.5-1.3-0.7-3.4-2.1-2.1
				c-5.7,5-9.9,11.6-10.7,19.3c-0.2,1.4,1.7,1.8,2.6,1.1c7.8-6.7,14.7-14.3,20.3-22.8C72.6,419.1,70,417.6,68.9,419.2L68.9,419.2z"
				/>
		</g>
	</g>
	<g class="st1">
		<g>
			<path d="M430.6,349.5c-9.3-2-18.7-3.3-28.2-3.6c-2.3-0.1-4.7-0.1-7-0.1c-0.4,0-0.6-0.2-0.4,0.3c0.3,0.6,0.1,0.2,0.3,0
				c0.3-0.3,0.5-0.8,0.8-1.1c0.6-0.7,1.3-1.3,2.1-1.9c2.8-2.1,6.3-3.2,9.8-3.2c4-0.1,8,1.2,11.1,3.7c1.5,1.2,3.6-0.9,2.1-2.1
				c-6.6-5.4-16.2-6.1-23.5-1.7c-1.9,1.1-3.7,2.6-4.9,4.5c-0.5,0.8-1,1.8-0.7,2.8c0.3,1.1,1.3,1.6,2.3,1.7c2.6,0.3,5.4,0,8.1,0.1
				c2.8,0.1,5.6,0.3,8.4,0.5c6.3,0.6,12.5,1.6,18.7,2.9C431.7,352.8,432.5,349.9,430.6,349.5L430.6,349.5z"/>
		</g>
	</g>
	<g class="st1">
		<g>
			<path d="M440.1,349.2c7.5-1.8,14.4-5.3,20.4-10.2c3-2.5,6-5.3,8.2-8.6c2.4-3.6,3.1-7.6,2.7-11.9c-0.5-4.9-1.8-9.7-3.8-14.2
				c-0.6-1.3-2.3-0.7-2.7,0.4c-1.3,3.5-3.5,6.6-5.7,9.6c-2,2.8-4,5.5-6.2,8.1c-4.3,5.1-9.3,9.9-15.6,12.4c-1.8,0.7-1,3.6,0.8,2.9
				c6.8-2.6,12.3-7.6,16.9-13.1c2.3-2.8,4.5-5.8,6.7-8.8c2.3-3.3,4.6-6.5,6-10.3c-0.9,0.1-1.8,0.2-2.7,0.4c1.6,3.6,2.8,7.6,3.2,11.5
				c0.5,4,0.3,7.7-1.9,11.2c-1.9,2.9-4.5,5.5-7.1,7.7c-2.7,2.3-5.6,4.3-8.7,5.9c-3.5,1.9-7.2,3.2-11.1,4.2
				C437.4,346.8,438.2,349.7,440.1,349.2L440.1,349.2z"/>
		</g>
	</g>
	<g class="st1">
		<g>
			<path d="M426.3,337.7c2.8-4.2,5.3-8.5,7.7-12.9c2.3-4.3,4.5-8.8,6-13.4c3-9.2,3.3-19.2,1.2-28.7c-0.7,0.6-1.5,1.1-2.2,1.7
				c11.4,7.3,17.5,21.4,15.9,34.7c-0.2,1.9,2.8,1.9,3,0c1.7-14.4-5.2-29.4-17.4-37.3c-1.2-0.7-2.5,0.5-2.2,1.7
				c2.1,9.1,1.6,18.7-1.3,27.5c-1.5,4.4-3.6,8.6-5.8,12.7c-2.3,4.3-4.8,8.4-7.5,12.5C422.7,337.8,425.3,339.3,426.3,337.7
				L426.3,337.7z"/>
		</g>
	</g>
	<g class="st1">
		<g>
			<path d="M61,413.5c1.7-0.8,3.6-1.5,5.5-1.7c1.6-0.2,3.5,0,4.6,1.2c0.4,0.4,0.7,0.9,0.8,1.5c0.1,0.9-0.2,1.8-0.6,2.5
				c-0.7,1.3-1.8,2.3-3.3,2.7c-1.9,0.5-1.1,3.4,0.8,2.9c3.6-1,6.5-4.7,6-8.5c-0.3-1.8-1.4-3.4-3-4.3c-1.8-1-3.8-1.2-5.8-0.9
				c-2.3,0.3-4.4,1.2-6.6,2.1c-0.7,0.3-0.9,1.4-0.5,2.1C59.4,413.8,60.3,413.9,61,413.5L61,413.5z"/>
		</g>
	</g>
	<g class="st1">
		<g>
			<path d="M320.9,482.9c-2.9-7.3-0.2-15.7,5.8-20.5c1.6-1.3,3.8-2.8,6-2.2c1.8,0.5,3,2.3,3.7,4c1.2,3.3,1,7.1-0.1,10.4
				c-1.2,3.5-3.4,6.7-6.3,9.1c-1.5,1.2-3.1,2.2-4.8,3c-0.8,0.4-2.2,1.1-3.1,0.8c-0.8-0.3-1.1-1.3-1.3-2.1c-1.4-5-0.1-10.5,1.4-15.3
				c1.1-3.5,2.3-8.9,6.5-9.9c4.7-1.1,8.6,2.8,9.5,7.1c1,4.6,0,10.5-3.4,13.9c-1.4,1.4,0.7,3.5,2.1,2.1c3.8-3.7,5-9.7,4.5-14.8
				c-0.5-5.2-3.6-9.9-9-11.1c-2.4-0.5-5-0.3-7.1,1.1c-2.1,1.4-3.4,3.6-4.3,5.9c-2.2,5.5-4.1,11.9-3.7,17.9c0.2,2.5,0.5,5.6,2.5,7.3
				c2.2,1.9,5.1,0.6,7.4-0.4c4.2-2,7.9-5.4,10.2-9.5c2.3-4,3.3-8.6,2.6-13.1c-0.7-4.5-3.6-9.9-9-9.3c-3,0.3-5.6,2.4-7.7,4.4
				c-1.9,1.9-3.5,4.1-4.7,6.6c-2.2,4.9-2.6,10.6-0.6,15.7C318.7,485.4,321.6,484.7,320.9,482.9L320.9,482.9z"/>
		</g>
	</g>
	<g class="st1">
		<g>
			<path d="M304.4,469.6c-2.5-17.9,11.6-39.1,31.3-36.3c8.8,1.3,15.2,8.3,17.7,16.6c1.5,4.9,1.8,10.1,1.9,15.2
				c0.1,4.6-0.1,9.3-0.6,13.9c-1,9.1-3.6,18.2-8.9,25.8c-4.7,6.6-11.9,11.6-19.6,13.9c-3.9,1.2-8,1.7-12.1,1.3
				c-4.2-0.4-8.9-1.7-12.1-4.7c-3.4-3.1-4.5-7.7-5.7-12c-1.4-5-2.8-10.1-3.8-15.2c-1.9-9.7-2.2-20.1,1.9-29.3
				c3.5-7.6,9.5-13.9,16.7-18.1c1.8-1.1,3.8-2,5.8-2.8c1.8-0.7,1-3.6-0.8-2.9c-8.6,3.4-16.2,9.2-21.4,17c-5.8,8.7-7.3,19.2-6.3,29.4
				c0.6,5.6,1.8,11.2,3.2,16.6c1.3,4.9,2.4,10.1,4.7,14.6c4.4,8.8,15.5,11.3,24.5,10.2c8.9-1.1,17.4-5.5,23.7-11.9
				c6.8-6.9,10.6-16.2,12.3-25.6c0.9-5,1.3-10.1,1.4-15.2c0.1-5.3,0-10.6-0.8-15.9c-1.5-9.5-6.7-18.7-16-22.4
				c-9-3.7-19.7-1.1-27.1,4.9c-7.6,6.1-12.1,15.9-13,25.5c-0.3,2.7-0.2,5.5,0.2,8.2C301.7,472.3,304.6,471.4,304.4,469.6
				L304.4,469.6z"/>
		</g>
	</g>
	<g class="st1">
		<g>
			<path d="M299.7,480.2c-1.5,7.1,0.3,14.6,4.6,20.5c2.2,3,4.8,5.6,7.9,7.6c3.5,2.3,7.9,4.4,12.1,3.3c1.9-0.5,1.1-3.4-0.8-2.9
				c-3.6,0.9-7.6-1.5-10.4-3.4c-2.6-1.8-4.9-4.1-6.6-6.7c-3.5-5.1-5.2-11.5-3.9-17.6C303,479.1,300.1,478.3,299.7,480.2L299.7,480.2
				z"/>
		</g>
	</g>
	<g class="st1">
		<g>
			<path d="M137.8,425c-9.8,3.7-17,11.6-20.7,21.2c-2,5.4-2.9,11.1-3.3,16.8c-0.5,6.3-0.3,12.7,0.4,19c0.6,5.5,1.6,11.1,4.2,16.1
				c2.2,4.2,5.6,7.7,9.5,10.3c8.2,5.6,18.7,7.7,28.5,6.5c11.2-1.4,22-6.9,29.2-15.6c1.2-1.5-0.9-3.6-2.1-2.1
				c-12,14.5-34.1,19.5-50.9,10.5c-3.7-2-7.2-4.6-9.7-8.1c-3.1-4.2-4.5-9.2-5.2-14.2c-0.9-5.6-1.2-11.4-1.1-17.1
				c0.1-5.5,0.6-11,1.9-16.4c2.7-10.7,9.6-20.1,20.1-24.1C140.4,427.2,139.6,424.3,137.8,425L137.8,425z"/>
		</g>
	</g>
	<g class="st1">
		<g>
			<path d="M138.1,448.2c-2,5.1-2.4,11-2.7,16.4c-0.4,5.4,0,10.9,2.2,15.9c2,4.6,5.4,9.1,9.4,12.2c4.4,3.5,9.7,3.9,15.2,4.2
				c5.9,0.3,12.4,0.3,17.1-3.8c1.5-1.3-0.7-3.4-2.1-2.1c-3.7,3.2-9.1,3.2-13.7,3c-4.8-0.2-10-0.3-14-3.2c-3.6-2.7-6.7-6.8-8.6-10.8
				c-2.2-4.5-2.5-9.5-2.3-14.5c0.3-5.5,0.6-11.4,2.7-16.5C141.7,447.2,138.8,446.4,138.1,448.2L138.1,448.2z"/>
		</g>
	</g>
</g>
<g id="Lineart">
	<path class="st4" d="M98.8,367c0,0,0.6-27.9,3.5-45.3c0,0-28,31.5-11.2,59.7L98.8,367z"/>
	<path class="st4" d="M88.1,365.2c0,0-5.1-26.7-5.1-43.7c0,0-29.8,34.4-1.9,58.7L88.1,365.2z"/>
	<path class="st4" d="M92.4,387l-27.8,10.5c0,0,1.4-16.6,14.4-19.3l13.4,5C94.1,383.8,94.1,386.3,92.4,387z"/>
	<circle class="st5" cx="92" cy="375.5" r="11"/>
	<g>
		<g>
			<path d="M176.3,340.7c-17.7,13.2-38.4,22.1-59.6,27.9c-6.6,1.8-13.3,3.3-20.1,4.4c-1.9,0.3-1.1,3.2,0.8,2.9
				c22.8-4,45.4-11.3,65.5-22.9c5.2-2.9,10.1-6.2,14.9-9.7C179.4,342.2,177.9,339.6,176.3,340.7L176.3,340.7z"/>
		</g>
	</g>
	<ellipse class="st6" cx="191" cy="334.5" rx="27" ry="38"/>
	<ellipse class="st7" cx="178.9" cy="446.5" rx="27.9" ry="41"/>
	<ellipse class="st6" cx="188.1" cy="445.5" rx="27.9" ry="41"/>
	<path class="st8" d="M345.2,284.1c-9.5-4.6-45.5,6.3-85.2,6.3c-39.7,0-75.8-10.9-85.2-6.3c-0.6,0.3-0.8,20.6-0.8,47.2
		c0,34.8,0.4,80.4,0.6,106c0.1,11.9,0.2,19.5,0.2,19.7c0,5.8,38.2,36.6,85.2,36.6s85.2-30.7,85.2-36.6
		C345.2,456,347,284.9,345.2,284.1z"/>
	<path class="st9" d="M222,452.5c0-35,1-75,3-111c-18.3-0.5-33.2-1.8-49-10.3c0,34.8,0.4,80.4,0.6,106c3.1,1.5,7.2,4.9,10.4,6.3
		C198.1,448.3,210.3,455.2,222,452.5z"/>
	<ellipse class="st6" cx="339" cy="338.5" rx="27" ry="38"/>
	<path class="st4" d="M359.2,300.9c0,5.8-44.4,10.6-99.2,10.6s-99.2-4.7-99.2-10.6c0-0.9-2-16,0-16.9c11-4.6,53,6.3,99.2,6.3
		c46.2,0,88.2-10.9,99.2-6.3C361.3,284.9,359.2,300,359.2,300.9z"/>
	<ellipse class="st10" cx="260" cy="284.1" rx="99.2" ry="10.6"/>
	<path class="st4" d="M354,278.5c0,5.5-42.1,10-94,10s-94-4.5-94-10c0-0.9-1.9-15.2,0-16c10.4-4.3,50.2,6,94,6
		c43.8,0,83.6-10.3,94-6C355.9,263.3,354,277.6,354,278.5z"/>
	<ellipse class="st10" cx="260" cy="262.5" rx="94" ry="10"/>
	<path class="st11" d="M254,87.5c-1.9,1.8-3.7,3.7-5.4,5.6c-48.4,53-50.3,134.3,12.1,166.7c0.4,0.2,0.9,0.5,1.3,0.7c0,0,0,0,0,0
		C357.8,181.2,283.7,114.4,254,87.5z"/>
	<circle class="st12" cx="330" cy="215.5" r="16"/>
	<circle class="st12" cx="286" cy="225.5" r="16"/>
	<g class="st13">
		<path class="st14" d="M253.5,98.4c14,19.1,20.9,43,21,66.5c-0.1,23.6-8.7,47.6-24.7,65c0,0-0.3-0.2-0.3-0.2
			c6.7-9.4,12.1-19.8,15.6-30.8c9-27.6,6.2-58-4.5-84.7c-2.1-5.4-4.6-10.6-7.5-15.6L253.5,98.4L253.5,98.4z"/>
	</g>
	<circle class="st12" cx="307" cy="227.5" r="15"/>
	<circle class="st12" cx="268" cy="227.5" r="15"/>
	<g class="st13">
		<path class="st14" d="M259.8,94.6c37-3.3,77.8-6.3,114.9-8.9c22.2-0.8,52.2-4.4,72.5,5.9c9,4.6,15.6,12.8,20.1,21.6
			c2.4,4.3,4.1,8.8,5.9,13.3l-0.4,0.2c-12.3-26.9-24.6-37.3-54.7-38.2c-14.4-0.5-28.8,0.5-43.2,1.4
			C336.9,91.7,297.2,95.2,259.8,94.6L259.8,94.6z"/>
	</g>
	<circle class="st12" cx="393" cy="205.5" r="16"/>
	<circle class="st12" cx="347.5" cy="198" r="19.5"/>
	<circle class="st12" cx="367" cy="220" r="17"/>
	<circle class="st12" cx="421" cy="203.5" r="21"/>
	<g class="st13">
		<path class="st14" d="M280.6,162.2c20.6-3.2,42.1-5.1,62.9-6.3c21-1.1,42.1-1.6,63.2-0.7c10.6,0.5,21.2,1.2,31.6,3.2
			c2.6,0.5,5.3,1.1,7.7,2.3c0.8,0.4,1.7,0.8,2.2,1.7l-0.3,0.2c-1-1.3-3-1.6-4.6-2c-12-2.2-24.4-2-36.6-2.2c-14-0.1-28,0.3-42,0.7
			c-28,0.8-56,2-84,3.6C280.6,162.6,280.6,162.2,280.6,162.2L280.6,162.2z"/>
	</g>
	<path class="st15" d="M243.4,246.9c-12.1,3.8-25,4.8-37.5,2.8c-12.5-2-24.9-7.2-33.3-16.6c13.2,1,26.5,1.1,39.7,0.4
		c5.6-0.3,11.4-0.9,16.4-3.3c-36.5-53-1.8-124.6,25-142.9l-6.6,0.3C104.6,90.7,81.8,98.4,78.3,100.3c-1.5,0.8-2.9,1.5-4.4,2.3
		C-7.3,144.3,35,255.2,108,255.2c60.7,4.8,111.5,6.1,153.7,5.3C254.8,256.3,248.7,251.7,243.4,246.9z"/>
	<path class="st16" d="M419.8,79.4l-166.2,7.8c-1.9,1.3-3.9,2.9-5.9,4.8c0.3,0.4,0.6,0.7,0.9,1.1c-48.4,53-50.3,134.3,12.1,166.7
		c0.4,0.2,0.9,0.5,1.3,0.7c0,0,0,0,0,0c112.8-2.3,164.2-19.9,179.6-26.5c3.5-1.5,7.1-2.9,10.6-4.2
		C525.2,202.6,497.7,70.2,419.8,79.4z"/>
	<g>
		<path class="st9" d="M154,126.5c-5.2,0-10,3.5-13.9,9.5c-5.9,4.6-13.3,7.1-20.8,7.7c-8.8,0.8-17.7-0.9-26.2-3.5
			c3.5,8.8,10.1,16.4,18.3,21.2c6,3.5,12.9,5.5,19.8,5.8c-0.1,2-0.2,4.1-0.2,6.3c0,26,10.3,47,23,47s23-21,23-47
			S166.7,126.5,154,126.5z"/>
	</g>
	<path class="st15" d="M262,260.5C262,260.5,262,260.5,262,260.5C262,260.5,262,260.5,262,260.5C262,260.5,262,260.5,262,260.5z"/>
	<path class="st16" d="M261.8,260.5c0.1,0,0.1,0,0.2,0c-0.5-0.2-0.9-0.5-1.3-0.7C261,260,261.4,260.3,261.8,260.5z"/>
	<g class="st17">
		<path class="st14" d="M419.8,79.5c0.1,0.1-167,8.3-166,8.1c-19.4,14.4-32,41.2-37.4,64.3c-7.5,33-0.9,66.1,23.4,90.5
			c6.7,6.7,14.3,12.4,22.4,17.3l-0.5-0.1c50.6-1.4,101.6-4.5,150.8-16.8c10.2-2.6,20.3-5.7,30-9.8c4.2-1.7,10.6-4,14.7-6
			C523.3,196.2,495.6,70.7,419.8,79.5L419.8,79.5z M419.8,79.4c76.2-8.9,104.1,117.2,37.7,148.3c-4.1,1.9-10.4,4.3-14.7,6
			c-41.4,16.4-86.3,21.2-130.4,24.7c-16.9,1.3-33.8,1.8-50.7,2.3c-7.3-4.4-14.1-9.4-20.3-15.3c-26.2-24.7-33.7-59-25.7-93.5
			c4.8-20.5,14.1-40.4,28.3-56.2c2.9-3.1,6-6,9.5-8.4C253.6,87.2,419.7,79.4,419.8,79.4L419.8,79.4z"/>
	</g>
	<path class="st9" d="M172.5,233.1c8.4,9.4,20.8,14.6,33.3,16.6c12.5,2,25.5,1,37.5-2.8c-5.9-5.3-10.8-10.9-14.8-16.7
		c-4.9,2.3-10.8,3-16.4,3.3C199,234.2,185.7,234.1,172.5,233.1z"/>
	<ellipse class="st7" cx="342" cy="454.5" rx="30" ry="45"/>
	<path class="st18" d="M419.8,79.4l-166.2,7.8c-32.4,22.2-76.5,122.3,8.2,173.2c113-2.2,164.4-19.9,179.9-26.5
		c3.5-1.5,7.1-2.9,10.6-4.2C525.2,202.6,497.7,70.2,419.8,79.4z"/>
	<ellipse class="st6" cx="352" cy="453.5" rx="30" ry="45"/>
	<ellipse class="st19" cx="353.8" cy="453.5" rx="10.2" ry="20"/>
	<g>
		<g>
			<path d="M345.2,350.4c5.8,6.4,11.6,12.9,17.4,19.3c2.9,3.2,5.7,6.4,8.6,9.6c1.5,1.7,3,3.3,4.5,5c1.2,1.3,2.6,2.1,4.4,1.6
				c1.7-0.5,3.3-1.8,4.7-2.8c1.6-1,3.2-2.1,4.7-3.2c3.2-2.2,6.3-4.5,9.4-6.8c6.1-4.6,12-9.6,17.6-14.8c6.3-5.9,12.3-12.1,18-18.6
				c1.3-1.5-0.9-3.6-2.1-2.1c-9.6,11.1-20.1,21.2-31.6,30.3c-5.8,4.6-11.8,8.9-18,12.9c-0.7,0.5-1.5,1-2.2,1.4
				c-0.7,0.5-1.4,1-2.2,0.4c-1.5-1.2-2.7-3-4-4.4c-2.8-3.1-5.5-6.1-8.3-9.2c-6.2-6.9-12.5-13.9-18.7-20.8
				C346,346.8,343.9,349,345.2,350.4L345.2,350.4z"/>
		</g>
	</g>
	<path class="st20" d="M113,71c-8.5-37,68.5-84,73.7-4.9C186.7,66,144.5,25,113,71z"/>
	<path class="st4" d="M432.2,343.3c0,0-29.2-4.8-37.2-18.8l41,1.6L432.2,343.3z"/>
	<path class="st4" d="M444.3,336.6c0,0,21.1-29.7,11.1-71.6l-25,54L444.3,336.6z"/>
	<path class="st4" d="M439.8,343.3L439.8,343.3c27.6-7.1,47-32,47-60.5V275l-47,50.8V343.3z"/>
	<ellipse class="st5" cx="436" cy="331" rx="11.5" ry="13"/>
	<g class="st13">
		<path class="st14" d="M476.9,170.8c2.3,10.4-3.3,20.8-10.1,28.5c-6.1,6.8-13.7,12.1-21.7,16.5c-10.2,5.6-21.1,9.8-32.2,13.2
			c-46.6,13.6-95.7,15.9-144,14.1c0,0-7.6-0.4-7.6-0.4l0-0.4c20.3-0.3,40.5-1,60.7-2.5c40.7-3.3,97-10.1,131.4-32.5
			c12.1-8,24.8-20.8,22.9-36.4C476.5,170.9,476.9,170.8,476.9,170.8L476.9,170.8z"/>
	</g>
</g>
</svg>
