<svg id="Final" xmlns="http://www.w3.org/2000/svg" xmlns:xlink="http://www.w3.org/1999/xlink" viewBox="0 0 568.12 780.87"><defs><style>.cls-1{fill:#baa399;}.cls-1,.cls-10,.cls-11,.cls-12,.cls-13,.cls-14,.cls-15,.cls-2,.cls-3,.cls-4,.cls-5,.cls-7,.cls-8,.cls-9{stroke:#000;stroke-miterlimit:10;}.cls-1,.cls-10,.cls-12,.cls-14,.cls-15,.cls-2,.cls-3,.cls-4,.cls-5,.cls-7,.cls-8{stroke-width:5px;}.cls-2{fill:#0d1024;}.cls-3{fill:#15203c;stroke-linecap:round;}.cls-4{fill:#f4f1db;}.cls-5{fill:#262261;}.cls-6{fill:#f1f1f2;}.cls-7{fill:#2b388f;}.cls-8{fill:#1b75bb;}.cls-9{fill:#e6e7e8;}.cls-10,.cls-13{fill:none;}.cls-11{fill:#fff;}.cls-12{fill:#26a9e0;}.cls-13{stroke-width:4px;}.cls-14{fill:url(#radial-gradient);}.cls-15{fill:url(#radial-gradient-2);}</style><radialGradient id="radial-gradient" cx="136.36" cy="421.85" r="22.51" gradientUnits="userSpaceOnUse"><stop offset="0" stop-opacity="0"/><stop offset="0" stop-color="#02a6e4" stop-opacity="0.5"/><stop offset="1" stop-color="#00adee" stop-opacity="0.5"/></radialGradient><radialGradient id="radial-gradient-2" cx="234.01" cy="420.97" r="22.51" xlink:href="#radial-gradient"/></defs><g id="Reading"><path class="cls-1" d="M379.13,492.78c-107.35,17.76-103.9,288.83-161.92,288.83,0,0,172.2-2.2,191.74,23Z" transform="translate(-217.17 -74.2)"/><path class="cls-1" d="M555.76,493.48C608.8,468.8,859.68,663,759.35,771.61L574.53,570.45Z" transform="translate(-217.17 -74.2)"/><path class="cls-2" d="M440,838.53c9.71,11.37-77.68,21.5-67.09-28.82" transform="translate(-217.17 -74.2)"/><path class="cls-2" d="M637,752.53c35.83,19-131,169.06-131,61.65" transform="translate(-217.17 -74.2)"/><path class="cls-3" d="M600.64,692.18,356.16,795.63a.47.47,0,0,0-.26.65c.37.72.8,1.48,1.28,2.25,12.49,20.16,58.87,54.63,120.3,54,32.34-.34,66.47-12.35,94.63-28.49a.52.52,0,0,0,.17-.16A175.42,175.42,0,0,0,604.92,735c1.5-14.74-1-28.58-3.5-42.43A.56.56,0,0,0,600.64,692.18Z" transform="translate(-217.17 -74.2)"/><path class="cls-4" d="M627.76,746.48,616.89,685.1a.52.52,0,0,0-.73-.36l-15.57,7a.48.48,0,0,0-.29.52c2.36,13.94,4.76,27.87,3.35,42.71a182.49,182.49,0,0,1-29.51,87.1.5.5,0,0,0,.72.67c40.31-25.17,66.85-59.68,53-76A.45.45,0,0,1,627.76,746.48Z" transform="translate(-217.17 -74.2)"/><path class="cls-5" d="M383.11,518.56s-41.93,1-55.26,46.68l100.83,45.65Z" transform="translate(-217.17 -74.2)"/><path class="cls-5" d="M305.25,701.41C287.85,773,237.46,530,302.1,525c13.84-6.21,138,27,33.44,106.71l-.75,50.35Z" transform="translate(-217.17 -74.2)"/><path class="cls-5" d="M374.59,604.84s-164.29,78-51.43,168.62c0,0,30.31,9.35,70.33-34.37,0,0-17.56-36.62-35.05-54.63l14,13.65,18.31-36.78Z" transform="translate(-217.17 -74.2)"/><path class="cls-5" d="M385.2,511S329,573.38,380.71,634.85c0,0-19.66,7.07-2.68,29.4,0,0-57.14,70.72,0,109.54,0,0,157,101.27,243.34-67.49,0,0,1.27-57-36.51-77.78,0,0,35-124.74-44.28-127.12Z" transform="translate(-217.17 -74.2)"/><path class="cls-6" d="M412.9,633.56c-.88-19-7.29-28.88-15.24-29.94l-31.9-4.23.22,4.84c3.28,8.24,6.73,17.45,12.65,23.77l-.4-8.61,17.16,2.27c3,.4,5.29,3.93,5.58,10.32s-1.58,10.17-4.35,9.8l-17.46-2.32,0-.5-.46.23c-.16.13-.34.27-.53.4a11.75,11.75,0,0,0-4.43,6.53c.13,5.91,2.38,13.93,3.6,15.34a5.41,5.41,0,0,1,.85,1.33,4,4,0,0,1-.29,4.72A72.52,72.52,0,0,0,372,678l9,1.19-1-21.24,20.33,2.69C408.24,661.66,413.75,652,412.9,633.56Z" transform="translate(-217.17 -74.2)"/><path class="cls-6" d="M443.94,630l2.67,57.91L435,686.33l-2.67-57.92L413.85,626l-.94-20.31,48.67,6.45.93,20.31Z" transform="translate(-217.17 -74.2)"/><path class="cls-6" d="M491.2,694.92c4.85-4,10.72-5.34,16.69-6.77a4.71,4.71,0,0,1,4.47,1.1l-3.12-18.69c-4.92,4.08-10,6.87-17.59,5.86-9.92-1.43-15.74-10.51-16.34-23.51-.61-13.23,4.09-20.91,14.41-19.54,6.49.86,12.92,4.83,18.29,10.61l1.4-18.5c-7-7.73-13.61-10.92-21.66-12-11-1.47-26,5.44-24.47,37.7,1.36,29.6,14.22,42.25,27.2,44.53A3.67,3.67,0,0,1,491.2,694.92Z" transform="translate(-217.17 -74.2)"/><path class="cls-7" d="M394.64,532.14c-71.48,34,140.42,40.84,161.12-38.66Z" transform="translate(-217.17 -74.2)"/><path class="cls-7" d="M394.64,515.37c-71.48,34,108,42.48,155.22-13.28Z" transform="translate(-217.17 -74.2)"/><path class="cls-4" d="M547.35,308.55c-90.11,2.81-152.66,206.12-7.75,198.61C656.06,459,655.47,350.8,547.35,308.55Z" transform="translate(-217.17 -74.2)"/><path class="cls-4" d="M385.37,350.22c-12-28.19-29.93-34.69-43.68-34.79-62.37,34-91.64,97.32-68.06,146.45C365.59,576.06,422.51,430.27,385.37,350.22Z" transform="translate(-217.17 -74.2)"/><path d="M302.45,678c14.83-14,45.41-17.68,55.64,3.56a25,25,0,0,1,2.29,8.61l-.46.19A35.28,35.28,0,0,0,353.27,680c-11.07-11.53-29-9.4-42.85-4.58a73,73,0,0,0-7.74,3.1l-.23-.44Z" transform="translate(-217.17 -74.2)"/><path class="cls-8" d="M361.68,419.47c-28.18,0-51,24.18-51,54a56.18,56.18,0,0,0,6.32,26l3.64,1.72a39.29,39.29,0,0,0,5.94,2.33,54.74,54.74,0,0,0,9.64,1.09,35.91,35.91,0,0,0,4.06-.47A52.85,52.85,0,0,0,369,489.63c15.14-15.15,21.78-37.54,24.45-58.36A49.05,49.05,0,0,0,361.68,419.47Z" transform="translate(-217.17 -74.2)"/><path d="M382.56,633.17l17.75,20.29-.15-.15c.3.28.8.65,1.2,1A68.64,68.64,0,0,0,418,662.72c28.61,9.89,60.11,7.48,89.43,2-18.06,4-37.09,7-55.62,6.42-16.42-.36-33.35-3.15-48.08-10.82a43.24,43.24,0,0,1-6.28-4.05c-.1-.09-18.46-19.65-18.57-19.76l3.7-3.35Z" transform="translate(-217.17 -74.2)"/><path d="M498.47,675.34c-31.69,4.65-73.51-1.19-99.73-20.4l.15-.26c22.53,12.61,48.38,17.65,73.88,19.74a236.63,236.63,0,0,0,25.68.63l0,.29Z" transform="translate(-217.17 -74.2)"/><path d="M401.14,654.54c12.73,15.6,28,29.67,46,39a114.67,114.67,0,0,1-13.46-7.23,166,166,0,0,1-34.89-29.88l2.33-1.88Z" transform="translate(-217.17 -74.2)"/><path d="M379.9,662.6c6.86,8.24,14.11,16.3,21.69,23.92s15.52,15.11,24.88,20.56a84,84,0,0,1-13.85-8.54c-13.14-9.72-25-20.95-36.46-32.63l3.74-3.31Z" transform="translate(-217.17 -74.2)"/><path class="cls-9" d="M454.49,679.75l-.35-.17c-4.12,6.21-8,12.6-12.28,18.69-.47.66-11.08,15.58-11.67,15.94,0,4.6,10.09-5.22,10.1-.61l15.93-8.24C455,696.82,453.53,688.27,454.49,679.75Z" transform="translate(-217.17 -74.2)"/><path d="M539.34,698.47c1.91-13.72,12.08-29.68,23.66-37.27l.42.26c-1.41,2.37-4.3,7.08-5.77,9.41-4.17,6.79-10.5,16.62-14.82,23.27l-3.06,4.6-.43-.27Z" transform="translate(-217.17 -74.2)"/><path d="M533.43,698.63c14.34-6.68,33,.47,40.44,14.12a29.78,29.78,0,0,1,4,14.59l-.47.17a55.81,55.81,0,0,0-4.73-9.47c-6.75-11.14-19.2-18.09-32.11-18.9a39.42,39.42,0,0,0-7,0l-.07-.49Z" transform="translate(-217.17 -74.2)"/><path d="M480.56,705.7c3.23-7.3,10.09-12.87,17.56-15.57,15.46-5.79,33.07.71,45.25,10.48a73.46,73.46,0,0,1,15.73,16.78l-.34.36c-2.52-2.25-5.93-5.21-8.54-7.24-14.11-11.24-32.52-21.49-51-16.55A35.34,35.34,0,0,0,481,706l-.41-.29Z" transform="translate(-217.17 -74.2)"/><path class="cls-10" d="M608.8,708.8s-3,32-48.52,54.53" transform="translate(-217.17 -74.2)"/><path d="M565.71,733.39c-.91,11.7-2.85,23.82-4.91,35.37a49.62,49.62,0,0,1-11.35,9.94c-26.83,17.6-62.79,14.24-90.17-.24l.16-.48a155.56,155.56,0,0,0,25.09,6.45c24.83,4.48,54.37.28,72.52-17.36,2-8.42,6.11-25.39,8.17-33.79l.49.11Z" transform="translate(-217.17 -74.2)"/><path class="cls-9" d="M361.63,696.71l42.89,45.58c.36-6.53-.9-14-.65-20.53-.45-.63-40.75-44.65-40.79-45.42a.13.13,0,0,1,0,.06c-.87,3.46-.14,7.25-.32,10.79A84.9,84.9,0,0,1,361.63,696.71Z" transform="translate(-217.17 -74.2)"/><path class="cls-9" d="M429.75,714.73c0-8,0-16,0-24,0-7,1.15-14.26-.15-21.18,0,0,0,0,0,0a109.71,109.71,0,0,1-2.2,12.48c-.88,3.24-2,6.39-3,9.57-.79,7.22-1.45,14.54-1.87,21.75-.31,5.27-7.11,6.22-9.32,2.83a4.41,4.41,0,0,1-1.21-2.48c-.46-2.76-.94-5.52-1.42-8.28a5.84,5.84,0,0,1-.27-1c-1.21-7.3-3.86-14.15-6.15-21.15-1.74-5.31-4.39-10.73-5.26-16.31-.1,16.75.52,31,1,47.75l6.57,6.59,24.13-3.87A4.83,4.83,0,0,1,429.75,714.73Z" transform="translate(-217.17 -74.2)"/><path class="cls-9" d="M407.64,722.14c-1.91-.08-21.59-31.8-22.43-33.58a5,5,0,0,1-1-1.26A140.27,140.27,0,0,0,374,672.42c-.23,12.07,0,16.39,0,16.39L407,722.14C407,717.79,407.53,726.49,407.64,722.14Z" transform="translate(-217.17 -74.2)"/><path class="cls-11" d="M400.53,723.73c-12.12-16.09-24.95-31.31-38.09-47.47,13,13.38,1.18,1.46,0,0,14.31,15,29.47,30.21,44.51,45.88-9.58-14.79-1.86-1.91,0,0-11.54-16.84-22-33.23-32.82-50.7,11.32,14.4,1.36,2.11,0,0,11.95,16.3,25.95,32.69,38.8,49.36-4.12-15.82-1.61-2.06,0,0l-12.36-47.44-1.74-6.68,15.86,47.4,2.25,6.72,11.23-45.49,1.6-6.49-7.51,46.59-1.08,6.73,28.94-37.65,4.14-5.39-21.44,34.49-3.05,4.91,34.94-27.82,5-4-19.86,17.65c-5.42,4.44-11.25,9.12-15.92,16.15,2.34,4.68,2.34,10.53,5.27,15.09" transform="translate(-217.17 -74.2)"/><path class="cls-8" d="M549.86,502.09a49.26,49.26,0,0,0,9.3-28.62c0-29.82-27.35-54-61.1-54a65.12,65.12,0,0,0-43.32,15.93c0,21.82,9.19,42.8,26.75,56.34A76.37,76.37,0,0,0,516,506.32c8.59,1.29,17.19.41,25.8.05A36.92,36.92,0,0,1,549.86,502.09Z" transform="translate(-217.17 -74.2)"/><path class="cls-3" d="M546.48,308.58a.18.18,0,0,0,.06-.35c-28.12-10.85-63.45-17.26-105.81-17-38,.07-71.33,9.24-98.47,23.93a.17.17,0,0,0,.08.32c13.65.3,31.2,7,43,34.78,37.12,80-19.7,225.62-111.53,111.91a0,0,0,0,0-.07,0c18,37.06,66.12,66,153,68.07,45-2.3,82.2-10.55,111.92-22.69a.18.18,0,0,0-.09-.34C395.45,513.69,457.05,312.66,546.48,308.58Z" transform="translate(-217.17 -74.2)"/><path class="cls-12" d="M351.57,679.16l49.95,44A6.55,6.55,0,0,0,409,724l73.88-40.54,1.67,112.38-66.72,38.75a6.56,6.56,0,0,1-7.15-.38l-52.52-38.37Z" transform="translate(-217.17 -74.2)"/><line class="cls-13" x1="201.05" y1="761.29" x2="191.9" y2="650.13"/><path class="cls-13" d="M410.94,835.49c-2-35.52-7.61-77.55-10.35-113.14" transform="translate(-217.17 -74.2)"/><path class="cls-2" d="M461.94,341.89s86-210.81,224.94-189.41C686.88,152.48,526.67,88,461.94,341.89Z" transform="translate(-217.17 -74.2)"/><path class="cls-2" d="M401.92,349.32S383.12,122.42,516.7,78.58C516.7,78.58,344.68,93.66,401.92,349.32Z" transform="translate(-217.17 -74.2)"/><path class="cls-7" d="M304.38,533.2c7.53,4.64,26.52,14.68,45.89,11.76a2,2,0,0,0,1-3.68c-5.75-4.77-20.13-13.49-46.36-10.78C303.33,530.66,303,532.36,304.38,533.2Z" transform="translate(-217.17 -74.2)"/><path class="cls-7" d="M306.11,527.06c7.53,4.64,26.51,14.68,45.89,11.76a2,2,0,0,0,1-3.68c-5.74-4.77-20.13-13.49-46.35-10.78A1.4,1.4,0,0,0,306.11,527.06Z" transform="translate(-217.17 -74.2)"/><path class="cls-10" d="M373.43,495s30.58-13,56.6,1.64" transform="translate(-217.17 -74.2)"/><circle class="cls-14" cx="136.36" cy="421.85" r="22.5"/><circle class="cls-15" cx="234.01" cy="420.97" r="22.5"/><path class="cls-3" d="M347.48,531.33s-14.37,4.53-33.38-6.51c0,0,16.47-14.23,17.46-33C331.56,491.81,357.36,501.15,347.48,531.33Z" transform="translate(-217.17 -74.2)"/><ellipse class="cls-3" cx="137.24" cy="662.18" rx="10.7" ry="23.18"/><ellipse class="cls-3" cx="482.06" cy="745.12" rx="10.7" ry="23.18" transform="translate(-301.09 -12.64) rotate(-6.72)"/><path class="cls-3" d="M749.45,759s17.49,9.69,28.19,7.67c9.56,15.72-10.53,10.06-36.58,10.31l-21.73-13.69Z" transform="translate(-217.17 -74.2)"/><path class="cls-7" d="M741.06,747.09c43.89,4.86-18,51.18-45.47,29.14" transform="translate(-217.17 -74.2)"/><path class="cls-5" d="M543.8,598s26.87,73.25,60.8,89.22c9.42,134.09,142.46,100.3,144.85,57.39C723.07,743.76,610.84,513.71,563.93,513" transform="translate(-217.17 -74.2)"/></g></svg>