<?xml version="1.0" encoding="utf-8"?>
<!-- Generator: Adobe Illustrator 26.0.3, SVG Export Plug-In . SVG Version: 6.00 Build 0)  -->
<svg version="1.1" id="Layer_1" xmlns="http://www.w3.org/2000/svg" xmlns:xlink="http://www.w3.org/1999/xlink" x="0px" y="0px"
	 viewBox="0 0 627.3 787.3" style="enable-background:new 0 0 627.3 787.3;" xml:space="preserve">
<style type="text/css">
	.st0{fill:#BAA399;stroke:#000000;stroke-width:5;stroke-miterlimit:10;}
	.st1{fill:#0D1024;stroke:#000000;stroke-width:5;stroke-miterlimit:10;}
	.st2{fill:#262261;stroke:#000000;stroke-width:5;stroke-miterlimit:10;}
	.st3{fill:#15203C;stroke:#000000;stroke-width:5;stroke-miterlimit:10;}
	.st4{fill:#F4F1DB;stroke:#000000;stroke-width:5;stroke-miterlimit:10;}
	.st5{fill:#2B388F;stroke:#000000;stroke-width:5;stroke-miterlimit:10;}
	.st6{fill:#1B75BB;stroke:#000000;stroke-width:5;stroke-miterlimit:10;}
	.st7{fill:url(#SVGID_1_);stroke:#000000;stroke-width:5;stroke-miterlimit:10;}
	.st8{fill:#808184;stroke:#000000;stroke-width:5;stroke-miterlimit:10;}
	.st9{fill:#929497;stroke:#000000;stroke-width:5;stroke-miterlimit:10;}
	.st10{fill:#D0D2D3;stroke:#000000;stroke-width:5;stroke-miterlimit:10;}
	.st11{fill:#A6A8AB;stroke:#000000;stroke-width:5;stroke-miterlimit:10;}
	.st12{fill:#F1F1F2;}
</style>
<g id="Final">
	<g id="Searching">
		
			<image style="overflow:visible;enable-background:new    ;" width="1268" height="1062" xlink:href="5DC05FE88628600B.png"  transform="matrix(-0.24 0 0 0.24 306.8242 416.58)">
		</image>
		<path class="st0" d="M169.4,484c-33.8-0.2-134,17.8-134,17.8c39.4-215.4,215.9-194.1,215.9-194.1C386.3,439.4,169.4,484,169.4,484
			z"/>
		<path class="st1" d="M326.6,600.1c64.8,34.9,59.8,57.2,59.8,57.2l14.7,117.8l7.1-121.5c2.4-41-65.7-85.6-65.7-85.6L326.6,600.1z"
			/>
		<path class="st2" d="M330.7,477.2c32.4,82.1,129.8,103.2,129.8,103.2c21.2-12,24.6-26.5,24.6-26.5l-17.7-23.4
			c-14.1-84.9-75.9-103.9-75.9-103.9L330.7,477.2z"/>
		<path class="st2" d="M527.2,433.5c-9.3,16-10.8,83.8-10.8,83.8l-87.3,26.8l-4-92.5c-2.9-27.6,72.8-35.7,74.9-32.2L527.2,433.5z"/>
		<path class="st2" d="M438.3,510.2c-39.2-9-65.6-5.6-65.6-5.6c-5.3-9.6-24.5-12.8-24.5-12.8l12.6,59.8
			c76.8,51.1,128.4,6.4,128.4,6.4c16.7-10.4,34.3,29.2,49.7,14.5c68.9-72,19.1-98.1,19.1-98.1C512.5,455.3,438.3,510.1,438.3,510.2z
			"/>
		<path class="st3" d="M170.5,484.6c-0.6-0.1-1.2,0.4-1.2,1c-3.8,46.6,7.5,98,36.2,135.8c0.2,0.2,0.4,0.4,0.7,0.4
			c55.5,12.8,113.1-0.6,141.2-58c0,0,0,0,0,0c0.3-0.6,0-1.3-0.6-1.5l-175.9-77.6C170.8,484.6,170.7,484.6,170.5,484.6z"/>
		<path class="st4" d="M205.8,621.7c-29.2-38.3-40.5-90.5-36.3-137.7l-9.3-4.1c-43.4-4.9-87.3,31.2-87.3,31.2
			C88.1,563.3,145.7,607.8,205.8,621.7z"/>
		<path class="st2" d="M245.8,333.8c-118.7,41.9-51.3,170.7-51.3,170.7c24.9,21.7,36.7,95.8,112.8,89.2
			c85.3-34.5,59.7-101.9,53.6-91.7c5.8-7.3,0-14.1,0-14.1c53.1-32.5,25.2-86.7,25.2-86.7L245.8,333.8z"/>
		<path class="st2" d="M226.7,395.4c-0.7,21-32.7,34.2-32.7,34.2l-8.4,15.6l-45.9,28.2c-69.4-57.3-35-136.8,89.2-131.2"/>
		<path class="st5" d="M235.6,364.6c-9.2,59.8,191.6,99.7,140.8,51.8"/>
		<path class="st5" d="M365.3,409.3c3.5,42.3-183.6-49.8-121.9-62"/>
		<path class="st3" d="M451.9,423.5c0.1,0,0.2-0.1,0.2-0.2c0-0.1-0.1-0.2-0.2-0.2c-127.3-33.4-10.4-257.3,72.7-134.3
			c0,0.1,0.1,0.1,0.2,0.1c0.1,0,0.2-0.1,0.2-0.2C503.8,185,274.9,110.2,214.1,243.3C164.5,350.9,338.2,440.1,451.9,423.5z"/>
		<path class="st1" d="M181.6,69.3c183.9,78,163.2,172.1,163.2,172.1C370.4,94.9,181.6,69.3,181.6,69.3z"/>
		<path class="st1" d="M373.4,14.2c110.8,166.2,41.7,233.5,41.7,233.5C517,139.3,373.4,14.2,373.4,14.2z"/>
		<path class="st6" d="M217.2,261.1c-0.9,0-1.7-0.3-2.5-0.8c-2.2-1.4-2.9-4.4-1.5-6.7c70.5-109.4,106.6,43.9,93.8,79.4
			C278.7,270.1,235.5,261.6,217.2,261.1z"/>
		<circle class="st4" cx="542.1" cy="365.1" r="52.8"/>
		<path class="st4" d="M444.9,421c0.1,0,0.2,0,0.2-0.1c0.1-0.1,0.1-0.2,0-0.3c-26.5-22.3-32.3-60.9-13.3-89.9
			c20.7-31.7,63.1-40.6,94.8-19.9c0-2.1,0-4.2,0-6.3c0-5-0.4-10-1.4-14.9C443.6,167.2,328.7,381.2,444.9,421z"/>
		<path class="st6" d="M445.9,421.3c2.2,0.7,4.5,1.4,6.9,2c16.1-2.4,31-7,43.8-14c0,0,29.7-1.5,29.8-98.5
			c-11.1-7.2-24.1-11.1-37.3-11.1c-37.8,0-68.5,30.6-68.5,68.5C420.7,388.9,430,408.4,445.9,421.3z"/>
		<circle class="st6" cx="532.2" cy="371.1" r="45.9"/>
		
			<radialGradient id="SVGID_1_" cx="240.8247" cy="341.4477" r="60.8797" gradientTransform="matrix(-1 0 0 -1 796.4823 710.3567)" gradientUnits="userSpaceOnUse">
			<stop  offset="0" style="stop-color:#000000;stop-opacity:0"/>
			<stop  offset="0" style="stop-color:#02A6E4;stop-opacity:0.5"/>
			<stop  offset="1" style="stop-color:#00ADEE;stop-opacity:0.5"/>
		</radialGradient>
		<path class="st7" d="M592.7,410.1c-27,24.3-65.6,25.6-86,2.8s-15.2-60.9,11.9-85.3c27-24.3,65.6-25.6,86-2.8
			S619.8,385.8,592.7,410.1z"/>
		<path class="st8" d="M538.9,422.2l-38.4,82c-10.7,15.8-23-5.1-18.2-6.9l37.1-79.8L538.9,422.2z"/>
		<path class="st9" d="M500.1,419.4c-9.8-12.3-13.8-29.3-9.8-48.1c8-37.4,44.7-67.7,82.2-67.7c14.1,0,26.3,4.3,35.6,11.7
			c-9.7-12.1-24.9-19.6-43.5-19.6c-37.4,0-74.1,30.3-82.1,67.7C477.3,386.7,484.7,407.2,500.1,419.4z"/>
		<path class="st10" d="M500.1,419.4c9.7,12.1,24.9,19.6,43.5,19.6c37.4,0,74.2-30.3,82.1-67.8c5-23.3-2.5-43.8-17.8-56
			c-9.3-7.4-21.5-11.7-35.6-11.7c-37.4,0-74.1,30.3-82.1,67.7C486.2,390.1,490.4,407.3,500.1,419.4z M535.8,431.1
			c-26.2-5.3-41.7-29.3-35.6-58.2c7-32.7,39.1-59.3,71.9-59.3c25.2,0,43.3,15.7,47.2,37.8c1.2,7.1,1,14.4-0.5,21.4
			c-7,32.7-39.1,59.3-71.9,59.3C543.1,432.2,539.4,431.9,535.8,431.1L535.8,431.1z"/>
		<path class="st11" d="M535.8,431.1c3.6,0.7,7.3,1.1,11.1,1.1c32.7,0,64.9-26.5,71.9-59.3c1.6-7,1.7-14.3,0.5-21.4
			c-3.9-22.1-22-37.8-47.2-37.8c-32.7,0-64.9,26.5-71.9,59.3C494.1,401.8,509.6,425.9,535.8,431.1z M544.3,419.5
			c-28.3,0-46.4-22.9-40.3-51.2s33.8-51.2,62.1-51.2s46.4,22.9,40.3,51.2S572.6,419.5,544.3,419.5L544.3,419.5z"/>
		<ellipse class="st5" cx="537.4" cy="487.3" rx="22.1" ry="10.1"/>
		<ellipse class="st5" cx="537.4" cy="480" rx="22.1" ry="10.1"/>
		<path class="st12" d="M340.1,502.5l20.6,1.7c-0.1,0-0.3-0.1-0.4-0.1c-0.3-0.1-0.5-0.2-0.7-0.5c-0.4-0.4-0.6-0.9-0.6-1.5v-0.3
			c-0.1-0.1-0.1-0.2-0.1-0.4l-0.1-0.6c0-0.4,0.1-0.8,0.3-1.1c0.3-0.5,0.5-0.8,0.8-1.3c0.2-0.4,0.4-0.8,0.6-1.2
			c0.5-1.5,0.8-3.2,0.7-4.8c-0.4-0.7-0.6-1.4-0.7-2.2c-0.4-0.6-1-1.1-1.6-1.4c-0.6-0.3-1.1-0.7-1.5-1.2l-6-0.5
			c-2.9-0.2-3.2-3.8-0.3-9.2s6.5-7.9,9.6-7.7l16.1,1.3c0.4-0.4,0.8-0.8,1.2-1.2c3.6-4.2,6.5-9,8.5-14.2l-20.9-1.7
			c-8.2-0.7-18.4,6.4-26.9,22.4C330.4,492.6,331.9,501.9,340.1,502.5z"/>
		<path class="st12" d="M361,504.3l-9.5,17.9l12,1l3.2-6c-0.2-1.9-0.4-3.9-0.7-5.9c-0.4-2.9-1.4-5.6-2.9-8.1l0,0
			c-0.2,0.1-0.4,0.3-0.5,0.5c-0.2,0.2-0.4,0.4-0.7,0.5C361.7,504.3,361.4,504.3,361,504.3L361,504.3z"/>
		<path class="st12" d="M295,475.6l6.2-16.5l42.7,3l-6.2,16.5l-16.2-1.2l-17.7,47.1l-10.1-0.7l17.7-47.1L295,475.6z"/>
		<path class="st12" d="M241.1,508.9l8-14.5c2.4,4.1,5.2,7.3,11.1,7.9c7.7,0.7,14.6-5.4,18.9-15.6c4.4-10.4,3.2-17.3-4.7-18.1
			c-5-0.5-10.9,1.4-16.5,5l4.5-14.9c7.4-4.8,13.2-6.1,19.4-5.5c8.5,0.9,17.3,9.1,6.6,34.4c-10.1,23.8-23.7,31.2-33.9,30.2
			C247.9,517.1,244.3,514.1,241.1,508.9z"/>
		<path class="st3" d="M542,478.5c2.8-40.5-59.8-35.6-47.2-21.9c10,1.2,30.2,15.7,40.4,23.4C537.5,479.6,539.8,479.1,542,478.5z"/>
		<path d="M436.8,508.2l3.1,3.9c-8.9,5.8-9.5,18-6.4,27.3C428.3,529.6,427.8,516.2,436.8,508.2z"/>
		<path class="st5" d="M432.6,440.1c-14.9-23.8,68.6-19.2,54.1-11.6C449.8,429.6,432.6,440.1,432.6,440.1z"/>
		<path class="st3" d="M431.8,435.8c-27.7,1-36.4-12.5-36.4-12.5l45.3,2.2C421.1,428.6,431.8,435.8,431.8,435.8z"/>
		<path d="M359.7,485.6l2.1,4.5c-16.5,6.9-33.2,13.1-50.5,17.6c-5.7,1.5-11.6,2.7-17.5,3.4c11.6-2.2,22.8-6.3,33.7-10.8
			S349.2,490.9,359.7,485.6L359.7,485.6z"/>
		<path d="M358.9,500.3l3.8,3.2c-8.8,8.6-19.7,14.5-31,19c-3.7,1.5-7.5,2.6-11.3,3.8c1.8-0.8,3.7-1.5,5.5-2.3
			C338.2,518.3,350.1,510.8,358.9,500.3L358.9,500.3z"/>
		<path d="M193.2,427.3l1.7,4.7l-25.8,8.4l-0.4,0.1h-0.3c-11.5-2-22.3-7.1-31.2-14.7l-2.8-2.8c-0.6-0.7-2-2.3-2.6-3
			c0.7,0.6,2.2,2.2,2.8,2.8s2.3,2,3,2.5c9.1,6.8,19.8,11,31.1,12.1l-0.7,0.1L193.2,427.3L193.2,427.3z"/>
		<path d="M187.7,430.6l2.8,4.2l-18.1,10.9c-0.1,0.1-0.2,0.2-0.4,0.2c-7.6,1.9-15.5,2.5-23.3,1.8c-2.6-0.3-5.1-0.8-7.6-1.6
			c2.5,0.6,5,0.8,7.6,0.9c7.6-0.1,15.2-1.4,22.4-3.9l-0.4,0.2L187.7,430.6L187.7,430.6z"/>
		<path class="st3" d="M112.3,616.4c-20.5,28.2-65.9,0.4-65.9,0.4c16.6-0.5,37.7-11.2,37.7-11.2"/>
		<path class="st5" d="M136.2,624.3c-81.2-4.5-53-26.7-53-26.7"/>
		<path class="st5" d="M136.1,623.4c-79-19.2-47.2-35.9-47.2-35.9"/>
		<path class="st2" d="M202,470.3c7.2,29.3-16.8,77.4-27.6,97c-3.1,5.6-4.3,12.1-3.3,18.5c16.8,104.5-78.2,9.1-78.2,9.1
			c-69.3-39.5,77.9-158,115.6-163.7"/>
		<path class="st1" d="M80.1,761.5c135.8-41.2,133-173.9,133-173.9c2.2-10.4-20.4-15.5-20.4-15.5C186.9,700.3,80.1,761.5,80.1,761.5
			z"/>
		<path class="st3" d="M139.3,784c-76.9,4.7-79.2-12.9-79.2-12.9C186.7,753.5,139.3,784,139.3,784z"/>
		<path class="st3" d="M489.2,778.5c-78.1-38.2-87.9-0.3-87.9-0.3C428.6,792.9,489.2,778.5,489.2,778.5z"/>
	</g>
</g>
</svg>
